<svg xmlns="http://www.w3.org/2000/svg" viewBox="0 0 720 720" xmlns:xlink="http://www.w3.org/1999/xlink" preserveAspectRatio="xMidYMid" >
  <clipPath id="screenWP" >
    <path d="M458.67 576.64l20.9 72.1c5.15 17.78-6.68 36-25 38.52l-91.6 12.6c-12.52 1.73-25.23 1.7-37.75-.08l-119.88-17.06 173-25.75-3-89.75 83.33 9.42z"/>
    <path d="M381.28 695.52l74.43-15.55c11.5-2.62 21.5-15.44 18.68-26.88l-17.75-75.4-110.5-6.5s4.2 38.5 6.25 55.22c1.44 11.85-5.54 34.2-17.38 35.75-32.1 4.22-127.93 16.97-127.93 16.97-2.63.35-2.63 4.17 0 4.5L319.9 698.4c20.47 2.68 41.25 1.7 61.4-2.9z"/>
    <path  d="M634.8 21.45l-515.17 110.2c-7.3 1.57-12.7 7.74-13.3 15.18l-32.8 400c-.66 7.95 5.34 14.9 13.3 15.42l512.3 34.4c9.76.63 18.15-6.8 18.7-16.55L648.5 33.17c.43-7.48-6.4-13.3-13.7-11.72z"/>
    <path d="M644.5 30.7c.43-7.5-6.4-13.3-13.7-11.72l-513.17 111.2c-7.3 1.57-12.7 7.74-13.3 15.18l-29.2 358.77 542.1 15.43L644.5 30.7z"/>
    <path  d="M84.84 563.78l510.3 33.4c9.75.63 18.14-6.8 18.7-16.56l3.4-61.06L75.1 504.13l-3.6 44.2c-.65 7.97 5.35 14.92 13.32 15.45z"/>
  </clipPath>

  <image xlink:href="/assets/web/wp-monitor.jpg" width="720" height="720" clip-path="url(#screenWP)" />
</svg>
