<svg viewBox="-128 0 768 512" xmlns="http://www.w3.org/2000/svg" preserveAspectRatio="xMidYMin" >
  <path d="M198.6 398.2l-83.4-250.4c8.6-.4 17.2-1.3 25.4-2.2 8.6-1.4 9.5-7.7 9-11-.4-2.6-3-8.5-10.4-7.6-22.2 1.8-42.2 2.7-60.7 2.7h-7.3c40.4-59 108-98 185-98 55.8 0 106.6 20.5 146 54.5-12.2 2.2-25 10.8-28.5 23-11 35.5 10.4 58.6 20.4 74 11 17.2 15 35.8 17 55.3 2 27.2-9 61.7-16 88l-24 70.3-83-249c9-.4 17.6-1.3 25.8-2.2 9-1.4 9.5-7.7 9-11 0-2.6-2.7-8-10.4-7.6-22 2.2-41.6 2.7-60.2 2.7s-38.5-.5-60.7-2.7c-7.7-.5-10 5-11 7.7 0 3.2.5 9.5 9 11 8 .8 16 1.7 23.7 2l36.2 99-50.7 151.5zm281.7-142c0 80.3-42.7 151-106.6 190.5l52-148.8c10.6-29 22.3-57 29.3-87 3-16.4 5-32.8 5-49.5 13 28.5 20 60.3 20 94zm-224 224c-22.3 0-43.2-3-63-9L258.8 274l71 193.6c-23.4 8-48 12.7-73.8 12.7zm-104-25.3C80.8 417 31.8 342 31.8 256c0-30.4 6-59 16.8-85.2l104 284zm104-455C114.6 0 0 114 0 256c0 141.2 114.7 256 256.2 256 141 0 255.8-114.7 255.8-255.8C512 114.7 397.3 0 256.2 0z" fill="#21759b" />
</svg>
