<?xml version="1.0" encoding="utf-8"?>
<!-- Generator: Adobe Illustrator 19.0.0, SVG Export Plug-In . SVG Version: 6.00 Build 0)  -->
<svg version="1.0" id="Layer_1" xmlns="http://www.w3.org/2000/svg" xmlns:xlink="http://www.w3.org/1999/xlink" x="0px" y="0px"
	 viewBox="0 0 100 100" enable-background="new 0 0 100 100" xml:space="preserve">
<polygon id="jst" fill="#FFFFFF" points="0,17.563982 100,0 100,40.246582 0,57.8105621 "/>
<polygon id="til_1_" display="none" fill="#F2F2F2" points="47,9.4029398 100,0 100,72.6953888 47,82.0983276 "/>
<polygon id="ico" display="none" fill="#F2F2F2" points="0,35.3539314 67,23.511549 67,88.1576157 0,100 "/>
<polygon id="blk_1_" display="none" fill="#F2F2F2" points="0,50.1948547 100,32.6308746 100,82.4360199 0,100 "/>
<polygon id="rec" fill="#FFFFFF" points="0,17.4674225 59,7 59,88.5424805 0,99.009903 "/>
<polygon id="arc_1_" display="none" fill="#F2F2F2" points="18,14.4592371 100,0 100,42.7619934 18,57.2212296 "/>
<polygon id="cam_1_" display="none" fill="#F2F2F2" points="0,50.9494781 75,37.7764931 75,86.8270111 0,100 "/>
<polygon id="rhc" display="none" fill="#F2F2F2" points="38,30.6147175 100,19.5263462 100,82.4116287 38,93.5 "/>
</svg>
