<svg xmlns="http://www.w3.org/2000/svg" xmlns:xlink="http://www.w3.org/1999/xlink" viewBox="0 0 100 140"><defs><pattern id="a" patternUnits="userSpaceOnUse" height="16" width="10"><path fill="#bb3838" d="M0 0l5 3v5L0 5zm5 8l5 3v5l-5-3z"/><path fill="#8d1010" d="M10 0L5 3v5l5-3M0 11l5-3v5l-5 3"/></pattern><symbol id="b" fill="none" stroke-width="2" viewBox="0 0 61 16"><path stroke-linejoin="round" stroke="#bb3838" d="M7-1L2 8l5 9m20 0l5-9-5-9"/><path stroke="#e7e4e4" d="M10 1h5v10a4 4 0 0 1-4 4H9m7.5-14h3a4 4 0 0 1 0 8h-3 2q3 0 4 3t2.5 3"/></symbol></defs><path fill="#c97272" d="M0 0h100v140H0z"/><path fill="url(#a)" stroke="#e7e4e4" stroke-width="2" d="M5 5h90v130H5z"/><circle stroke="#8d1010" stroke-width="2" fill="#c97272" cx="50" cy="70" r="30"/><use x="22" xlink:href="#b"/></svg>