<svg xmlns="http://www.w3.org/2000/svg" viewBox="0 512 1024 256"><path fill="#931F1F" d="M400 640h112v32H400l16-16"/><path fill="#701010" d="M504 673v7.7l8-7.8"/><path d="M419.7 662.9c1 .9 1.8 1.4 2.4 1.4.8 0 1.2-.6 1.2-1.8V647l-2.5-.3.3-2.5h7.6v2.5l-2 .2v15.2c0 2-.6 3.4-1.7 4.2-.7.6-1.6.8-2.6.8-1.7 0-3.2-.6-4.3-1.7l1.6-2.5zm21.2 2.8c-1 1-2.3 1.5-3.7 1.5-2.4 0-4-1-4.9-3-.3-.7-.4-1.5-.4-2.5v-8.1h-1.8l-.3-1.9 4.1-.7 1 1.1v8.9c0 2.1.6 3.2 1.8 3.5.3.1.6.1.9.1s.6 0 .9-.1l.9-.3c.6-.4 1.1-.8 1.3-1.3v-9.3H439l-.3-1.9 4-.8 1 1.1v11.7c0 .7.2 1.1.6 1.1l.6-.1.5 1.5c-.6.6-1.3.9-2.1.9-1.3.1-2-.4-2.4-1.4zM453 651c.7 0 1.4.1 1.9.3.6.2 1.1.5 1.6.8.8.6 1.5 1.3 1.9 2.2l-3.4 1.3-.8-1.7c-.4-.2-.9-.3-1.4-.3s-1 .1-1.4.4c-.4.3-.6.7-.6 1.3s.3 1 .8 1.4c.5.4 1.3.7 2.3 1.1 1 .4 1.7.8 2.2 1.1s.9.7 1.2 1.1c.5.7.8 1.5.8 2.4s-.2 1.6-.5 2.2c-.3.6-.8 1-1.3 1.4-1 .7-2.3 1.1-3.8 1.1-1.2 0-2.4-.3-3.6-1-1.1-.7-1.8-1.5-2.1-2.4l3.4-1.3.8 1.9c.5.2 1 .3 1.4.3s.8 0 1-.1c.3-.1.5-.2.7-.3.5-.3.8-.8.8-1.5 0-.8-.5-1.4-1.5-1.9-1-.4-1.9-.8-2.6-1.2-.7-.4-1.3-.7-1.8-1.1-1-.8-1.5-1.9-1.5-3.3 0-1.3.5-2.4 1.6-3.2 1.3-.6 2.5-1 3.9-1zm16.2 12.7c0 .2.3.9.7 2.2-.3.3-.8.6-1.4.9-.6.3-1.4.4-2.3.4s-1.7-.3-2.4-.9c-.6-.6-1-1.5-1-2.8v-10h-2.7l-.5-2.1.2-.3h2.9v-5.5l2.6-.6.2.5v5.6h3.4c.1 0 .2.1.2.2v2.3h-3.6v9.5c0 .7.1 1.2.3 1.4.2.2.5.3.8.3.3 0 .6 0 .8-.1l.6-.3c.6-.3 1-.5 1.2-.7zm12.6-16.8l-2.1-.2v-2.5h7.2l.3 2.5-2.1.3v17.3l2.1.3v2.4H480l-.3-2.4 2.1-.4v-17.3zm12.7 5.3c1.1-.8 2.4-1.2 4-1.2 2.3 0 3.8.8 4.5 2.5.2.6.4 1.3.4 2.1v9.1l2 .6v1.8h-6.6l-.4-1.8 2-.5v-8.7c0-1-.2-1.7-.7-2-.5-.4-1-.5-1.7-.5s-1.3.1-2 .4c-.6.3-1.1.6-1.4.9v9.9l1.9.5v1.8H490l-.4-1.8 2.1-.5v-11.2l-1.8.1-.3-2c.3 0 .6-.1 1-.2s.7-.1 1.1-.2.7-.1 1.1-.2c.4-.1.6-.1.9-.1l.8 1.2z" fill="#FFF"/><path fill="#931F1F" d="M272 640h112v32H272l16-16"/><path fill="#701010" d="M376 673v7.7l8-7.8"/><path d="M292 663.1v-12.6l-1.5-.1v-1.8h5.1c2.2 0 3.9.5 5 1.5 1 .9 1.5 2.2 1.5 3.8 0 1.1-.3 2-.8 2.8-.6.8-1.3 1.4-2.3 1.8l2.3 4.8 1.4.3v1.7h-3.3l-2.7-6.1c-.4 0-.8.1-1.2.1h-1.1v4.1l1.9.3v1.7h-5.6l-.2-1.7 1.5-.6zm7.6-9.3c0-2.1-1.5-3.2-4.4-3.2h-.8v6.4h1c1.4 0 2.5-.3 3.3-1 .5-.6.9-1.3.9-2.2zm13.4 2.8c0 .5-.1 1-.3 1.5s-.5.9-1 1.3c-1.1.9-2.9 1.3-5.3 1.3.3 1.3.9 2.1 1.9 2.5.4.1.8.2 1.2.2.4 0 .8 0 1.1-.1.3-.1.6-.2.8-.3.4-.2.7-.4.9-.6l.5 1.7c-.2.2-.5.4-.9.5-1.6.7-3.2.7-4.7.2-1.4-.5-2.4-1.5-2.9-2.9-.3-.7-.4-1.6-.4-2.5 0-1 .1-1.8.4-2.6.3-.7.7-1.4 1.2-1.9 1-1 2.2-1.5 3.6-1.5 1.1 0 1.9.3 2.7.8.8.7 1.2 1.5 1.2 2.4zm-2.3.2c0-.4-.1-.8-.4-1.1-.2-.3-.6-.4-1-.4s-.8.1-1.2.2-.6.4-.9.6c-.6.7-.9 1.6-1 2.8 1.2 0 2-.1 2.6-.3.6-.2 1-.4 1.3-.7.4-.3.6-.6.6-1.1zm8.1-3.3c.5 0 1 .1 1.4.2.4.1.8.3 1.1.6.6.4 1.1 1 1.4 1.6l-2.4.9-.6-1.2c-.3-.2-.7-.2-1-.2-.4 0-.7.1-1 .3-.3.2-.5.5-.5.9s.2.8.6 1c.4.3 1 .5 1.7.8.7.3 1.2.6 1.6.8.4.3.7.5.9.8.4.5.6 1.1.6 1.8 0 .6-.1 1.2-.4 1.6-.2.4-.6.8-.9 1-.8.5-1.7.8-2.7.8-.9 0-1.8-.2-2.6-.7-.8-.5-1.3-1.1-1.5-1.8l2.5-.9.6 1.4c.4.2.7.2 1 .2s.6 0 .8-.1.4-.1.5-.2c.4-.2.6-.6.6-1.1 0-.6-.4-1-1.1-1.4-.7-.3-1.4-.6-1.9-.9-.5-.3-1-.5-1.3-.8-.7-.6-1.1-1.4-1.1-2.4s.4-1.8 1.2-2.4c.6-.4 1.4-.6 2.5-.6zm14.5 3.1c0 .5-.1 1-.3 1.5s-.5.9-1 1.3c-1.1.9-2.9 1.3-5.3 1.3.3 1.3.9 2.1 1.9 2.5.4.1.8.2 1.2.2.4 0 .8 0 1.1-.1.3-.1.6-.2.8-.3.4-.2.7-.4.9-.6l.5 1.7c-.2.2-.5.4-.9.5-1.6.7-3.2.7-4.7.2-1.4-.5-2.4-1.5-2.9-2.9-.3-.7-.4-1.6-.4-2.5 0-1 .1-1.8.4-2.6.3-.7.7-1.4 1.2-1.9 1-1 2.2-1.5 3.6-1.5 1.1 0 1.9.3 2.7.8.8.7 1.2 1.5 1.2 2.4zm-2.3.2c0-.4-.1-.8-.4-1.1-.2-.3-.6-.4-1-.4s-.8.1-1.2.2-.6.4-.9.6c-.6.7-.9 1.6-1 2.8 1.2 0 2-.1 2.6-.3.6-.2 1-.4 1.3-.7.5-.3.6-.6.6-1.1zm7.4-2.2c.6-.7 1.5-1.1 2.5-1.1.7 0 1.3.2 1.8.5.5.4.9.8 1.1 1.3l-2.4 1.2-.7-1.2c-.5 0-1 .2-1.5.7-.4.5-.7 1.1-.7 1.8v5.2c0 .1.1.1.4.2l2.7.6v1.3h-6.5l-.3-1.3 1.5-.3v-8.1H335l-.2-1.4c.9-.1 1.8-.3 2.8-.5l.8 1.1zm12.1 10.6h-1.9L345 655h-.9l-.2-1.4 2.9-.2 3 8.9 3-7.3h-1.3l-.2-1.4 2.9-.2.8.9-4.5 10.9zm14.4-8.6c0 .5-.1 1-.3 1.5s-.5.9-1 1.3c-1.1.9-2.9 1.3-5.3 1.3.3 1.3.9 2.1 1.9 2.5.4.1.8.2 1.2.2.4 0 .8 0 1.1-.1.3-.1.6-.2.8-.3.4-.2.7-.4.9-.6l.5 1.7c-.2.2-.5.4-.9.5-1.6.7-3.2.7-4.7.2-1.4-.5-2.4-1.5-2.9-2.9-.3-.7-.4-1.6-.4-2.5 0-1 .1-1.8.4-2.6.3-.7.7-1.4 1.2-1.9 1-1 2.2-1.5 3.6-1.5 1.1 0 1.9.3 2.7.8.8.7 1.2 1.5 1.2 2.4zm-2.3.2c0-.4-.1-.8-.4-1.1-.2-.3-.6-.4-1-.4s-.8.1-1.2.2-.6.4-.9.6c-.6.7-.9 1.6-1 2.8 1.2 0 2-.1 2.6-.3.6-.2 1-.4 1.3-.7.5-.3.6-.6.6-1.1zm11.3 7.6c-.8.5-1.5.8-2.4.8-.8 0-1.5-.1-2.1-.4-.6-.3-1.1-.7-1.5-1.2-.9-1.1-1.3-2.4-1.3-4.2 0-2.2.6-3.8 1.8-4.8.9-.8 2-1.2 3.4-1.2.7 0 1.3.1 1.9.4v-4.5l-1.4.1-.2-1.4 3-.5.7.8V663c0 .3.1.5.3.5.1 0 .3-.1.5-.2l.5 1.3c-.5.4-1.1.6-1.8.6s-1.1-.2-1.4-.8zm-.2-1.8v-6.8c-.1-.1-.4-.3-.7-.4-.3-.1-.7-.2-1-.2-.4 0-.7.1-1 .2-.3.1-.6.3-.9.7-.7.7-1 1.8-1 3.2 0 1.4.3 2.4.9 3.1.5.6 1.2.9 2 .9.6.1 1.2-.2 1.7-.7z" fill="#FFF"/><path fill="#931F1F" d="M144 640h112v32H144l16-16"/><path fill="#701010" d="M248 673v7.7l8-7.8"/><path d="M181.2 667.3l.2-5.9h2.5l.6 3.7c1 .4 2 .6 3 .6 2 0 3.4-.7 4.1-2 .3-.4.4-1 .4-1.7s-.2-1.4-.6-1.9c-.4-.6-1.1-1.1-2.1-1.6s-2-.9-2.9-1.3-1.8-.9-2.6-1.4c-.8-.5-1.4-1.2-1.9-2s-.8-1.8-.8-2.9.2-2.1.6-2.9c.4-.8 1-1.4 1.7-2 1.5-1.1 3.3-1.7 5.4-1.7 2.1 0 4 .3 5.9 1l.5 6h-2.4l-1.5-3.8c-.7-.2-1.6-.4-2.6-.4-1.1 0-2 .2-2.7.7-.7.5-1.1 1.2-1.1 2.2 0 1.2.6 2.1 1.8 2.9.5.4 1.1.7 1.7.9.6.3 1.4.6 2.2 1 .8.4 1.6.8 2.3 1.3s1.3 1 1.8 1.6c.8 1.1 1.3 2.3 1.3 3.6s-.2 2.5-.7 3.3-1.1 1.6-1.8 2.2c-1.4 1.1-3.4 1.6-5.7 1.6-2.8.3-4.9-.2-6.6-1.1zm17.1-7.4c0-1.4.2-2.6.6-3.6.4-1.1.9-1.9 1.6-2.7 1.4-1.4 3.1-2.2 5.2-2.2s3.9.8 5.3 2.3 2.1 3.6 2.1 6.2c0 2.7-.7 4.8-2.2 6.4-1.4 1.5-3.1 2.2-5.2 2.2-2.2 0-3.9-.8-5.3-2.4-1.4-1.4-2.1-3.5-2.1-6.2zm3.4.4c0 1.9.4 3.3 1.1 4.3.7 1 1.7 1.5 2.9 1.5s2.2-.5 3-1.4 1.2-2.4 1.2-4.3-.4-3.4-1.1-4.5c-.7-1.1-1.7-1.6-3-1.6s-2.4.6-3.1 1.7c-.7.9-1 2.4-1 4.3zm18.6 5.8l2.2.6v1.9h-7.1l-.4-1.9 2.2-.5v-20.6l-2 .1-.3-2.1 4.4-.7 1.1 1.2v22zm14.8 1.4c-1.1.8-2.3 1.2-3.5 1.2s-2.3-.2-3.1-.6c-.8-.4-1.6-1-2.2-1.7-1.3-1.5-1.9-3.6-1.9-6.1 0-3.2.9-5.5 2.6-7 1.3-1.2 3-1.8 4.9-1.8 1 0 1.9.2 2.8.6v-6.5l-2 .1-.3-2.1 4.4-.7 1.1 1.2v21.3c0 .5.2.7.5.7.2 0 .4-.1.7-.2l.8 1.9c-.7.6-1.6.9-2.6.9s-1.8-.4-2.2-1.2zm-.4-2.6V655c-.2-.2-.6-.4-1.1-.6-.5-.2-1-.3-1.5-.3s-1 .1-1.5.3c-.5.2-.9.5-1.4 1-1 1-1.5 2.6-1.5 4.7 0 2 .4 3.5 1.3 4.5.7.9 1.7 1.4 2.9 1.4s2.1-.4 2.8-1.1z" fill="#FFF"/><path fill="#931F1F" d="M16 640h112v32H16l16-16"/><path fill="#701010" d="M120 673v7.7l8-7.8"/><path d="M56.3 666.7l.2-5.9H59l.6 3.7c1 .4 2 .6 3 .6 2 0 3.4-.7 4.1-2 .3-.4.4-1 .4-1.7s-.2-1.4-.6-1.9c-.4-.6-1.1-1.1-2.1-1.6s-2-.9-2.9-1.3-1.8-.9-2.6-1.4c-.8-.5-1.4-1.2-1.9-2s-.8-1.8-.8-2.9.2-2.1.6-2.9c.4-.8 1-1.4 1.7-2 1.5-1.1 3.3-1.7 5.4-1.7 2.1 0 4 .3 5.9 1l.5 6h-2.4l-1.5-3.8c-.7-.2-1.6-.4-2.6-.4-1.1 0-2 .2-2.7.7-.7.5-1.1 1.2-1.1 2.2 0 1.2.6 2.1 1.8 2.9.5.4 1.1.7 1.7.9.6.3 1.4.6 2.2 1 .8.4 1.6.8 2.3 1.3s1.3 1 1.8 1.6c.8 1.1 1.3 2.3 1.3 3.6s-.2 2.5-.7 3.3-1.1 1.6-1.8 2.2c-1.4 1.1-3.4 1.6-5.7 1.6-2.8.3-4.8-.2-6.6-1.1zm26.4-.2c-1 1.1-2.3 1.6-3.9 1.6s-2.9-.4-3.8-1.3c-1-.9-1.5-1.9-1.5-3.2 0-1.2.3-2.2.8-2.9.5-.7 1.2-1.3 2-1.7 1.4-.7 3.5-1.1 6.3-1.2v-2.5c0-.5-.2-.9-.6-1.3-.4-.4-1.1-.6-2-.6-.9 0-1.5.2-1.9.6l-.7 2.3-3.7-1.1c.5-1.9 1.9-3.2 4-3.9.7-.2 1.6-.3 2.5-.3 1.8 0 3.2.5 4.2 1.4 1 .9 1.5 2.1 1.5 3.6v9c0 .5.2.7.5.7.2 0 .4-.1.7-.2l.8 1.9c-.7.6-1.5.9-2.4.9-1.6-.2-2.5-.8-2.8-1.8zm-5-1.4c.3.2.5.3.8.3.3.1.6.1.9.1s.7-.1 1.1-.2c.4-.2.7-.3.9-.5.5-.4.8-.8 1-1.4v-3c-1.5 0-2.7.1-3.4.4s-1.3.6-1.7.9c-.4.4-.6.9-.6 1.4 0 .6.1 1 .3 1.3.2.3.5.5.7.7zm16.7.4l2.2.6v1.9h-7.1l-.4-1.9 2.2-.5V645l-2 .1-.3-2.1 4.4-.7 1.1 1.2v22zm17.1-10c0 .7-.1 1.4-.4 2.1s-.7 1.3-1.4 1.9c-1.6 1.3-4.2 1.9-7.8 2 .4 1.8 1.3 3.1 2.8 3.6.5.2 1.1.3 1.8.3s1.2-.1 1.6-.2c.4-.1.8-.2 1.2-.4.6-.3 1.1-.6 1.3-.8l.8 2.4c-.3.3-.7.5-1.3.8-2.3 1-4.6 1-6.9.2-2-.7-3.4-2.1-4.2-4.2-.4-1-.6-2.3-.6-3.7 0-1.4.2-2.7.6-3.7s1-2 1.7-2.7c1.4-1.5 3.1-2.2 5.3-2.2 1.5 0 2.8.4 3.9 1.2 1.1.9 1.6 2 1.6 3.4zm-3.3.3c0-.7-.2-1.2-.5-1.6-.4-.4-.9-.6-1.5-.6-.7 0-1.2.1-1.7.3s-.9.5-1.2.9c-.8 1-1.3 2.3-1.4 4.1 1.7 0 3-.1 3.8-.4.8-.3 1.5-.6 1.9-1 .4-.5.6-1 .6-1.7z" fill="#FFF"/><circle fill="#3FA9F5" stroke="#FFF" stroke-width=".25" stroke-miterlimit="10" cx="832" cy="569.9" r="45"/><path fill="#A0D7F9" stroke="#FFF" stroke-width=".12" stroke-miterlimit="10" d="M819 604.8l3.4-10.4-9.6 2.1-.8-3.7 11.7-2.6 5.6-17.6-18.2 4-3.7 11.4-3.7-1.2 3-9.3-10.8 2.4-.8-3.8 10.8-2.4-6.7-7.2 2.9-2.6 8.2 8.8 18-4-12.6-13.6-11.8 2.6-.8-3.8 9.6-2.1-7.5-8.2 2.8-2.6 7.7 8.2 2.9-9.4 3.7 1.1-3.6 11.4 12.6 13.6 5.6-17.6-8.2-8.8 2.8-2.6 6.6 7.2 3.2-10.6 3.8 1.1-3.4 10.6 9.6-2.2 1 3.7-11.8 2.6L835 567l18.2-4 3.6-11.4 3.7 1.1-3 9.4 10.8-2.4 1 3.6-10.9 2.4 6.7 7.2-2.8 2.6-8.2-8.8-18.1 4 12.6 13.6 11.8-2.6.8 3.7-9.6 2.2 7.6 8-2.8 2.6-7.6-8.2-2.9 9.4-3.8-1.1 3.6-11.5-12.7-13.5-5.4 17.6 8 8.8-2.7 2.7-6.6-7.2-3.2 10.4-3.8-1-.3.2z"/><path d="M806.1 631.8l-.2-1.5 1.3-.3v-11l-1.3-.1v-1.6h8.9l.4 3.9h-1.3l-.8-2.1h-3.9v4.4h3.3v1.8h-3.3v4.6l3.4.5-.1 1.4h-6.4zm13.1-9.2c.6-.6 1.3-1 2.2-1 .6 0 1.1.2 1.6.5.4.3.7.7 1 1.1l-2.1 1-.7-1c-.5 0-.9.2-1.3.6-.4.4-.6.9-.6 1.6v4.5c0 .1.1.1.4.1l2.4.5v1.1h-5.7l-.3-1.1 1.3-.3v-7.1h-1.2l-.2-1.2c.8-.1 1.6-.3 2.5-.4l.7 1.1zm8.6 7.8l1.2.3v1.1h-4.2l-.2-1.1 1.3-.3v-7.1l-1.2.1-.2-1.3 2.6-.5.7.7v8.1zm-2.6-12.5c0-.4.1-.7.4-.9s.6-.4.9-.4c.4 0 .7.1.9.4s.4.6.4.9-.1.7-.4.9c-.3.3-.6.4-.9.4-.4 0-.7-.1-.9-.4-.2-.3-.4-.6-.4-.9zm11.4 13.3c-.7.5-1.4.7-2.1.7-.7 0-1.4-.1-1.9-.4-.5-.2-.9-.6-1.3-1-.8-.9-1.2-2.1-1.2-3.7 0-1.9.5-3.3 1.6-4.2.8-.7 1.8-1 2.9-1 .6 0 1.1.1 1.7.3V618l-1.2.1-.2-1.3 2.6-.4.7.7V630c0 .3.1.4.3.4.1 0 .2 0 .4-.1l.5 1.1c-.4.4-1 .5-1.6.5-.5 0-.9-.2-1.2-.7zm-.2-1.5v-5.9c-.1-.1-.3-.2-.6-.4-.3-.1-.6-.2-.9-.2s-.6.1-.9.2c-.3.1-.6.3-.8.6-.6.6-.9 1.6-.9 2.8 0 1.2.3 2.1.8 2.7.4.5 1 .8 1.7.8s1.2-.2 1.6-.6zm5.9-1.1c-1.1-.7-1.6-1.7-1.6-3.1 0-1.1.4-2 1.2-2.8.7-.7 1.6-1.1 2.7-1.1s2 .3 2.7.9l2.1-1 .4.1.2 1.7-1.9.2c.3.6.5 1.2.5 1.9s-.1 1.2-.3 1.7c-.2.5-.5.8-.9 1.2-.7.6-1.7.9-2.7.9-.4 0-.7 0-.9-.1l-.5.8.1.4c.1 0 .4.1.9.1.5.1 1 .2 1.6.3.6.1 1.1.3 1.5.5.4.2.8.5 1 .7.4.5.6 1 .6 1.7s-.1 1.3-.4 1.8-.6.9-1 1.2c-.8.6-1.8.9-3 .9-1.3 0-2.3-.3-3.1-.8-.9-.6-1.3-1.4-1.3-2.3 0-1.3.6-2.3 1.7-2.8-.3-.3-.5-.7-.5-1.3s.4-1.2.9-1.7zm5.1 5.5c0-.4-.2-.7-.6-.9-.4-.2-.9-.3-1.6-.5-.7-.1-1.2-.3-1.6-.4-1 .4-1.5 1-1.5 1.8 0 .5.3.8.8 1.2.5.3 1.1.4 1.8.4s1.4-.2 1.9-.5c.6-.2.8-.6.8-1.1zm-2.8-10.9c-.6 0-1 .2-1.4.7-.3.4-.5.9-.5 1.4s.1.9.2 1.2c.1.3.3.5.4.7.3.4.8.5 1.4.5.6 0 1-.2 1.4-.6s.6-.9.6-1.6-.2-1.3-.6-1.6c-.4-.5-.9-.7-1.5-.7zm14.1 1.2c0 .4-.1.9-.2 1.3s-.4.8-.9 1.1c-1 .8-2.5 1.1-4.7 1.2.2 1.1.8 1.8 1.7 2.2.3.1.7.2 1 .2s.7 0 1-.1c.3-.1.5-.1.7-.2.4-.2.6-.4.8-.5l.5 1.5c-.2.2-.4.3-.8.5-1.4.6-2.8.6-4.1.1-1.2-.4-2.1-1.3-2.5-2.5-.2-.6-.4-1.4-.4-2.2s.1-1.6.4-2.2c.3-.7.6-1.2 1-1.6.8-.9 1.9-1.3 3.2-1.3.9 0 1.7.2 2.3.7.7.3 1 1 1 1.8zm-2 .2c0-.4-.1-.7-.3-1s-.5-.4-.9-.4-.7.1-1 .2c-.3.1-.5.3-.7.6-.5.6-.8 1.4-.9 2.4 1 0 1.8-.1 2.3-.2.5-.2.9-.4 1.2-.6.2-.3.3-.6.3-1z"/><radialGradient id="a" cx="-768.31" cy="321.21" r="5.06" gradientTransform="matrix(8 0 0 8 6844.5 -1990.5)" gradientUnits="userSpaceOnUse"><stop offset="0" stop-color="#43CDEE"/><stop offset="1" stop-color="#43CDEE" stop-opacity=".2"/></radialGradient><path fill="url(#a)" stroke="#0DA0C2" stroke-width=".31" stroke-miterlimit="10" d="M747 541.6c.3-2.2-1.3-4.2-3.4-4.4l-36-3.5h-8c-2.2 0-5.6.3-7.8.8l-21 4.8c-2.2.5-5 1.4-6.4 2.4-1.2.8-2.1 3.4-1.8 5.6l5.3 50.2c.2 2.2 2 4.5 4 5.2l47.2 14.4c2.2.5 4.8-.6 6-2.4l14.4-21.4c1.3-1.8 2.4-5 2.7-7.2l5.1-44.3-.3-.2z"/><path fill="#0DA0C2" d="M672.8 597.6c-.4 0 .2-.8 1.6-1.8l19.4-14.6c1.4-1 2.4-3.2 2.4-4.8l.5-34.8c0-1.8.3-3.2.8-3.2.2 0 .6 1.3.6 3l.6 34.4c0 1.8 1.4 3.4 3 3.8l29.3 6.8c1.6.3 2.6.8 2.4 1-.4.2-1.9.2-3.6-.2l-28.6-5.6c-1.6-.3-4 .2-5.4 1.1L676.2 596c-1.3 1-2.8 1.6-3.4 1.6z"/><path opacity=".5" fill="#F2F2F2" d="M721.8 613.8c-.2.8-.5.5-.5-.6l1.2-58.6c0-1.2-.8-2.2-2-2.4l-52-7.4c-1.3-.2-1.4-.5-.6-.6s2.4-.2 3.5 0l51.8 5.6c1 .2 2.7-.2 3.7-.8l15.4-8.6c.8-.5 1.6-.6 1.6-.3s-.6 1-1.6 1.6l-15 10.1c-.8.6-1.6 2-1.8 3.2l-3.4 55.6c0 1-.2 2.6-.5 3.4l.2-.2z"/><path d="M672.1 631.8l-.2-1.5 1.3-.3v-11l-1.3-.1v-1.6h8.9l.4 3.9h-1.3l-.8-2.1h-3.9v4.4h3.3v1.8h-3.3v4.6l3.4.5-.1 1.4h-6.4zm13.1-9.2c.6-.6 1.3-1 2.2-1 .6 0 1.1.2 1.6.5.4.3.7.7 1 1.1l-2.1 1-.7-1c-.5 0-.9.2-1.3.6-.4.4-.6.9-.6 1.6v4.5c0 .1.1.1.4.1l2.4.5v1.1h-5.7l-.3-1.1 1.3-.3v-7.1h-1.2l-.2-1.2c.8-.1 1.6-.3 2.5-.4l.7 1.1zm13.2 1.8c0 .4-.1.9-.2 1.3s-.4.8-.9 1.1c-1 .8-2.5 1.1-4.7 1.2.2 1.1.8 1.8 1.7 2.2.3.1.7.2 1 .2s.7 0 1-.1c.3-.1.5-.1.7-.2.4-.2.6-.4.8-.5l.5 1.5c-.2.2-.4.3-.8.5-1.4.6-2.8.6-4.1.1-1.2-.4-2.1-1.3-2.5-2.5-.2-.6-.4-1.4-.4-2.2s.1-1.6.4-2.2c.3-.7.6-1.2 1-1.6.8-.9 1.9-1.3 3.2-1.3.9 0 1.7.2 2.3.7.7.3 1 1 1 1.8zm-2 .2c0-.4-.1-.7-.3-1s-.5-.4-.9-.4-.7.1-1 .2c-.3.1-.5.3-.7.6-.5.6-.8 1.4-.9 2.4 1 0 1.8-.1 2.3-.2.5-.2.9-.4 1.2-.6.2-.3.3-.6.3-1zm11.3-.2c0 .4-.1.9-.2 1.3s-.4.8-.9 1.1c-1 .8-2.5 1.1-4.7 1.2.2 1.1.8 1.8 1.7 2.2.3.1.7.2 1 .2s.7 0 1-.1c.3-.1.5-.1.7-.2.4-.2.6-.4.8-.5l.5 1.5c-.2.2-.4.3-.8.5-1.4.6-2.8.6-4.1.1-1.2-.4-2.1-1.3-2.5-2.5-.2-.6-.4-1.4-.4-2.2s.1-1.6.4-2.2c.3-.7.6-1.2 1-1.6.8-.9 1.9-1.3 3.2-1.3.9 0 1.7.2 2.3.7.7.3 1 1 1 1.8zm-2 .2c0-.4-.1-.7-.3-1s-.5-.4-.9-.4-.7.1-1 .2c-.3.1-.5.3-.7.6-.5.6-.8 1.4-.9 2.4 1 0 1.8-.1 2.3-.2.5-.2.9-.4 1.2-.6.2-.3.3-.6.3-1zm8.5-1.4h-3.3l-.3 1.6h-1.2v-3.2h7.1v1.6l-4.8 7h3.3l.3-1.7h1.2v3.3h-7.1v-1.6l4.8-7zm11.7 1.2c0 .4-.1.9-.2 1.3s-.4.8-.9 1.1c-1 .8-2.5 1.1-4.7 1.2.2 1.1.8 1.8 1.7 2.2.3.1.7.2 1 .2s.7 0 1-.1c.3-.1.5-.1.7-.2.4-.2.6-.4.8-.5l.5 1.5c-.2.2-.4.3-.8.5-1.4.6-2.8.6-4.1.1-1.2-.4-2.1-1.3-2.5-2.5-.2-.6-.4-1.4-.4-2.2s.1-1.6.4-2.2c.3-.7.6-1.2 1-1.6.8-.9 1.9-1.3 3.2-1.3.9 0 1.7.2 2.3.7.7.3 1 1 1 1.8zm-2 .2c0-.4-.1-.7-.3-1s-.5-.4-.9-.4-.7.1-1 .2c-.3.1-.5.3-.7.6-.5.6-.8 1.4-.9 2.4 1 0 1.8-.1 2.3-.2.5-.2.9-.4 1.2-.6.2-.3.3-.6.3-1zm6.5-2c.6-.6 1.3-1 2.2-1 .6 0 1.1.2 1.6.5.4.3.7.7 1 1.1l-2.1 1-.7-1c-.5 0-.9.2-1.3.6-.4.4-.6.9-.6 1.6v4.5c0 .1.1.1.4.1l2.4.5v1.1h-5.7l-.3-1.1 1.3-.3v-7.1h-1.2l-.2-1.2c.8-.1 1.6-.3 2.5-.4l.7 1.1zm-204.9-36.3c-1.4 0-2.9-.8-3.6-2.2s-.8-3 0-4.3l32.6-52.6c.8-1.3 2.2-2 3.6-2s2.9.8 3.6 2l32.5 52.6c.8 1.2.8 2.9 0 4.2-.6 1.4-2.1 2.2-3.6 2.2h-65l-.1.1z"/><path fill="#FFE200" stroke="#FFF" stroke-width=".13" stroke-miterlimit="10" d="M558.2 529.4l32.5 52.6h-65l32.5-52.6z"/><path stroke="#FFF" stroke-width=".06" stroke-miterlimit="10" d="M564.8 551.6l-4.2 18.7 4 .3c-2.7 3.2-5.6 6.2-8.3 9.4l-3.7-11.4 3.8.8 1.6-9.2c-4 2.4-12.2 6.6-12.2 6.6l8.4-29.3c2.4 1.6 4.8 2.6 7.8 2.4l-7.6 16.8 10.4-5.1z"/><linearGradient id="b" gradientUnits="userSpaceOnUse" x1="-829.93" y1="587.3" x2="-829.93" y2="596.22" gradientTransform="matrix(8 0 0 -8 7244.5 5313.5)"><stop offset="0" stop-color="#1088D2"/><stop offset="1" stop-color="#2B3797"/></linearGradient><path fill="url(#b)" d="M607 543.8c-2.1 0-6.4 6.2-6.4 13.1l.8 14.4s-1.6 4-4.3 4.2c-2.9 0-2.8-3.4-2.8-3.4l1-4s-15.7 12.6-15 23.8c.6 13.2 16.5 23.4 25.6 23.2 13.4-.2 24-14.4 24-25.4.7-18-24.1-26.8-22.9-45.9z"/><linearGradient id="c" gradientUnits="userSpaceOnUse" x1="-829.93" y1="587.29" x2="-829.93" y2="592.95" gradientTransform="matrix(8 0 0 -8 7244.5 5313.5)"><stop offset="0" stop-color="#1088D2"/><stop offset="1" stop-color="#9CF6FE"/></linearGradient><path fill="url(#c)" d="M606.6 615.2c-7.8-.2-14.4-8.8-15.6-12.2l-.2-.6.6.2h1c1.4 0 2.4-.2 2.9-.8 1-1.2.5-3.2 0-5.4-.6-2.6-1.4-5.6 0-7.7 1.4-3 3-4.4 4.8-5.8 2.2-2.1 5-4.5 8-12.4l.2-.6.4.6c6.2 9.1 3.2 12.8.3 16.2-1.9 2.4-3.7 4.6-1.8 8.6 1.4 1 2.7 1.6 3.8 1.6.8 0 1.6-.3 2.2-1 1.1-1.4 1.6-3.7 1.4-4.3l.2-.4v-.2h.3l.3.2c.6.8 4.2 8.3 3.8 12-.5 4.2-4.6 12.2-12.3 12.2h-.2l-.1-.2z"/><path fill="#FFF" d="M608.2 570.6c10.7 15.5-6.4 14.8-1.4 24.8 1.6 1.2 3 1.8 4 1.8 3.2 0 4.2-4.8 4-5.8.4 0 4.2 8 3.8 11.8-.4 4-4.6 11.6-12 11.6-7.5 0-14-8.2-15.4-12l1.2.2c8 0 0-9.3 3.2-14.1 3.5-7.3 7.8-4.7 12.6-18.3m0-1.6l-.4 1.4c-3 8-5.6 10.2-8 12.2-1.6 1.6-3.2 2.9-4.8 5.9-1.4 2.2-.6 5.3 0 8 .5 2 1 4 .2 4.8-.5.6-1.4.8-2.6.8h-2.2l.4 1c1.3 3.4 8 12.2 16 12.3 8 0 12.3-8.2 12.8-12.3.3-4-3.2-11.6-4-12.4l-.6-.2h-.3l-.2.2-.2.8c0 .4-.3 2.6-1.4 4-.6.6-1.2.8-2 .8-1 0-2.2-.5-3.4-1.6-1.8-3.6-.2-5.6 1.8-8 2.8-3.4 6.1-7.2-.3-16.6l-.8-1.1z"/><path d="M538.1 629.7v-11l-1.3-.1V617h4c2.3 0 4.1.6 5.4 1.8 1.4 1.2 2.1 3 2.1 5.3s-.7 4.1-2 5.4c-1.3 1.3-3.1 1.9-5.4 1.9H537l-.2-1.5 1.3-.2zm2.3 0c3.9 0 5.8-1.9 5.8-5.6 0-1.7-.5-3-1.5-4-1-.9-2.3-1.4-3.9-1.4h-.5v10.9l.1.1zm16.1.9c-.7.6-1.4.9-2.4.9-1.5 0-2.6-.6-3.1-1.9-.2-.4-.3-1-.3-1.6v-5.1h-1.2l-.2-1.2 2.6-.5.7.7v5.7c0 1.3.4 2.1 1.2 2.2.2.1.4.1.6.1.2 0 .4 0 .6-.1.2 0 .4-.1.6-.2.4-.2.7-.5.8-.8v-5.9h-1.1l-.2-1.2 2.6-.5.6.7v7.4c0 .5.1.7.4.7h.4l.3.9c-.4.4-.8.6-1.4.6-.8 0-1.3-.3-1.5-.9zm9.6 0c-.6.6-1.4 1-2.4 1s-1.7-.3-2.3-.8c-.6-.5-.9-1.2-.9-1.9s.2-1.3.5-1.8c.3-.4.7-.8 1.2-1 .9-.4 2.1-.7 3.8-.7v-1.5c0-.3-.1-.5-.4-.8-.3-.2-.7-.3-1.2-.3s-.9.1-1.2.3l-.4 1.4-2.2-.7c.3-1.2 1.1-1.9 2.4-2.4.4-.1 1-.2 1.5-.2 1.1 0 1.9.3 2.5.8.6.5.9 1.3.9 2.1v5.4c0 .3.1.4.3.4.1 0 .2 0 .4-.1l.5 1.1c-.4.4-.9.5-1.4.5-.9.1-1.4-.2-1.6-.8zm-3-.9c.2.1.3.2.5.2s.4.1.6.1.4 0 .6-.1l.6-.3c.3-.2.5-.5.6-.8V627c-.9 0-1.6.1-2 .2-.4.1-.8.3-1 .6-.2.2-.4.5-.4.9s.1.6.2.8c.1 0 .2.1.3.2zm10.1.3l1.3.3v1.1h-4.3l-.3-1.1 1.3-.3v-12.3l-1.2.1-.2-1.3 2.6-.4.7.7V630zm8 1.4l-.2-1.5 1.3-.3v-11.1l-1.3-.1v-1.6h8.9l.4 3.9H589l-.8-2.1h-3.9v4.4h3.3v1.8h-3.3v4.6l3.4.5-.1 1.4h-6.4zm16.9-.8c-.7.6-1.4.9-2.4.9-1.5 0-2.6-.6-3.1-1.9-.2-.4-.3-1-.3-1.6v-5.1h-1.2l-.2-1.2 2.6-.5.7.7v5.7c0 1.3.4 2.1 1.2 2.2.2.1.4.1.6.1.2 0 .4 0 .6-.1.2 0 .4-.1.6-.2.4-.2.7-.5.8-.8v-5.9h-1.1l-.2-1.2 2.6-.5.6.7v7.4c0 .5.1.7.4.7h.4l.3.9c-.4.4-.8.6-1.4.6-.8 0-1.3-.3-1.5-.9zm11.8-6.6c0 .4-.1.9-.2 1.3s-.4.8-.9 1.1c-1 .8-2.5 1.1-4.7 1.2.2 1.1.8 1.8 1.7 2.2.3.1.7.2 1 .2s.7 0 1-.1c.3-.1.5-.1.7-.2.4-.2.6-.4.8-.5l.5 1.5c-.2.2-.4.3-.8.5-1.4.6-2.8.6-4.1.1-1.2-.4-2.1-1.3-2.5-2.5-.2-.6-.4-1.4-.4-2.2s.1-1.6.4-2.2c.3-.7.6-1.2 1-1.6.8-.9 1.9-1.3 3.2-1.3.9 0 1.7.2 2.3.7.7.3 1 1 1 1.8zm-2 .2c0-.4-.1-.7-.3-1s-.5-.4-.9-.4-.7.1-1 .2c-.3.1-.5.3-.7.6-.5.6-.8 1.4-.9 2.4 1 0 1.8-.1 2.3-.2.5-.2.9-.4 1.2-.6.2-.3.3-.6.3-1zm6.4 5.8l1.3.3v1.1h-4.3l-.3-1.1 1.3-.3v-12.3l-1.2.1-.2-1.3 2.6-.4.7.7V630z"/><path fill="#CB2628" d="M424.5 562.1v18.1l.8.6c3.8 3.8 12.6 6.2 22.7 6.2 3.4 0 6.4-.3 9.6-.8v-18.7c-3.6.5-6.7.6-9.6.6-8 .1-18-1.5-23.5-6zm39.5 31.2c0 1.6-.5 4-1.6 4.8-1.3 1.3-6.7 3.6-6.7 1.8s1.8-3.5 1.8-4.8v-.4c-3.6.5-6.7.8-9.6.8-8 0-18-1.6-23.5-6.2v4c0 12 47 12 47 0v-4c-2 1.6-4.6 2.8-7.5 3.8l.1.2zm-38.8-40c3.8 4 12.6 6.4 22.7 6.4 3.2 0 6.4-.4 9.4-.8v-6.4c0-3-1.8-8.6-1.8-12 0-1.1.6-2.1 1.6-1.8 3.4 1.2 6.6 10.1 6.6 13.8v4.5c3-1 5.1-2.2 6.6-3.7l.8-.6v-5.6c0-8.5-12-12-12-12-5.3 5.1-17.6 5.1-22.6 0 0 0-12.3 3.5-12.3 12v5.6l.6.5.4.1zm.4 44s-1.4 5.2-.8 7c3.2 11.8 43.2 11.8 46.4 0 .6-1.8-.8-7-.8-7-9.6 8.6-35.4 8.6-44.8 0zm38.4-31.6v19.2c3-1 7.5-4.3 7.5-4.3V562c-2 1.5-4.5 2.8-7.5 3.7zm-6.4-30.4v-15.5c-5.1 3.5-14.6 3.5-19.2 0v15.5c4.6 3.5 14.1 3.5 19.2 0z"/><path fill="#87080F" d="M424.5 554v6.9c9 8.8 37.6 8.8 47 0v-6.8c-9.6 8.5-38 8.5-47-.1zm0 27.4v6.9c9 8.6 37.6 8.6 47 0v-6.9c-9.6 8.5-38 8.5-47 0zm.2 12.4s-.4 1.9.8 3.5c7.8 10.4 37 10.4 44.8 0 1.1-1.6.8-3.5.8-3.5-6.8 10.4-39.6 10.4-46.4 0z"/><path fill="#470004" d="M455.8 604.4c-3.5 1.8-12 1.8-15.5 0-.4-.2-.5-2.4 0-2.4 3.5.6 12 .6 15.5 0 .4 0 .4 2.2 0 2.4z"/><path d="M431.5 617.3h4.5l.2 1.6-1.4.2V630h4.1l.7-2.1h1.3l-.4 3.9h-8.9l-.2-1.5 1.3-.2V619l-1.3-.1v-1.6zm14.1 12.7c.3.1 1.4.2 3 .4l-.1 1.4h-6.2l-.2-1.5 1.3-.3v-11l-1.3-.1v-1.6h4.4c1.9 0 3.4.4 4.4 1.3.9.8 1.3 1.9 1.3 3.3 0 1.6-.6 2.9-1.7 3.7-1 .7-2.4 1.1-4.1 1.1h-1v3.3zm4.6-8c0-1.9-1.3-2.8-3.8-2.8h-.7v5.8h.9c1.3 0 2.2-.3 2.9-.9.4-.6.7-1.3.7-2.1zm12.3 8v-3.1l-2.4-.3.4-1.5h4.1v6.4c-1 .3-2.1.4-3.3.4s-2.2-.2-3.2-.5c-.9-.3-1.7-.8-2.4-1.4-1.5-1.3-2.2-3.1-2.2-5.3 0-2.2.7-4 2-5.4 1.4-1.4 3.1-2 5.3-2 1 0 2.1.1 3.3.4l.3 3.8h-1.5l-.8-2.3c-.4-.1-.9-.1-1.6-.1-.6 0-1.2.1-1.8.4-.6.3-1.1.7-1.6 1.2-1 1.1-1.4 2.4-1.4 4s.5 2.9 1.5 3.9 2.4 1.5 4.1 1.5c.5 0 .9 0 1.2-.1z"/><path fill="#87080F" d="M438.4 519.7c2.1-1.6 4.6-1.6 4.6-1.6v15h9.4v-15s3 0 5 1.6V533h-19.2l.2-13.3z"/><linearGradient id="d" gradientUnits="userSpaceOnUse" x1="-865.76" y1="587.97" x2="-865.76" y2="599.47" gradientTransform="matrix(8 0 0 -8 7244.5 5313.5)"><stop offset="0" stop-color="#1088D2"/><stop offset="1" stop-color="#2B3797"/></linearGradient><path fill="url(#d)" d="M320.8 517.6c-2.7.2-8.2 8-8.2 17.1s1 18.4 1 18.4-1.9 5.2-5.6 5.4c-3.8.2-3.6-4.3-3.6-4.3l1.4-5.1s-20.2 16.2-19.4 30.8c.6 17 21.1 30.2 33 29.9 17.2-.2 30.9-18.6 30.9-32.8.8-23.2-31.2-34.6-29.6-59.2l.1-.2z"/><linearGradient id="e" gradientUnits="userSpaceOnUse" x1="-865.8" y1="587.96" x2="-865.8" y2="595.26" gradientTransform="matrix(8 0 0 -8 7244.5 5313.5)"><stop offset="0" stop-color="#1088D2"/><stop offset="1" stop-color="#9CF6FE"/></linearGradient><path fill="url(#e)" d="M320.2 609.8c-10-.2-18.4-11.2-20-15.7l-.4-.8.8.2h1.4c1.8 0 3-.4 3.7-1.2 1.1-1.4.5-4-.2-6.8-.8-3.4-1.6-7.2.2-9.9 1.8-3.8 3.8-5.6 6-7.4 3-2.6 6.6-5.6 10.4-16l.2-.8.5.8c8 11.6 4 16.5.5 20.8-2.6 3-5 5.8-2.4 11 1.8 1.4 3.4 2.2 4.8 2.2 1.2 0 2.2-.5 2.9-1.4 1.6-1.8 2-4.8 1.9-5.6v-.6l.2-.2h.2l.4.3c1 1 5.6 10.7 5 15.6-.6 5.1-5.9 15.4-16 15.4l-.1.1z"/><path fill="#FFF" d="M322.4 552.4c13.8 20-8.4 19-2 31.8 2.2 1.8 3.8 2.4 5.3 2.4 4.3 0 5.4-6.2 5.2-7.5v-.2c.5 0 5.4 10.4 5 15.2-.6 5.3-5.9 15.2-15.4 15.2h-.2c-9.6-.2-17.9-10.6-19.7-15.4h1.4c10.4 0 0-12 4-18.1 4.6-9.4 10-6.2 16.4-23.6m-.3-1.9l-.6 1.6c-3.7 10.2-7.2 13.3-10.2 16-2.2 1.8-4.2 3.5-6.1 7.4-1.8 3-1 6.8-.2 10.2.6 2.8 1.3 5.3.3 6.4-.6.8-1.6 1.1-3.4 1.1h-1.4l-1.4-.2.4 1.4c1.6 4.4 10.4 15.8 20.6 16h.2c10.2 0 15.8-10.6 16.3-16 .6-5.1-4-15-5-16l-.8-.3h-.4l-.3.3-.2.8c0 .8-.3 3.6-1.8 5.3-.8.8-1.6 1.2-2.4 1.2-1.4 0-2.9-.6-4.6-1.9-2.4-4.8-.2-7.2 2.4-10.4 3.7-4.4 7.8-9.4-.4-21.4l-1-1.5z"/><path d="M273.6 628.3v1.7l1.2.2v1.5h-4.1l-.3-1.5 1.3-.3v-11l-1.3-.1v-1.6h4.4l5.3 12.5v-10.8l-1.3-.2v-1.6h4.1l.3 1.6-1.2.3v12.7h-3.1l-5.3-12.5v9.1zm16.5 2.5c-.6.6-1.4 1-2.4 1s-1.7-.3-2.3-.8c-.6-.5-.9-1.2-.9-1.9s.2-1.3.5-1.8c.3-.4.7-.8 1.2-1 .9-.4 2.1-.7 3.8-.7v-1.5c0-.3-.1-.5-.4-.8-.3-.2-.7-.3-1.2-.3s-.9.1-1.2.3l-.4 1.4-2.2-.7c.3-1.2 1.1-1.9 2.4-2.4.4-.1 1-.2 1.5-.2 1.1 0 1.9.3 2.5.8s.9 1.3.9 2.1v5.4c0 .3.1.4.3.4.1 0 .2 0 .4-.1l.5 1.1c-.4.4-.9.5-1.4.5-.9.2-1.4-.2-1.6-.8zm-3-.8c.2.1.3.2.5.2s.4.1.6.1.4 0 .6-.1l.6-.3c.3-.2.5-.5.6-.8v-1.8c-.9 0-1.6.1-2 .2-.4.1-.8.3-1 .6-.2.2-.4.5-.4.9s.1.6.2.8c0-.1.2.1.3.2zm12.3-.4c0 .1.2.6.4 1.4-.2.2-.5.4-.9.5-.4.2-.9.3-1.5.3s-1.1-.2-1.5-.5c-.4-.4-.6-1-.6-1.8V623h-1.7l-.3-1.4.1-.2h1.9V618l1.7-.4.1.3v3.6h2.2c.1 0 .1 0 .1.1v1.4h-2.3v6c0 .4.1.7.2.9.1.1.3.2.5.2s.4 0 .5-.1c.1 0 .3-.1.4-.2.4 0 .6-.1.7-.2zm8.1 1.2c-.7.6-1.4.9-2.4.9-1.5 0-2.6-.6-3.1-1.9-.2-.4-.3-1-.3-1.6v-5.1h-1.2l-.2-1.2 2.6-.5.7.7v5.7c0 1.3.4 2.1 1.2 2.2.2.1.4.1.6.1.2 0 .4 0 .6-.1.2 0 .4-.1.6-.2.4-.2.7-.5.8-.8v-5.9h-1.1l-.2-1.2 2.6-.5.6.7v7.4c0 .5.1.7.4.7h.4l.3.9c-.4.4-.8.6-1.4.6-.8.1-1.3-.3-1.5-.9zm7.1-8.3c.6-.6 1.3-1 2.2-1 .6 0 1.1.2 1.6.5.4.3.7.7 1 1.1l-2.1 1-.7-1c-.5 0-.9.2-1.3.6-.4.4-.6.9-.6 1.6v4.5c0 .1.1.1.4.1l2.4.5v1.1h-5.7l-.3-1.1 1.3-.3V623h-1.2l-.2-1.2c.8-.1 1.6-.3 2.5-.4l.7 1.1zm11 8.3c-.6.6-1.4 1-2.4 1s-1.7-.3-2.3-.8c-.6-.5-.9-1.2-.9-1.9s.2-1.3.5-1.8c.3-.4.7-.8 1.2-1 .9-.4 2.1-.7 3.8-.7v-1.5c0-.3-.1-.5-.4-.8-.3-.2-.7-.3-1.2-.3s-.9.1-1.2.3l-.4 1.4-2.2-.7c.3-1.2 1.1-1.9 2.4-2.4.4-.1 1-.2 1.5-.2 1.1 0 1.9.3 2.5.8s.9 1.3.9 2.1v5.4c0 .3.1.4.3.4.1 0 .2 0 .4-.1l.5 1.1c-.4.4-.9.5-1.4.5-.9.2-1.4-.2-1.6-.8zm-2.9-.8c.2.1.3.2.5.2s.4.1.6.1.4 0 .6-.1l.6-.3c.3-.2.5-.5.6-.8v-1.8c-.9 0-1.6.1-2 .2-.4.1-.8.3-1 .6-.2.2-.4.5-.4.9s.1.6.2.8c0-.1.1.1.3.2zm10 .2l1.3.3v1.1h-4.3l-.3-1.1 1.3-.3v-12.3l-1.2.1-.2-1.3 2.6-.4.7.7v13.2zm16.5-.3v-3.1l-2.4-.3.4-1.5h4.1v6.4c-1 .3-2.1.4-3.3.4s-2.2-.2-3.2-.5c-.9-.3-1.7-.8-2.4-1.4-1.5-1.3-2.2-3.1-2.2-5.3 0-2.2.7-4 2-5.4 1.4-1.4 3.1-2 5.3-2 1 0 2.1.1 3.3.4l.3 3.8h-1.5l-.8-2.3c-.4-.1-.9-.1-1.6-.1-.6 0-1.2.1-1.8.4-.6.3-1.1.7-1.6 1.2-1 1.1-1.4 2.4-1.4 4s.5 2.9 1.5 3.9 2.4 1.5 4.1 1.5c.5 0 .9-.1 1.2-.1zm9.5.9c-.6.6-1.4 1-2.4 1s-1.7-.3-2.3-.8c-.6-.5-.9-1.2-.9-1.9s.2-1.3.5-1.8c.3-.4.7-.8 1.2-1 .9-.4 2.1-.7 3.8-.7v-1.5c0-.3-.1-.5-.4-.8-.3-.2-.7-.3-1.2-.3s-.9.1-1.2.3l-.4 1.4-2.2-.7c.3-1.2 1.1-1.9 2.4-2.4.4-.1 1-.2 1.5-.2 1.1 0 1.9.3 2.5.8s.9 1.3.9 2.1v5.4c0 .3.1.4.3.4.1 0 .2 0 .4-.1l.5 1.1c-.4.4-.9.5-1.4.5-.9.2-1.4-.2-1.6-.8zm-3-.8c.2.1.3.2.5.2s.4.1.6.1.4 0 .6-.1l.6-.3c.3-.2.5-.5.6-.8v-1.8c-.9 0-1.6.1-2 .2-.4.1-.8.3-1 .6-.2.2-.4.5-.4.9s.1.6.2.8c0-.1.2.1.3.2zm10.7-8.5c.4 0 .9.1 1.2.2s.7.3 1 .5c.5.4.9.8 1.2 1.4l-2.1.8-.5-1.1c-.3-.1-.6-.2-.9-.2-.3 0-.6.1-.9.3-.3.2-.4.5-.4.8s.2.7.5.9c.4.2.8.5 1.4.7.6.3 1.1.5 1.4.7.3.2.6.5.8.7.3.5.5 1 .5 1.5 0 .6-.1 1-.3 1.4-.2.4-.5.7-.8.9-.7.4-1.5.7-2.4.7-.8 0-1.5-.2-2.3-.7-.7-.4-1.1-.9-1.3-1.6l2.2-.8.5 1.2c.3.1.6.2.9.2s.5 0 .7-.1.3-.1.5-.2c.3-.2.5-.5.5-.9 0-.5-.3-.9-1-1.2-.6-.3-1.2-.5-1.6-.7-.5-.2-.8-.5-1.1-.7-.6-.5-.9-1.2-.9-2.1 0-.9.3-1.5 1-2.1.5-.3 1.3-.5 2.2-.5zM146.2 609c-2.2 0-4.2-1.2-5.3-3.2-1-1.8-1-4.2.2-6l45.8-74.2c1.1-1.6 3-2.8 5.1-2.8s4 1.1 5.1 2.9l45.8 74.2c1.1 1.8 1.2 4.2.2 6.1s-3 3.1-5.3 3.1h-91.5v-.1z"/><path fill="#FFE200" stroke="#FFF" stroke-width=".13" stroke-miterlimit="10" d="M192 528.8l45.8 74.2h-91.6l45.8-74.2z"/><path stroke="#FFF" stroke-width=".13" stroke-miterlimit="10" d="M201.4 559.8l-5.8 26.4 5.6.6c-4 4.5-7.8 8.8-11.8 13.2-1.8-5.4-3.5-10.7-5.2-16.2l5.4 1.3 2.2-13.1-17.2 9.4 12-41.4c3.2 2.4 6.6 3.8 10.8 3.5l-10.7 23.8 14.7-7.5z"/><path d="M142.4 630.5l2.4-.4v-10.9h-2.6l-.9 2.1H140l.4-3.9h10.7l.5 3.9h-1.3l-.9-2.1h-2.6V630l2.4.4-.2 1.4h-6.5l-.1-1.3zm13.2-8.1c.7-.5 1.5-.8 2.5-.8 1.5 0 2.4.5 2.9 1.6.2.4.3.8.3 1.3v5.8l1.3.3v1.1h-4.2l-.3-1.1 1.3-.3v-5.5c0-.6-.1-1.1-.4-1.3-.3-.2-.6-.3-.9-.3s-.6 0-.8.1c-.2.1-.4.1-.6.2-.4.2-.7.3-.9.5v6.3l1.2.3v1.1h-4.2l-.3-1.1 1.3-.3V618l-1.2.1-.2-1.3 2.6-.4.7.7v5.3zm11 .2c.6-.6 1.3-1 2.2-1 .6 0 1.1.2 1.6.5.4.3.7.7 1 1.1l-2.1 1-.7-1c-.5 0-.9.2-1.3.6-.4.4-.6.9-.6 1.6v4.5c0 .1.1.1.4.1l2.4.5v1.1h-5.7l-.3-1.1 1.3-.3v-7.1h-1.2l-.2-1.2c.8-.1 1.6-.3 2.5-.4l.7 1.1zm13.2 1.8c0 .4-.1.9-.2 1.3s-.4.8-.9 1.1c-1 .8-2.5 1.1-4.7 1.2.2 1.1.8 1.8 1.7 2.2.3.1.7.2 1 .2s.7 0 1-.1c.3-.1.5-.1.7-.2.4-.2.6-.4.8-.5l.5 1.5c-.2.2-.4.3-.8.5-1.4.6-2.8.6-4.1.1-1.2-.4-2.1-1.3-2.5-2.5-.2-.6-.4-1.4-.4-2.2s.1-1.6.4-2.2c.3-.7.6-1.2 1-1.6.8-.9 1.9-1.3 3.1-1.3.9 0 1.7.2 2.3.7.8.3 1.1 1 1.1 1.8zm-2 .2c0-.4-.1-.7-.3-1s-.5-.4-.9-.4-.7.1-1 .2c-.3.1-.5.3-.7.6-.5.6-.8 1.4-.9 2.4 1 0 1.8-.1 2.3-.2s.9-.4 1.2-.6c.2-.3.3-.6.3-1zm11.4-.2c0 .4-.1.9-.2 1.3s-.4.8-.9 1.1c-1 .8-2.5 1.1-4.7 1.2.2 1.1.8 1.8 1.7 2.2.3.1.7.2 1 .2s.7 0 1-.1c.3-.1.5-.1.7-.2.4-.2.6-.4.8-.5l.5 1.5c-.2.2-.4.3-.8.5-1.4.6-2.8.6-4.1.1-1.2-.4-2.1-1.3-2.5-2.5-.2-.6-.4-1.4-.4-2.2s.1-1.6.4-2.2c.3-.7.6-1.2 1-1.6.8-.9 1.9-1.3 3.2-1.3.9 0 1.7.2 2.3.7.6.3 1 1 1 1.8zm-2 .2c0-.4-.1-.7-.3-1s-.5-.4-.9-.4-.7.1-1 .2c-.3.1-.5.3-.7.6-.5.6-.8 1.4-.9 2.4 1 0 1.8-.1 2.3-.2s.9-.4 1.2-.6c.1-.3.3-.6.3-1zm12.2 5.4c.3.1 1.4.2 3 .4l-.1 1.4h-6.2l-.2-1.5 1.3-.3v-11l-1.3-.1v-1.6h4.4c1.9 0 3.4.4 4.4 1.3.9.8 1.3 1.9 1.3 3.3 0 1.6-.6 2.9-1.7 3.7-1 .7-2.4 1.1-4.1 1.1h-1v3.3zm4.5-8c0-1.9-1.3-2.8-3.8-2.8h-.7v5.8h.9c1.3 0 2.2-.3 2.9-.9.4-.6.7-1.3.7-2.1zm6.2.4c.7-.5 1.5-.8 2.5-.8 1.5 0 2.4.5 2.9 1.6.2.4.3.8.3 1.3v5.8l1.3.3v1.1h-4.2l-.3-1.1 1.3-.3v-5.5c0-.6-.1-1.1-.4-1.3-.3-.2-.6-.3-.9-.3-.3 0-.6 0-.8.1s-.4.1-.6.2c-.4.2-.7.3-.9.5v6.3l1.2.3v1.1h-4.2l-.3-1.1 1.3-.3V618l-1.2.1-.2-1.3 2.6-.4.7.7v5.3zm13.6 8.6c-.6.6-1.4 1-2.4 1s-1.7-.3-2.3-.8c-.6-.5-.9-1.2-.9-1.9s.2-1.3.5-1.8c.3-.4.7-.8 1.2-1 .9-.4 2.1-.7 3.8-.7v-1.5c0-.3-.1-.5-.4-.8-.3-.2-.7-.3-1.2-.3s-.9.1-1.2.3l-.4 1.4-2.2-.7c.3-1.2 1.1-1.9 2.4-2.4.4-.1 1-.2 1.5-.2 1.1 0 1.9.3 2.5.8s.9 1.3.9 2.1v5.4c0 .3.1.4.3.4.1 0 .2 0 .4-.1l.5 1.1c-.4.4-.9.5-1.4.5-.9.1-1.4-.2-1.6-.8zm-3-.9c.2.1.3.2.5.2s.4.1.6.1.4 0 .6-.1l.6-.3c.3-.2.5-.5.6-.8v-1.8c-.9 0-1.6.1-2 .2-.4.1-.8.3-1 .6-.2.2-.4.5-.4.9s.1.6.2.8c0 0 .1.1.3.2zm10.7-8.5c.4 0 .9.1 1.2.2s.7.3 1 .5c.5.4.9.8 1.2 1.4l-2.1.8-.5-1.1c-.3-.1-.6-.2-.9-.2-.3 0-.6.1-.9.3-.3.2-.4.5-.4.8s.2.7.5.9c.4.2.8.5 1.4.7s1.1.5 1.4.7c.3.2.6.5.8.7.3.5.5 1 .5 1.5 0 .6-.1 1-.3 1.4-.2.4-.5.7-.8.9-.7.4-1.5.7-2.4.7-.8 0-1.5-.2-2.3-.7-.7-.4-1.1-.9-1.3-1.6l2.2-.8.5 1.2c.3.1.6.2.9.2.3 0 .5 0 .7-.1s.3-.1.5-.2c.3-.2.5-.5.5-.9 0-.5-.3-.9-1-1.2-.6-.3-1.2-.5-1.6-.7-.5-.2-.8-.5-1.1-.7-.6-.5-.9-1.2-.9-2.1 0-.9.3-1.5 1-2.1.5-.2 1.3-.5 2.2-.5zm12.7 2.8c0 .4-.1.9-.2 1.3s-.4.8-.9 1.1c-1 .8-2.5 1.1-4.7 1.2.2 1.1.8 1.8 1.7 2.2.3.1.7.2 1 .2s.7 0 1-.1c.3-.1.5-.1.7-.2.4-.2.6-.4.8-.5l.5 1.5c-.2.2-.4.3-.8.5-1.4.6-2.8.6-4.1.1-1.2-.4-2.1-1.3-2.5-2.5-.2-.6-.4-1.4-.4-2.2s.1-1.6.4-2.2c.3-.7.6-1.2 1-1.6.8-.9 1.9-1.3 3.2-1.3.9 0 1.7.2 2.3.7.7.3 1 1 1 1.8zm-2 .2c0-.4-.1-.7-.3-1s-.5-.4-.9-.4-.7.1-1 .2c-.3.1-.5.3-.7.6-.5.6-.8 1.4-.9 2.4 1 0 1.8-.1 2.3-.2s.9-.4 1.2-.6c.2-.3.3-.6.3-1z"/><g transform="translate(384 -128)"><path fill="#1A1A1A" d="M569.3 744l.3.7s3.8 1.2 6.3 1.2 6.1-1.5 6.1-1.5l.2-.8-12.9.4z"/><path fill="#4D4D4D" d="M568.7 726l.6 18.1s3.6 1 6.9 1 6.1-1.3 6.1-1.3l1.3-17.8h-14.9z"/><path fill="#999" d="M578.1 726l-1.1 19c.9-.1 1.9-.3 2.6-.4l2.3-18.6h-3.8z"/><linearGradient id="f" gradientUnits="userSpaceOnUse" x1="576.42" y1="726" x2="576.42" y2="650.55"><stop offset="0" stop-color="#CCC"/><stop offset="1" stop-color="#E6E6E6"/></linearGradient><path fill="url(#f)" d="M538.7 698.4c.1-9.2 7.1-27.1 10.3-35.7 1.7-4.7 6.2-8.1 9-9.3 8.4-3.7 27.8-3.5 36.3-.1 3.1 1.3 7.4 2.6 9.6 9.4 2.8 8.8 10.1 26.6 10.2 35.8.3 18.5-21.9 27.6-21.9 27.6h-33c0-.1-20.8-10.4-20.5-27.7z"/><path fill="#FFF" d="M591.8 725h-32l-.2-.3c-4.4-2.6-18.9-12.1-18.7-25.8.1-8.1 5.9-23.8 9-32.3.2-.6.4-1.3.7-1.8.2-.4.3-.9.4-1.3 1.5-4.1 5.5-7.1 7.9-8.1 3.6-1.6 10-2.6 17-2.6s13.8 1 17.6 2.5l.6.2c2.9 1.2 6 2.4 7.7 7.7.7 2 1.6 4.6 2.5 7.3 2.6 7.4 7.5 21.2 7.6 28.2.2 14.3-14.3 22.5-19.1 25.2-.3.2-.6.5-.8.7l-.2.4zm-31.5-2h31c.2 0 .4-.4.6-.5 4.5-2.6 18.4-10.4 18.2-23.6-.1-6.8-4.9-20.4-7.5-27.6-1-2.7-1.9-5.3-2.5-7.4-1.5-4.5-3.8-5.5-6.6-6.6l-.6-.3c-3.6-1.5-10.1-2.4-16.9-2.4-6.8 0-12.9.9-16.3 2.4-2 .9-5.6 3.6-6.8 7.1-.1.4-.3.8-.4 1.2-.2.6-.4 1.2-.7 1.8-3.1 8.3-8.8 24-8.9 31.8-.3 12.5 12.9 21.1 17.4 24.1z"/><path fill="#666" d="M572.8 657.8h8v14.5h-8zm-21.1 38.7h11.2v6.9h-11.2zm36.1 0H599v6.9h-11.2z"/><path fill="#946621" d="M574.1 656.5h8V671h-8zM553 695.2h11.2v6.9H553zm36.1 0h11.2v6.9h-11.2z"/><path d="M538.8 757v-11l-1.3-.1v-1.6h4c2.3 0 4.1.6 5.4 1.8 1.4 1.2 2.1 3 2.1 5.3s-.7 4.1-2 5.4c-1.3 1.3-3.1 1.9-5.4 1.9h-3.9l-.2-1.5 1.3-.2zm2.2 0c3.9 0 5.8-1.9 5.8-5.6 0-1.7-.5-3-1.5-4-1-.9-2.3-1.4-3.9-1.4h-.5v11h.1zm9.5-3.4c0-.8.1-1.5.4-2.2.2-.6.6-1.2 1-1.6.8-.9 1.8-1.3 3.1-1.3s2.4.5 3.2 1.4c.8.9 1.3 2.2 1.3 3.7 0 1.6-.4 2.9-1.3 3.8-.8.9-1.9 1.3-3.1 1.3-1.3 0-2.4-.5-3.2-1.4-1-.8-1.4-2.1-1.4-3.7zm2 .3c0 1.1.2 2 .7 2.6s1 .9 1.8.9c.7 0 1.3-.3 1.8-.9.5-.6.7-1.4.7-2.6s-.2-2.1-.7-2.7c-.4-.7-1-1-1.8-1s-1.4.3-1.8 1c-.5.6-.7 1.5-.7 2.7zm17-2.7v6.1l1.3.3v1.1h-4.2l-.3-1.1 1.3-.3v-5.5c0-.6-.1-1.1-.4-1.3-.3-.2-.7-.3-1.1-.3s-.9.1-1.3.3c-.4.2-.7.4-.9.5v6.3l1.2.3v1.1H561l-.3-1.1 1.3-.3v-7.1l-1.2.1-.2-1.3c.2 0 .4-.1.6-.1.2 0 .5-.1.7-.1.2 0 .5-.1.7-.1.2 0 .4-.1.5-.1l.6.8c.7-.5 1.6-.8 2.6-.8s1.9.3 2.4 1c.9-.7 1.9-1 3.1-1 1.5 0 2.4.5 2.9 1.6.2.4.3.8.3 1.3v5.8l1.2.3v1.1H572l-.2-1.1 1.3-.3v-5.5c0-.6-.2-1-.5-1.3-.3-.2-.7-.3-1.1-.3-.4 0-.9.1-1.3.3s-.7.3-.9.5v.2zm15.8.1c0 .4-.1.9-.2 1.3s-.4.8-.9 1.1c-1 .8-2.5 1.1-4.7 1.2.2 1.1.8 1.8 1.7 2.2.3.1.7.2 1 .2s.7 0 1-.1c.3-.1.5-.1.7-.2.4-.2.6-.4.8-.5l.5 1.5c-.2.2-.4.3-.8.5-1.4.6-2.8.6-4.1.1-1.2-.4-2.1-1.3-2.5-2.5-.2-.6-.4-1.4-.4-2.2s.1-1.6.4-2.2c.3-.7.6-1.2 1-1.6.8-.9 1.9-1.3 3.2-1.3.9 0 1.7.2 2.3.7.7.3 1 1 1 1.8zm-2 .2c0-.4-.1-.7-.3-1s-.5-.4-.9-.4-.7.1-1 .2c-.3.1-.5.3-.7.6-.5.6-.8 1.4-.9 2.4 1 0 1.8-.1 2.3-.2.5-.2.9-.4 1.2-.6.2-.3.3-.6.3-1zm7.1-2.9c.4 0 .9.1 1.2.2.4.1.7.3 1 .5.5.4.9.8 1.2 1.4l-2.1.8-.5-1.1c-.3-.1-.6-.2-.9-.2s-.6.1-.9.3c-.3.2-.4.5-.4.8s.2.7.5.9c.3.2.8.5 1.4.7s1.1.5 1.4.7c.3.2.6.5.8.7.4.5.5 1 .5 1.5 0 .6-.1 1-.3 1.4-.2.4-.5.7-.8.9-.7.4-1.5.7-2.4.7-.8 0-1.5-.2-2.3-.7-.7-.4-1.1-.9-1.3-1.6l2.2-.8.5 1.2c.3.1.6.2.9.2s.5 0 .7-.1.3-.1.5-.2c.3-.2.5-.5.5-.9 0-.5-.3-.9-1-1.2-.6-.3-1.2-.5-1.6-.7-.5-.2-.8-.5-1.1-.7-.6-.5-.9-1.2-.9-2.1 0-.9.3-1.5 1-2.1.5-.3 1.3-.5 2.2-.5zm10.3 8.1c0 .1.2.6.4 1.4-.2.2-.5.4-.9.5-.4.2-.9.3-1.5.3s-1.1-.2-1.5-.5c-.4-.4-.6-1-.6-1.8v-6.4h-1.7l-.3-1.4.1-.2h1.9v-3.5l1.7-.4.1.3v3.6h2.2c.1 0 .1 0 .1.1v1.4h-2.3v6c0 .4.1.7.2.9.1.1.3.2.5.2s.4 0 .5-.1c.1 0 .3-.1.4-.2.3 0 .5-.1.7-.2zm4.5.6l1.2.3v1.1h-4.2l-.2-1.1 1.3-.3v-7.1l-1.2.1-.1-1.3 2.6-.5.7.7v8.1zm-2.6-12.5c0-.4.1-.7.4-.9s.6-.4.9-.4c.4 0 .7.1.9.4s.4.6.4.9-.1.7-.4.9c-.3.3-.6.4-.9.4-.4 0-.7-.1-.9-.4-.2-.2-.4-.5-.4-.9zm12.6 13.1c-.8.6-1.9 1-3.1 1-1.3 0-2.3-.4-3.1-1.2-.9-.9-1.4-2.1-1.4-3.8 0-1.8.5-3.2 1.5-4.2.8-.8 1.8-1.1 3-1.1.9 0 1.7.2 2.4.7.5.4.9.8 1.1 1.2l-2.1 1-.7-1.2c-.3-.1-.5-.1-.7-.1-1.7 0-2.5 1.2-2.5 3.7 0 1 .3 1.9.8 2.5.5.6 1.2.9 2 .9.4 0 .8-.1 1.2-.2.4-.1.8-.4 1.1-.6l.5 1.4z"/></g><path d="M18.2 608.8c-2.2 0-4.2-1.1-5.3-3s-1-4.2.2-6.1l45.8-74.2c1.1-1.6 3-2.8 5.1-2.8s4 1.1 5.1 2.9l45.8 74.2c1.2 1.8 1.2 4.2.2 6.1s-3 3-5.3 3H18.2v-.1z"/><path fill="#FFE200" stroke="#FFF" stroke-width=".13" stroke-miterlimit="10" d="M64 528.8l45.8 74.2H18.2L64 528.8z"/><path stroke="#FFF" stroke-width=".13" stroke-miterlimit="10" d="M73.4 559.8l-5.8 26.4 5.6.6c-4 4.5-7.8 8.8-11.8 13.2-1.8-5.4-3.5-10.7-5.2-16.2l5.4 1.3 2.2-13.1-17.2 9.4 12-41.4c3.2 2.4 6.6 3.8 10.8 3.5l-10.7 23.8 14.7-7.5z"/><path d="M11.4 630.7l.1-3.5H13l.4 2.2c.6.2 1.2.3 1.8.3 1.2 0 2-.4 2.5-1.2.2-.3.2-.6.2-1s-.1-.8-.4-1.2c-.3-.3-.7-.7-1.3-1-.6-.3-1.2-.6-1.8-.8s-1.1-.5-1.6-.9c-.5-.3-.9-.7-1.2-1.2-.3-.5-.5-1.1-.5-1.7s.1-1.3.4-1.7c.2-.5.6-.9 1-1.2.9-.7 2-1 3.2-1 1.2 0 2.4.2 3.5.6l.3 3.6h-1.4l-.9-2.3c-.4-.1-.9-.2-1.6-.2-.6 0-1.2.1-1.6.4s-.7.7-.7 1.3c0 .7.4 1.3 1.1 1.7.3.2.7.4 1 .6s.8.4 1.3.6c.5.2 1 .5 1.4.8.4.3.8.6 1 1 .5.6.8 1.4.8 2.2 0 .8-.1 1.5-.4 2-.3.5-.6 1-1.1 1.3-.9.6-2 1-3.4 1-1.3.1-2.5-.1-3.6-.7zm13.4-.7l1.2.3v1.1h-4.2l-.2-1.1 1.4-.3v-7.1l-1.2.1-.2-1.3 2.6-.5.7.7v8.1zm-2.5-12.5c0-.4.1-.7.4-.9s.6-.4.9-.4c.4 0 .7.1.9.4s.4.6.4.9-.1.7-.4.9c-.3.3-.6.4-.9.4-.4 0-.7-.1-.9-.4-.3-.3-.4-.6-.4-.9zm8.1 4.5c.7-.5 1.5-.8 2.5-.8 1.5 0 2.4.5 2.9 1.6.2.4.2.8.2 1.3v5.8l1.3.4v1.1h-4.2l-.3-1.1 1.3-.3v-5.5c0-.6-.1-1.1-.4-1.3-.3-.2-.7-.3-1.1-.3s-.9.1-1.3.3c-.4.2-.7.4-.9.5v6.3l1.2.3v1.1h-4.2l-.3-1.1 1.3-.3v-7.1l-1.2.1-.2-1.3c.2 0 .4-.1.6-.1.2 0 .5-.1.7-.1.2 0 .5-.1.7-.1.2 0 .4-.1.5-.1l.9.7zm9.7 6.2c-1.1-.7-1.6-1.7-1.6-3.1 0-1.1.4-2 1.2-2.8.7-.7 1.6-1.1 2.7-1.1s2 .3 2.7.9l2.1-1 .4.1.2 1.7-1.9.2c.3.6.5 1.2.5 1.9s-.1 1.2-.3 1.7-.5.8-.9 1.2c-.7.6-1.7.9-2.7.9-.4 0-.7 0-.9-.1l-.5.8.1.4c.1 0 .4.1.9.1.5.1 1 .2 1.6.3.6.1 1.1.3 1.5.5s.8.5 1 .7c.4.5.6 1 .6 1.7s-.1 1.3-.4 1.8-.6.9-1 1.2c-.8.6-1.8.9-3 .9-1.3 0-2.3-.3-3.1-.8-.9-.6-1.3-1.4-1.3-2.3 0-1.3.6-2.3 1.7-2.8-.3-.3-.5-.7-.5-1.3s.3-1.2.9-1.7zm5.1 5.5c0-.4-.2-.7-.6-.9-.4-.2-.9-.3-1.6-.5-.7-.1-1.2-.3-1.6-.4-1 .4-1.5 1-1.5 1.8 0 .5.3.8.8 1.2.5.3 1.1.4 1.8.4s1.4-.2 1.9-.5c.5-.2.8-.6.8-1.1zm-2.8-10.9c-.6 0-1 .2-1.4.7-.3.4-.5.9-.5 1.4s.1.9.2 1.2c.1.3.3.5.4.7.4.4.8.5 1.4.5.6 0 1-.2 1.4-.6.4-.4.6-.9.6-1.6s-.2-1.3-.6-1.6c-.5-.5-.9-.7-1.5-.7zm9.2 7.2l1.3.3v1.1h-4.3l-.3-1.1 1.3-.3v-12.3l-1.2.1-.2-1.3 2.6-.4.7.7V630zm10.2-6c0 .4-.1.9-.2 1.3s-.4.8-.9 1.1c-1 .8-2.5 1.1-4.7 1.2.2 1.1.8 1.8 1.7 2.2.3.1.7.2 1 .2s.7 0 1-.1c.3-.1.5-.1.7-.2.4-.2.6-.4.8-.5l.5 1.5c-.2.2-.4.3-.8.5-1.4.6-2.8.6-4.1.1-1.2-.4-2.1-1.3-2.5-2.5-.2-.6-.4-1.4-.4-2.2s.1-1.6.4-2.2c.3-.7.6-1.2 1-1.6.8-.9 1.9-1.3 3.1-1.3.9 0 1.7.2 2.3.7.8.3 1.1 1 1.1 1.8zm-2 .2c0-.4-.1-.7-.3-1s-.5-.4-.9-.4-.7.1-1 .2-.5.3-.7.6c-.5.6-.8 1.4-.9 2.4 1 0 1.8-.1 2.3-.2s.9-.4 1.2-.6c.2-.3.3-.6.3-1zm12.2 5.4c.3.1 1.4.2 3 .4l-.1 1.4h-6.2l-.2-1.5 1.3-.3v-11l-1.3-.1v-1.6H73c1.9 0 3.4.4 4.4 1.3.9.8 1.3 1.9 1.3 3.3 0 1.6-.6 2.9-1.7 3.7-1 .7-2.4 1.1-4.1 1.1h-1v3.3zm4.6-8.1c0-1.9-1.3-2.8-3.8-2.8H72v5.8h.9c1.3 0 2.2-.3 2.9-.9.5-.5.8-1.2.8-2.1zm6.2.5c.7-.5 1.5-.8 2.5-.8 1.5 0 2.4.5 2.9 1.6.2.4.3.8.3 1.3v5.8l1.3.3v1.1h-4.2l-.3-1.1 1.3-.3v-5.5c0-.6-.1-1.1-.4-1.3-.3-.2-.6-.3-.9-.3-.3 0-.6 0-.8.1-.2.1-.4.1-.6.2-.4.2-.7.3-.9.5v6.3l1.2.3v1.1H80l-.3-1.1 1.3-.3v-12.3l-1.2.1-.2-1.3 2.6-.4.7.7v5.3zm13.5 8.6c-.6.6-1.4 1-2.4 1s-1.7-.3-2.3-.8c-.6-.5-.9-1.2-.9-1.9s.2-1.3.5-1.8c.3-.4.7-.8 1.2-1 .9-.4 2.1-.7 3.8-.7v-1.5c0-.3-.1-.5-.4-.8-.3-.2-.7-.3-1.2-.3s-.9.1-1.2.3l-.4 1.4-2.2-.7c.3-1.2 1.1-1.9 2.4-2.4.4-.1 1-.2 1.5-.2 1.1 0 1.9.3 2.5.8s.9 1.3.9 2.1v5.4c0 .3.1.4.3.4.1 0 .2 0 .4-.1l.5 1.1c-.4.4-.9.5-1.4.5-.8.1-1.3-.2-1.6-.8zm-2.9-.9c.2.1.3.2.5.2s.4.1.6.1.4 0 .6-.1l.6-.3c.3-.2.5-.5.6-.8V627c-.9 0-1.6.1-2 .2-.4.1-.8.3-1 .6-.2.2-.4.5-.4.9s.1.6.2.8c0 0 .1.1.3.2zm10.7-8.5c.4 0 .9.1 1.2.2s.7.3 1 .5c.5.4.9.8 1.2 1.4l-2.1.8-.5-1.1c-.3-.1-.6-.2-.9-.2-.3 0-.6.1-.9.3-.3.2-.4.5-.4.8s.2.7.5.9c.4.2.8.5 1.4.7.6.3 1.1.5 1.4.7.3.2.6.5.8.7.3.5.5 1 .5 1.5 0 .6-.1 1-.3 1.4-.2.4-.5.7-.8.9-.7.4-1.5.7-2.4.7-.8 0-1.5-.2-2.3-.7-.7-.4-1.1-.9-1.3-1.6l2.2-.8.5 1.2c.3.1.6.2.9.2s.5 0 .7-.1.3-.1.5-.2c.3-.2.5-.5.5-.9 0-.5-.3-.9-1-1.2-.6-.3-1.2-.5-1.6-.7-.5-.2-.8-.5-1.1-.7-.6-.5-.9-1.2-.9-2.1 0-.9.3-1.5 1-2.1.5-.2 1.3-.5 2.2-.5zm12.7 2.8c0 .4-.1.9-.2 1.3s-.4.8-.9 1.1c-1 .8-2.5 1.1-4.7 1.2.2 1.1.8 1.8 1.7 2.2.3.1.7.2 1 .2s.7 0 1-.1c.3-.1.5-.1.7-.2.4-.2.6-.4.8-.5l.5 1.5c-.2.2-.4.3-.8.5-1.4.6-2.8.6-4.1.1-1.2-.4-2.1-1.3-2.5-2.5-.2-.6-.4-1.4-.4-2.2s.1-1.6.4-2.2c.3-.7.6-1.2 1-1.6.8-.9 1.9-1.3 3.1-1.3.9 0 1.7.2 2.3.7.8.3 1.1 1 1.1 1.8zm-2 .2c0-.4-.1-.7-.3-1s-.5-.4-.9-.4-.7.1-1 .2-.5.3-.7.6c-.5.6-.8 1.4-.9 2.4 1 0 1.8-.1 2.3-.2s.9-.4 1.2-.6c.2-.3.3-.6.3-1z"/></svg>