<svg xmlns="http://www.w3.org/2000/svg" width="160" height="160" viewBox="0 0 1000 1000"><style>.psblu{fill:#125396;} .white{fill:#FFF;} .aiyel{fill:#D1871B;} .idpin{fill:#C9147B;} .brablu{fill:#29ABE2;} .grey{fill:#222;} .ccred{fill:#BC0916;} .offwhite{fill:#E6E6E6;} .whitepage{fill:#E6E6E6;fill-opacity:0.5;stroke:#E6E6E6;stroke-width:2.8591;stroke-miterlimit:10;} .htmlred{fill:#EF652A;} .phpblue{fill:#5C82B8;} .mysqlblue{fill:#00618A;} .npm{fill:#CB3837;} .scspink{fill:#FF7BAC;} .wpBlu{fill:#21759B;} .wamPink{fill:#FE0199;} .accRed{fill:#A33639;} .aws{fill:#FE9800;} .aut{fill:#0B847D;} .vbaBlue{fill:#6681BC;} .vbaYell{fill:#DBD303;} .vbaOrange{fill:#D47A32;} .vbaPurp{fill:#94287F;} .scpGr1{fill:#1FB31E;} .scpGr2{fill:#019700;} .scpBl1{fill:#255BB7;} .scpBl2{fill:#002B9F;} .scpGrey{fill:#A9A9A9;} .pyBlue{fill:#3773A5;} .pyYell{fill:#FFD545;}</style><g id="ps"><path class="psblu" d="M9 11h180v180H9z"/><path class="offwhite" d="M59 72.4c4.6-.8 11.3-1.4 20.7-1.4 9.6 0 16.3 1.8 21 5.5 4.3 3.4 7.2 9 7.2 15.8 0 6.7-2.4 12.3-6.5 16.2-5.3 5-13 7.2-22.2 7.2-2 0-3.8 0-5.2-.3v24.4H59V72.4zm15.2 31c1.3.3 3 .4 5 .4 8.3 0 13.4-4 13.4-11 0-6.4-4.4-10-12-10-3.2 0-5.3.2-6.4.5v20zm40.8 23c2.8 1.6 8.7 3.6 13.2 3.6 4.7 0 6.6-1.6 6.6-4s-1.5-4-7.3-5.8c-10.2-3.4-14-9-14-15 0-9 7.8-16 20-16 6 0 11 1.3 14 2.8l-2.7 10.6c-2.2-1.2-6.4-2.8-10.7-2.8-3.5 0-5.7 1.5-5.7 4 0 2.4 2 3.6 8 5.7 9.5 3.2 13.4 8 13.5 15.3 0 9.2-7.3 16-21.5 16-6.4 0-12.2-1.4-16-3.5l2.8-11z"/></g><g id="ai"><path class="aiyel" d="M209 11h180v180H209z"/><path class="offwhite" d="M275.3 125.5l-5 17.5h-16l21-68.2h20.3l21 68.2H300l-5-17.5h-19.6zm17.3-11.5l-4.2-14.5c-1.2-4-2.5-9-3.5-13.2h-.4c-1 4-2 9.3-3 13.2l-4.2 14.5h15zm48-34.2c0 4.2-3.2 7.7-8.3 7.7-5 0-8-3.5-8-7.7 0-4.5 3-7.8 8-7.8s8.2 3.3 8.3 7.8zm-16 63.2V93.5H340V143H325z"/></g><g id="id"><path class="idpin" d="M410 11h180v180H410z"/><path class="offwhite" d="M477.3 76v68.3h-15.5V76h15.5zm60.5-3.6v57c0 5.7.2 11.5.4 15h-13.6l-.7-7.4h-.4c-3.2 5.6-9.2 8.4-15.5 8.4-11.7 0-21-10-21-25.4 0-16.7 10.2-26.3 22-26.3 6 0 11 2 13 5.5h.3V72.4h15.4zm-15.4 43.3c0-.8 0-2-.2-2.7-1-4.2-4.2-7.6-9-7.6-7 0-10.6 6.3-10.6 14 0 8.5 4.2 13.7 10.5 13.7 4.7 0 8-3 9-7.2.4-1 .5-2.2.5-3.5v-6.5z"/></g><g id="brack"><path class="brablu" d="M609 11h180v180H609z"/><path class="white" d="M627 32h141v141H627z"/><path class="grey" d="M746.4 78v77H711v-16.5h20v-45h-20V78h35.4zM690 78v15.4h-18.6v45H690V155h-35V78h35z"/></g><g id="cc"><path class="ccred" d="M894.8 166.8c-23.7 0-47.6 2.5-66.5-14.5-9.6-8.6-15.5-19.3-17.8-32-2.4-13-.4-25.3 6-37 4.8-9 12-16.2 20.8-21.5 6-3.7 13-6 20-7.2 7.7-1.2 15.5 2 21.5-3.5 11-10 25.4-16 40.2-16.7 45-2.7 81 41.7 67.8 85.2-3.8 12.2-10.4 22.6-20 31-21 18.2-46.2 16.4-72 16.4-9.4 0 9.3 0 0 0zm-6-107.6c3.6 2.3 7.3 4 10.8 6.5 1 .7 10.6-4.7 12.2-5.2 6.5-2 13.4-2 20-.4 17 4 27.8 15 32 32 2.4 10 .6 19.5-4.3 28.4-7.4 13.7-19 21-34.6 22-12 .5-22.3-3.4-30.7-11.7-8-8-17-21-27-26.6-2.6-1.4-6-.7-7.8 1.7-1.6 2-2.2 5.3.6 8 10.3 10 20 22 31.5 30.7 8.6 6.6 18.4 9.6 29 10 7.5.4 14.6-.8 21.6-3.5 9-3.5 16.5-9 22.4-16.3 10.3-12.8 14-27.4 11.4-43.6-2.2-12-8-22-17-30.2-9.5-8.6-20.7-13-33.5-13.8-13-1-26.8 3.7-36.6 12.2 0 0 1.6-1.5 0 0zm-4.3 95c-2.7-2.3-10.5-12.4-13.8-12.4-9.5.2-18.4-1.2-25.6-7.8-6-5.6-9.6-12.5-10.4-20.8-.6-5.5.4-10.8 2.7-15.8 5.8-12.8 20.4-21 34.8-18 14.5 3 24 16.4 34 26.4 1 1.3 2.4 1.8 4 1.7 5.3 0 8-6.2 4.4-10-9-9-17.5-20.3-29-26-8-4-16.5-5.4-25.3-4-14 2-24.6 9.2-31.7 21.4-5.8 10-7.2 21-4.3 32.2 5 19.6 22.2 33 42.4 33h18c-1-1-.4 0 0 0z"/></g><g id="js"><path class="whitepage" d="M164 386H34V213h100l31 31z"/><path class="whitepage" d="M135 214.2v29.5h30"/><path class="offwhite" d="M60.6 323.8c.4-1 .8-1.7 1.5-2.4l2.5-1.5c1-.6 1.8-.8 3-.8.8 0 2 .2 2.8.6.8.3 1.6.8 2.3 1.4.6.7 1 1.5 1.5 2.4s.7 2 .7 2.8c0 1-.2 2-.6 3s-1 1.5-1.4 2c-.7.8-1.5 1.3-2.3 1.7-1 .4-2 .6-2.8.6-1 0-2-.2-3-.5-.8-.3-1.6-1-2.3-1.5-.6-.6-1-1.3-1.4-2.2s-.6-1.8-.6-3c0-.8.2-2 .6-2.7zm39-40v51c0 2 0 4-.6 6s-1.5 3.6-2.7 5c-1.3 1.5-3 2.6-5 3.4-2 .8-4.3 1.2-7.2 1.2h-3c-1-.2-2-.6-3-1l.5-6.2c0-.7.4-1 .8-1.3.4-.4 1.2-.5 2.4-.5 1 0 2.2 0 3-.3.7-.2 1.5-.5 2-1 .5-.6 1-1.4 1-2.2.2-.8.3-2 .3-3.2v-41.4l-3-.5-1.3-.5H83c-1.6-.4-2.4-1.4-2.4-3V284h19zm2-14.2c0 1-.2 2-.6 3s-1 1.5-1.7 2.2c-.7.7-1.5 1.2-2.4 1.6-1 .4-2 .6-3 .6-1.3 0-2-.2-3-.6-1-.4-1.8-1-2.5-1.6-.7-.7-1.2-1.5-1.6-2.3-.5-1-.7-1.8-.7-3 0-1 .2-2 .6-3 .3-.8 1-1.6 1.5-2.3.7-.7 1.4-1.2 2.4-1.6 1-.4 1.7-.6 3-.6 1 0 2 .2 3 .6l2.2 1.6c.6.7 1.3 1.5 1.7 2.4.3 1 .5 2 .5 3zm38.7 48c0 2.3-.5 4.5-1.4 6.5-1 2.3-2.3 4-4 5.4-1.6 1.5-3.6 2.6-6 3.4-2.5.8-5.4 1.2-8.5 1.2-6.2 0-12-1.4-15.7-2.8v-13.8h5.6c1 0 1.8.6 2 1.7.2.7.4 2 .8 6 2.6.7 5.6.7 7.8.7 1.4 0 2.6-.2 3.6-.5s1.8-.7 2.5-1.2c.8-.6 1-1 1.5-2s.4-1.4.4-2.2c0-1-.3-2-1-2.8-.6-.7-1.6-1.3-2.7-2-1.2-.5-2.4-1-4-1.3L117 312c-1.5-.4-3-1-4.4-1.8-1.4-.7-2.8-1.5-4-2.6-1-1-2-2.3-2.6-3.8-.7-1.6-1-3.4-1-5.6 0-2 .3-4 1-5.7.8-2 2-3.5 3.6-4.8 1.6-1.4 3.6-2.5 6-3.3 2.2-.8 4.8-1.3 8-1.3 4.7 0 7.3.7 14.3 2.8h-.3v14H132c-1 0-1.7-.7-2-2l-.7-5.2c-1.2-.4-3.5-.7-5.7-.7-2.4 0-4.2.4-5.5 1.3-1.3 1-2 2.3-2 4 0 1 .4 2 1 2.6.8.7 1.7 1.2 2.8 2s2.3 1 3.7 1.3c1.5.4 3 1 4.5 1.3 1.5.5 3 1.2 4.5 2 1.4.5 2.7 1.3 3.8 2.4 1.2.8 2 2 2.7 3.4s1 3 1 5z"/></g><g id="css"><path class="brablu" d="M299.6 390.5L233 368l-12-157.5h157L366 368l-66.4 22.5z"/><path class="offwhite" d="M359 238H244l3 22h86l-2 23h-35v22h33l-3 30.4-25.3 7-25.6-5.8-1.4-17.6h-23l3.2 35 47 12.4 47.3-12z"/></g><g id="htm"><path class="htmlred" d="M499.6 390.5L433 368l-12-157.5h157L566 368l-66.4 22.5z"/><path class="offwhite" d="M560 235H442.5l6.2 70H530l-2.8 30-27.7 7-24.6-5.7-2-17.3h-23l3 35.6 46.5 12.6 50-13L556 283h-85.7l-2-24H558z"/></g><g id="php"><path class="phpblue" d="M656.5 289.2c4.6 0 7.6 1 9 2.5 1.6 1.6 2 4.6 1.2 8.6-1 4-2.3 7-5 9-2.2 1.8-6 2.7-10.5 2.7h-7l4.3-22.8h8zm-29 45.6h11.7l2.8-14.5h10c4.5 0 8.2-.5 11.2-1.4s5.5-2.7 7.8-5c2-2 3.7-4 5-6 1-2.3 2-4.6 2.4-7.4 1.2-6.4.2-11.5-2.8-15-3.2-3.6-8-5.3-15-5.3H638l-10.5 54.4zm60-68.6H699l-2.6 14.5h10.3c6.7 0 11 1 13.6 3.4 2.6 2.5 3.3 6 2.3 11.3l-4.8 25.3h-12l4.6-24c.5-2.7.3-4.5-.7-5.5s-3-1.2-6-1.2h-9.4l-6 31h-11.7l10.8-54.5zm61.4 23c4.4 0 7.4 1 9 2.5 1.4 1.6 1.6 4.6 1 8.6-1 4-2.4 7-5 9-2.2 1.8-6 2.7-10.5 2.7h-7l4.2-22.8h8zm-29 45.6h12l2.5-14.5h10.2c4.3 0 8-.5 11-1.4s5.5-2.7 7.8-5c2-2 3.7-4 5-6 1-2.3 2-4.6 2.4-7.4 1-6.4 0-11.5-2.8-15-3.3-3.6-8-5.3-15-5.3h-22.8L720 334.8z"/></g><g id="mysql"><path class="mysqlblue" d="M971.7 345.7c-9.3-.3-16.3.6-22.4 3.2-1.7.5-4.5.5-4.7 2.7 1 1 1 2.4 1.8 3.6 1.4 2.4 4 5.5 6 7.2 2.4 1.8 5 3.7 7.5 5.2 4.3 2.8 9.4 4.4 13.7 7.2 2.6 1.5 5.2 3.5 7.7 5.4 1.2 1 2 2.3 3.7 3v-.4c-1-1-1-2.4-2-3.6l-3-3.4c-3.5-4.4-7.7-8.3-12.2-11.6-3.6-2.6-11.7-6-13.2-10.3h-.3c2.6-.3 5.6-1.3 8-2 4-1 7.4-.7 11.5-1.7l5.6-1.6v-1c-2-2.2-3.6-5-5.8-7-6-5-12.4-10-19-14.2-3.7-2.3-8.3-3.8-12.2-5.8-1.3-.6-3.6-1-4.4-2-2-2.7-3.2-6-4.8-9-3.3-6.4-6.5-13.4-9.5-20-2-4.7-3.3-9.2-5.8-13.3-12-19.6-25-31.5-45-43.2-4-2.4-9.4-3.4-14.8-4.7-3 0-5.8-.3-8.7-.5-1.7-.7-3.6-3-5.2-4-6.7-4-23.6-13.2-28.5-1.3-3.2 7.6 4.5 15 7.3 18.8 2 2.6 4.5 5.7 6 8.7 1 2 1 4 2 6 1.7 5.2 3.4 10.8 6 15.6 1 2.4 2.5 5 4 7 1 1.4 2.7 2 3 4-1.6 2.3-1.7 6-2.6 8.8-4.2 13-2.6 29 3.4 38.7 1.7 3 6 9.4 12 7 5.2-2 4-8.7 5.6-14.5.3-1.3 0-2.3.7-3.2v.3l5 9.4c3.5 5.7 9.7 11.6 15 15.6 3 2 5 5.7 8.5 7v-.4h-.3c-.7-1-1.8-1.5-2.6-2.3-2-2.2-4.4-4.7-6-7-5-6.5-9.2-13.7-13-21-2-3.6-3.5-7.6-5-11.2-.6-1.3-.6-3.4-2-4-1.6 2.6-4 4.7-5.4 8-2 5-2.4 11-3.2 17.2-.3 0 0 0-.4.2-3.7-1-5-4.7-6.3-8-3.5-8-4-21.3-1-30.8.7-2.4 4.2-10 2.8-12.4-.5-2.2-2.7-3.5-4-5.2-1.6-2.2-3-5-4.2-7.4-3-6.4-4.2-13.6-7.2-20-1.4-3.2-3.8-6.3-5.8-9-2-3-4.6-5.3-6.3-9-.6-1.3-1.4-3.4-.5-4.7.2-1 .6-1.4 1.5-1.7 1.5-1 5.8.5 7.4 1 4 2 7.5 3.6 11 6 1.8 1 3.6 3.3 5.6 4h2.4c3.8.7 8 .2 11.4 1.2 6.2 2 11.7 4.8 16.7 8 15.4 9.5 27.8 23.2 36.3 39.5 1.3 2.6 2 5 3 8 2.6 5.5 5.6 11.3 8 16.8 2.5 5.4 4.8 11 8.2 15.5 1.8 2.4 8.7 3.7 12 5 2 1 5.7 2 7.8 3.2 4 2.4 8 5.3 11.6 8 2 1.2 7.5 4 8 6.5zM849 245.7l4 5 2.7 5.6s5-3.2.8-9c-2-3-7.4-1.6-7.4-1.6z"/></g><g id="npm"><path class="npm" d="M9.8 465.6v60h50v10h40v-10h90v-60"/><path class="white" d="M19.8 475.6v40h20v-30h10v30h10v-40h10v50h20v-40h10v20h-10v10h20v-40h10v40h20v-30h10v30h10v-30h10v30h10v-40"/></g><g id="scss"><path class="scspink" d="M290.2 513.2c8.2-6 4.7 7.3 3.8 10.5-.6 2-5 14-2 15 8.4-12.2 12.6-27.5 18.4-41 1.2-2.8 9.4-5 10.8-1.5 1 2.5-1.6 8-1.8 10.6-.2 3.8.6 7.8 3 11 3.6-5 6-10.5 8.7-15.6 2-3.8 2-11.3 6.7-12.4 1.6-.4 8.7-1.6 8.3 1.7-1 8.7-3.3 13 1 21.5 1.5 2.7 11.2-1.8 14-2 6.5-.6 13.3.4 19 3.8 5.5 3.3 9.8 9.3 9.5 16-.2 4-4.2 11.5-9.4 10.8 1 0 6-7.7 6-9.3.7-7-6-12-12-14-5-1.8-11-2.2-16-1.7-7.7.6-7.3 1.7-6.6 7.7 1.3 10-20 23-21 12.2-.4-5.4 4.2-11.2 7.8-14.8 4.3-4 0-12-2-17.3-3.2 4.8-5.5 10-8.6 15-3.3 5-.7 5.8-.4 11.2.4 9.2-8 14.6-16.2 16-11.5 1.8-4.8-7.8-.6-12 1.7-2 7-6.8 6.5-9.6-.8-3.3-3-12.4-5.4-15-5.7 11.3-9.7 23.5-16.6 34.2-2 3-6.8 8-10 3-2.4-3.8 1-9.2-1-12.4-2.8 5-5 16.3-11.7 17.2-13.7 1.7-8.8-25.2-7.6-31.2-1 .4-10.8 5.2-10.2 6.4 2.5 5.3 2.6 11.7 1.5 17.4-2.4 11.4-11.7 21.2-23.3 23.2-13 2.3-21.8-7.2-16-20 5.6-12 19-14.4 28-22.2-10.3-6.3-22.4-14.4-29.8-24-9-11.2-5.3-23.3 3-33.6 15-18.7 43-32.4 66.4-34.8 11.5-1 25.4 0 33.8 8.8 8 8.4 5 20.5-.5 29.5-10.8 17.2-41 32-60.2 20.2-1-.6-9-8.7-5.7-8.7 1.6 0 4.5 3.5 6 4.2 3 1.2 6 1.8 9.2 2 13 .3 26.8-5.3 36.2-14 6.7-6 16.2-20 6.4-27.8-7-5.6-19-4.3-27.4-2.8-19.8 3.7-60.7 20.8-59.3 46 .6 12 13.3 19.2 21.6 25.8 5.6 4.4 6 6.3 12.6 2.7 6-3 11-5.4 15.5-10.4 3.4-3.6 9.3-8.2 14.6-6.7 5.2 1.4 3.3 7.4 3.6 11.3 1.6-1.2 0 0 0 0zM248 530.4c-4.4 2-32.2 19.8-21.6 28 5.3 4.2 14-3 17-6.8 5.2-6.2 6-14.8 4.6-21.2-6.5 2.8 0 .8 0 0zm22.4 4c0 1.7.5 9.8 4 6 4.5-5 7-15.2 8.8-21.4 2-6 2-15-5-6.6-5 6-7.8 14.2-7.8 22v-3.7 3.6c0 1.3 0-8.4 0 0zm72.4-11c-2.3 1.6-8.5 9-7 12.6.6 1.5 4.8-2.5 5-2.8 2.5-2.7 3.3-6.4 2-9.8-.2 0 .6 1.5 0 0-2 1.5.5 1.3 0 0zm-23.7 8.2c-1-.3-8.4 9-9 10.6 5 1 8.8-8 9-10.6-1-.3 0 .7 0 0z"/></g><g id="svg"><path class="whitepage" d="M564.4 587H434V414h100.4l31 31z"/><path class="whitepage" d="M535 414v30h31"/><path class="offwhite" d="M419 523.8c.3-1 .8-1.6 1.5-2.3.6-.7 1.4-1 2.3-1.5.8-.4 1.8-.6 2.8-.6 1 0 2 .2 3 .6.8.4 1.6.8 2.2 1.5.7.7 1.2 1.4 1.6 2.3s.5 2 .5 3-.4 2-.7 2.8-1 1.5-1.6 2.2c-.6.6-1.4 1-2.3 1.5s-1.8.6-2.8.6c-1 0-2-.4-2.8-.8s-2-1-2.5-1.5c-.7-.7-1.2-1.4-1.6-2.2s-.7-2-.7-3 .2-2 .6-2.8zm53.7-6.2c0 2.4-.5 4.6-1.4 6.6s-2 3.7-3.7 5.2c-1.6 1.4-3.7 2.6-6 3.3-2.5 1-5.4 1.3-8.6 1.3-6 0-12-1.4-15.6-2.7v-13.8h5.6c1.2 0 1.8.5 2 1.7.2.5.4 1.8.8 5.7 2.6.5 5.7.5 7.8.5 1.4 0 2.7-.2 3.6-.4 1-.3 2-.7 2.5-1.3.7-.6 1.2-1 1.5-1.8.3-1 .3-1.7.3-2.4 0-1.2-.2-2-1-2.8-.6-1-1.5-1.5-2.7-2-1-.6-2.4-1-3.8-1.5l-4.6-1.4c-1.5-.5-3-1-4.4-1.8-1.4-.7-2.8-1.6-4-2.6-1-1-2-2.3-2.6-4-.7-1.4-1-3.2-1-5.4 0-2 .3-4 1-5.8 1-1.8 2-3.5 3.7-4.8 1.7-1.3 3.7-2.5 6-3.3s5-1.2 8-1.2c4.8 0 7.5.6 14.4 2.7v14H465c-1.4 0-2-.8-2.4-2l-.7-5.3c-1.3-.4-3.6-.7-5.8-.7s-4 .5-5.4 1.5c-1.3 1-2 2.3-2 4 0 1 .4 1.8 1 2.6.7.7 1.6 1 2.7 1.7s2.4 1.2 4 1.6l4.3 1.4 4.5 1.8c1.5.7 2.8 1.5 4 2.5 1 1 2 2 2.6 3.5s1 3 1 5zm58.7-33.6v5.6c0 1.7-.7 2.6-2.4 3-.7 0-.4.2-4.5 1L508.7 533H498l-16-39.7c-4-.8-3.7-.8-4.4-1-1.7-.3-2.4-1.2-2.4-3V484h24v5.6c0 1.7-.8 2.6-2.4 3-.6 0-.8 0-2.7.5l7 19.6c.8 1.5 1 3 1.6 4.5s.7 3 1 4.5l1-4.4c.4-1.4.8-3 1.4-4.4l7-19.3-3.2-.6c-1.6-.4-2.4-1.3-2.4-3V484h23.8zm30.4-.2c1.8.4 3.5 1 5 2H581v4.3c0 1-.2 1.5-.6 2l-2 1-4.3.6c.5.8.7 1.7 1 2.7v2.8c0 2.5-.3 4.8-1.3 6.8s-2.3 3.6-4 5c-1.8 1.3-4 2.4-6.2 3-2.3 1-4.8 1.3-7.6 1.3-2 0-3.8 0-5.5-.4-1.6 1-2.3 2-2.3 3s.4 1.8 1.4 2.3c1 .4 2 .6 3.6 1s3.2.2 5 .2l6 .4c2 .2 3.8.5 5.8 1 2 .3 3.4 1 5 1.8 1.5 1 2.6 2 3.6 3.4 1 1.6 1.3 3.5 1.3 5.8 0 2.2-.6 4.3-1.7 6.3-1 2-2.5 4-4.5 5.4-2 1.7-4.5 3-7.5 4-3 .8-6.3 1.3-10 1.3s-7-.3-10-1c-2.6-.8-5-1.8-6.7-3s-3.2-2.5-4-4c-1-1.6-1.4-3.2-1.4-5 0-2.3.6-4.3 2-5.8 1.5-1.7 3.4-2.8 6-3.8-1.3-.6-2.2-1.5-3-2.7-.7-1-1-2.5-1-4.4 0-.7 0-1.5.3-2.3s.5-1.5 1-2.3 1.4-1.5 2-2.2c1-.6 2-1 3-1.7-2.5-1.4-4.5-3.2-6-5.4-1.4-2.2-2-5-2-8 0-2.3.4-4.6 1.4-6.5 1-2 2.3-3.6 4-5 1.7-1.3 4-2.4 6.2-3.2 2.4-.7 5-1 7.8-1 2 0 4.2.2 6 .6zm6 49.3c-.4-.4-1.2-1-2.2-1.2-1-.4-2.2-.6-3.5-.8l-4-.5c-1.6 0-3 0-4.7-.2l-4.5-.3c-1.3.7-2.5 1.6-3.2 2.5-.8 1-1.3 2.2-1.3 3.5 0 1 .3 1.6.7 2.4.3.8 1 1.4 2 2s2 1 3.6 1.3 3.3.4 5.5.4c2.4 0 4.4 0 6-.3 1.6-.4 3-.8 4-1.4 1-.5 1.7-1.3 2.2-2 .6-1 .8-1.8.8-2.8 0-1-.3-1.7-1-2.3zm-8-26c1-.5 2-1 2.6-1.7.7-.7 1.2-1.7 1.6-2.6.4-1 .6-2 .6-3.3 0-2.4-.8-4.3-2.2-5.7s-3.7-2.2-6.6-2.2-5.2.7-6.6 2.2-2 3.3-2 5.7c0 1.2 0 2.3.4 3.3s.8 1.7 1.6 2.5c.8 1 1.6 1.4 2.8 1.8 1 .4 2.4.6 3.8.6s2.8-.2 4-.6z"/></g><g id="wp"><path class="wpBlu" d="M622.2 500.8c0 30.7 17.7 57 43.5 69.5L629 469.6c-4.3 9.6-6.8 20.3-6.8 31.2zm129.3-3.6c0-9.6-3.3-16-6.4-21.4-4-6.5-7.4-11.8-7.4-18 0-7 5.3-13.8 13-13.8h1c-13.8-12.6-32-20.2-52-20.2-27 0-50.6 13.7-64.4 34.8h5.2c8 0 20.5-.8 20.5-.8 4-.3 4.7 6 .5 6.5 0 0-4.3.5-8.8.8l28.2 83.7 16.7-50.6-12-33-8.5-1c-4.2-.2-3.7-6.4.6-6.4 0 0 12.6 1 20.2 1 8.2 0 20.5-1 20.5-1 4.3-.3 4.8 6 .6 6.5 0 0-4.2.7-8.7 1l27.8 83 7.7-25.7c3.4-11 6-18.6 6-25zM701 507.6l-23.2 67.2c7 2 14.4 3 22 3 9 0 17.7-1.6 25.6-4.4-.3-.3-.3-.6-.6-1l-24-64.8zm66.3-43.6c.3 2.5.5 5 .5 8 0 7.7-1.4 16.5-6 27.4l-23.5 68c23-13.4 38.5-38.2 38.5-66.6-.2-13.2-3.6-25.8-9.5-36.8zm-67.8-53.2c-49.5 0-90 40.5-90 90s40.5 90 90 90 90-40.5 90-90-40.5-90-90-90zm0 176c-47.3 0-85.8-38.4-85.8-86 0-47.2 38.6-85.8 85.8-85.8s85.8 38.6 85.8 85.8c0 47.6-38.5 86-85.8 86z"/></g><g id="wamp"><path class="wamPink" d="M874 449.4V520c.2 4 2.7 6 6.7 5.6 4.4-.3 6-2.2 6-7v-25h25.8c0 .6 0 26.6.2 27.4.5 3.3 2 4.5 6 4.7 3.2 0 5.6-1.4 6.2-4.2v-72.2c4 .6 8 2 11.2 4 9.2 5.8 14 14.5 14.5 25.2.5 14 .4 28.3 0 42.4-.3 17.2-13.7 30-31 30.2-7.4 0-14.2-1-20.2-5.7-8.6 6-18 7-28 5-12.7-3-19.6-11.7-22.7-24-.7-2-.8-4.5-.8-6.8 0-14-.2-28 0-42 .4-14 12-26.7 25.7-28.4zm115.7 44.3H964c0-4.2 0-8.2-.2-12.2-.2-4.3-.3-8.6-1.3-12.8-4-16.8-14.7-27.2-31.4-31.3-3.6-1-7.7-1.4-11.7-1.4-14.2-.2-28.3-.4-42.4 0-16 .6-28.7 7.3-36.4 21.8-3.7 7-5 14.6-5 22.4v13.5H810l-.3-.5c.2-8 0-15.7.8-23.5 1.7-15 8-28.3 18.4-39.5 10-11 23-17 37.7-19 5-.7 10.3-1 15.4-1h37.5c19.2 0 36 6.5 50 19.5 10.5 9.5 16.3 21.5 18.8 35.2 1.7 9.3 1.2 19 1.3 28.6zm-180 12.7h25.8c0 .8-.2 14 .5 20 2.4 21.3 16.3 33.8 35 36.8 3.4.5 7 .7 10.3.7 13.5 0 27 0 40.7-.3 11.8-.4 22.4-4.3 30.6-13.2 6.5-7 10.2-15.5 11-25 .3-5.7.3-18.4.3-19h25.4c.2 9.4.5 18.6-1 28-3.4 19.7-14 34.6-31.2 44.8-11.7 7-24.4 10.2-38 10.3h-41.7c-10.5-.2-20.6-2.2-30.2-6.6-13.4-6.2-23-16.4-29.7-29.3-5.5-10.5-8-21.8-8-33.6v-13.5z"/></g><g id="acc"><path class="accRed" d="M52 707.3c2-9.6 5-19 6.4-28.7 2 9.6 4.8 19 7 28.7-4.4.3-9 .3-13.4 0zM190 747v-94.6c.6-8.4-6.7-14-14-16.5-19-7-39.4-7.3-59-4.7V612h-12.7c-31.5 6-62.7 12.5-94.2 18v143.3c31.4 5.3 62.6 10.6 93.8 16.3H117v-22c19.6 2.8 40 2 58.7-4.2 7.3-2.5 15-8 14.3-16.6zM72.2 734.2c-1-5-2.5-10-4-15.2-6 0-12.6-.2-18.8-.5-1 4.8-2.5 9.6-3.6 14.7l-12-1c5.8-21.5 12-43 18-64.3l14.2-1.3c6.8 22.8 13.2 45.8 20.3 69-4.8-.7-9.6-1-14-1.5zm44.7-31.8c14 1.7 27.7 1.7 41.4 0 9-1.4 18.3-3.4 25.3-9-.2 8.7.6 17.7-.5 26.4-3.7 4.4-9.3 5.8-14.4 7.2-17 4-35.2 4-52 1.7v-26.5zm66.2 49.8c-6 6.2-15 7.6-23 9-14.4 2.5-29.3 2.5-44 .3.3-8.8 0-17.8 0-26.5 13.8 1.8 28.2 1.8 42 0 9-1.3 18.2-3.3 25.5-9-.2 8.8 1 17.6-.5 26.3zm0-65.3c-3.7 4.2-9.3 6-14.4 7.2-17.2 4-35.2 4.3-52 2V670c14 1.6 27.8 1.6 41.5 0 9-1.5 18.3-3.5 25.6-9-.5 8.3.6 17.3-.8 26zm-8.7-28c-18.6 6.6-38 7-57.7 4v-25.3c16.8-2.5 37-2.5 54.8 3 4.7 1.8 11.5 4 12.6 10-1 4.7-6 6.7-9.8 8.4z"/></g><g id="aws"><path class="aws" d="M389.5 650v108c0 1.6-.5 2.3-2 3-25.6 8.5-51 17.2-76.5 26-1.6.5-2 .2-1.8-1.3 0-37.2 0-74.3.2-111.4 0-1 0-1.7 1.3-2l77.5-24c.3-.2 1.3 1 1.3 1.6zm-180 108.4c0 1.3.4 2 1.7 2.3 25.3 8.5 50.7 17 76 25.7 2.3.8 2.4.8 2.4-1.6V675c0-1.7-.6-2.2-2-2.7l-78-25.2s0 .8 0 0v111.5zm16.3-122l72 23c1 .3 2.2.2 3.4 0L373 636l-2.5-1-69.6-21c-1.3-.4-2.3-.3-3.5 0l-73.3 21.7 1.5.6z"/></g><g id="github"><path class="grey" d="M499 613.2c-49.7 0-90 40.3-90 90 0 39.8 25.8 73.5 61.6 85.4 4.5.8 6-2 6-4.3V769c-25 5.4-30.3-12-30.3-12-4-10.5-10-13.3-10-13.3-8.2-5.5.6-5.4.6-5.4 9 .6 13.6 9.3 13.6 9.3 8 13.7 21 9.7 26.2 7.4.7-5.8 3-9.8 5.6-12-20-2.3-41-10-41-44.5 0-9.8 3.5-17.8 9.2-24-1-2.4-4-11.6 1-24 0 0 7.5-2.4 24.7 9.3 7.2-2 15-3 22.5-3 7.6 0 15.3 1 22.5 3 17.2-11.7 24.8-9.3 24.8-9.3 5 12.4 2 21.6 1 24 5.7 6.2 9 14.2 9 24 0 34.6-21 42.2-41 44.4 3.3 2.6 6 8 6 16.5v24.7c0 2.4 1.7 5.2 6.3 4.3 35.7-12 61.5-45.6 61.5-85.4 0-49.6-40.3-90-90-90z"/></g><g id="autodesk"><path class="aut" d="M751 727.7c-18.5 19.5-41.2 24.5-66.8 19.6-20-3.8-32-16.5-33.6-36.6-.8-9.5 0-19.3 1.8-28.6 2.7-14 12.6-22.5 26.3-26.6 14.8-4.5 30-3.8 45-3 7.6.3 15.2.8 22.5 2 20.5 3.8 34.3 15 39.2 36 4.2 18.2 4.7 36.5 1.6 55-2.7 16.4-11.8 27.3-27 33.7-13.2 5.5-27 7.7-40.8 8.5-21.2 1-42.3 1-63.3-3-16.8-3.3-28.6-12-35.4-27.6-9-20.7-13-42-11.4-64.6.7-10.4 2.4-21 5-31 4-14.2 13.4-24 27.3-29.7 13-5.2 26.6-7 40.3-8.7l77.2-9c.7-.2 1.5 0 2.5 0l1.4 22.3H748c-19.3.3-38.7.3-58 1.2-13 .6-25.3 4.3-37.3 9.5-10 4.2-16.7 11.3-19 21.7-5.6 24-6.3 48 .6 71.7 4.2 14.4 13.4 23 28.6 25.7 26.8 5 53.5 4.4 80-2 16.2-4 23.6-13 25-29.5.6-9 .8-18.4-.5-27.4-2.8-19.6-15.5-30.7-36.7-35.3-24-5.2-42.7 3.6-58.8 20.6-.8.8-1 3-.3 4.2 2.6 5.3 7.4 8.8 13 10 8.6 2 17.4 3.6 26.2 3.8 16 .3 29.3 5.3 39.6 17.5zm-48.5 16l26.3-11.8c0-.7 0-1 .2-1.6l-20.2-4.5c-2 6-4 11-6.3 17.5zM693 695l24.3-11c-1.8 5.2-3.3 9.6-5 14-.2.6-1.4 1.4-2 1.3-6-1-11.8-2-17.7-3.3 0-.3.3-.6.4-1z"/></g><g id="gulp"><path class="npm" d="M899.6 752c-10.5 0-18.7-1.5-22.6-2.5-2.7-.6-4.8-1.3-6.5-2l5.3 9 2 27.8c0 3.2 10 5.7 22.2 5.7 12.3 0 22.2-2.5 22.2-5.7l1.6-28.2 5-8.4c-1.7.7-3.8 1.4-6.6 2-4 1-12 2.5-22.6 2.5zm29.3-90.7c-8 1-18 1.6-29 1.6s-21.3-.8-29-1.8c-4-.6-7-1.2-9-2-.5 0-1.4-.4-2-.8l4.5 44 .8-2.2c.6-1.5 1.2-3 2-4.5.7-1.5 1.5-3 2.4-4.2.8-1.3 1.8-2.6 2.7-3.7 1-1.2 2-2 3-3 1-.7 2-1.3 3.2-1.8 1-.4 2-.7 3-.7 1.3 0 2.5.4 3.6 1 1 .7 2 1.7 3 3.2.3.3.5.6.5 1v1c0 .6 0 1-.4 1.5-.3.5-.7.7-1.2.7-.3 0-.7-.4-1-.8-.4-.6-1-1-1.3-2-.4-.7-.8-1.3-1.3-1.6-.5-.4-1-.5-1.7-.5-1 0-2 .3-3 1l-3 3-3 4.3c-1 1.6-1.7 3.3-2.4 5-.7 1.6-1.3 3.3-1.7 5-.5 1.6-.7 3-.7 4.3v1.3l.3 1 .7 1c.4.3.7.4 1.2.4s1-.2 1.6-.5l2-1.4c.6-.5 1.3-1 2-1.8l1.8-2 1.5-2c.7-.6 1-1 1-1.6l2-5.5c.3-.5.6-1 1-1 .3-.4.7-.5 1-.5h.6l.5.4.4.4.2.7c0 1 0 1.6-.2 2.2l-.5 2-.8 1.7-.6 2-.3.7c0 .4-.2 1-.4 1.5l-.8 2-.8 2.4-.7 2.3-.6 2-.4 1.7c0 .4-.2.6-.2.7 0 .4-.2.6-.3 1l-.5 1-.6.5-.8.2c-.3 0-.6 0-.8-.4-.2-.3-.3-.8-.3-1.5V719.2l.3-1.4.6-2.3 1-2.7.6-2.4-2.3 2.3-2.5 2-2.6 1.4c-.7.5-1.5.7-2.3.7-1 0-2-.2-2.5-.6h-.4l2.7 28c.7 1.6 13.8 6 31 6 17.3 0 30.4-4.4 31-6l4-33.4-1 .7c-1 1-2.2 2-3.2 2.7l-2.8 1.7c-1 .5-2 .7-3 .7s-1.8-.2-2.3-.7c-.5-.4-.8-1-.8-1.7v-.2c0-.6.3-1 .6-1.7l1.4-2 1.6-2 1.5-1.7c.5-.6 1-1 1.2-1.6l.4-1.3c0-.2 0-.4-.2-.5h-.6c-.6 0-1 0-1.7.2l-1.7 1-1.5 1.6-1.5 2-1.2 2-1 1.7s0 .4-.2.7c0 .3-.3.7-.5 1 0 .4-.3.8-.5 1.2l-.5 1.2-.4 1-.4.6-.3.8-.5 1.3-.7 1.7-.5 1.6-.5 1.3-.2 1-.5 1-.6 1-.8.6-1 .2c-.6 0-1-.2-1.3-.4-.3-.3-.4-.7-.4-1.3v-1l.4-1 .4-1 .4-.6 2.3-4.7 2-4.7.5-1c-1 1-1.8 1.7-2.7 2.3-.7.6-1.6 1-2.4 1.5-.7.5-1.5.7-2.3.7-.6 0-1 0-1.4-.3l-.8-.7c-.3-.3-.4-.6-.5-1v-.5l-.8.6c-.8.5-1.6 1-2.4 1.3-.7.4-1.5.6-2 .6-.7 0-1.2-.2-1.6-.7-.4-.5-.6-1-.6-2s.2-1.7.4-2.7l-1.3 2-1.6 1.5c-.6.5-1.3 1-2 1.2-1 .3-1.8.5-2.8.5-.4 0-.8 0-1.2-.2-.4 0-.8-.3-1-.6-.4-.3-.6-.7-.8-1-.2-.6-.3-1-.3-1.8v-.8l.5-2 1.3-4 2.6-5.7c.3-.6.6-1 1-1.2.3-.3.7-.4 1-.4h.7l.7.2.3.5v1c0 .3 0 .6-.3 1l-.8 1.5-1 1.8-1 2-.6 2-.4 2c0 .4 0 .6.2 1l.7.2c.7 0 1.6-.2 2.3-.8l2.2-2 1.7-2.8 1.4-2.7c0-.6.3-1 .5-1.8l.7-1.7c.4-.6.6-1 1-1.3.2-.4.6-.5 1-.5.5 0 .8 0 1 .5.4.4.5.8.5 1.3 0 .3 0 .6-.2 1l-.7 1.8-1 2-.8 2.2-.6 2-.4 2c0 .7.2 1 .8 1 .4 0 1-.2 1.5-.5l2-1c0-.3 0-.4.3-.5l.6-2 1.3-3.7 1.3-3.3 6-15c.2-.6.5-1 1-1.3.3-.3.7-.4 1-.4.5 0 1 .2 1.2.4.4.3.5.7.5 1.3v1l-.6 1-1 2.6-1.5 3.5-1.6 4c-.6 1.2-1 2.5-1.7 3.8l-1.5 3.6c-.6 1-1 2-1.3 3l-.4 1-.2 1.4s0 .3.2.4c0 .2.2.2.5.2.2 0 .6 0 1-.2l1.3-.8 1.5-1 1.7-1.4c.6-.4 1-1 1.5-1.3l1.3-1.3.3-.2.7-2 .4-1.2.6-1.5.8-1.2c.3-.3.6-.5 1-.5.5 0 1 0 1 .4.4.2.5.5.5 1v.5s0 .3-.3.5v.6l-.2.6 1.6-1.7c.6-.5 1-1 1.8-1.4.5-.5 1-1 1.7-1 .7-.4 1.3-.5 2-.5.4 0 .8 0 1.2.2.3 0 .7.3 1 .5l1 .8.2 1.3c0 .7-.3 1.4-.6 2-.3.8-.7 1.6-1.2 2.3l-1.6 2-1.7 2-1.3 1.4c-.2.4-.4.7-.4 1 0 0 0 .2.2.3l.6.2c.3 0 .6 0 1-.4l2-1.2 3-2.4 2.7-2.5 5.2-48-2.3 1-9 1.7zm-29-11.5c-22.6 0-40.8 2.6-40.8 5.7 0 3 18.2 5.6 40.7 5.6s40.5-2.4 40.5-5.4-18.2-5.7-40.6-5.7zm16 7.3c0 1-2 1.5-4.7 1.5s-5-.6-5-1.3c0-.6 2.3-1.2 5-1.2 2.6 0 4.8.6 4.8 1.3zm-8.6-.4c0 .6 1.7 1 4 1 2 0 3.8-.4 3.8-1l5-20.5 20.2-21.2c.5-.5-.4-2-1.8-3.3-1.5-1.3-3-1.7-3.5-1.2L913.7 633l-6 23.5z"/></g><g id="vba"><path class="vbaBlue" d="M67 865.8c5-2 23.7-10 28.6-12.3 1.5-.6 2.7-.7 4.2 0l30.4 14.2c-6.3 3.3-25 13-28.3 14.5-.7.3-1.6.3-2 0L67 866zm31 19.7l-20 8.3c-.6.2-1.6.3-2.3 0l-11-5c-.3-.4-.8-1.2-.8-1.8v-16.6c-.3-1.5.3-1.3 1.3-.8 5.2 2.6 31.8 15.4 32.6 16zm6.6-.2l27-13.5c2-1 2-1 2 1v23c0 1.8-1 2.5-2.5 1.8-8.4-4-26-12-26.3-12.3z"/><path class="vbaYell" d="M133.5 902.8l-29 14c-.6.2-1.4.2-2 0-10.5-5-32.3-15.6-32.8-16L99 888.6c1.3-.5 2.3-.6 3.5 0l31 14.3zm-27 44c0-7.7 0-15-.6-22.5-.4-3.2.7-4.5 3.5-5.8 8.4-4 16.7-8.3 25-12.5 1.3-.6 1.5-.4 1.5 1l.6 24c0 1-.3 1.5-1.3 2l-28.8 13.7zM67 903.3l34 16.4c.8.4 1.2.8 1.2 1.8v24.2c0 1.2-.3 1.5-1.4 1l-33-18c-.4 0-.7-.6-.7-1v-24.4z"/><path class="vbaOrange" d="M12.6 895.8l30-12.6c.7-.2 1.6-.3 2 0 9 4 27.2 12.6 27.8 13l-7.3 3c-.7.3-1.2.7-1 1.7.5 2.4-.6 3.7-3 4.7-4.4 2-8.7 4.4-13 6.6-.5.2-1.3.3-1.8 0-11-5.3-33-16.3-33.4-16.6zm-2.4 3.4l33.6 16.2c1 .4 1.3 1 1.3 2v25c-1.6-1-24.3-13-34-18.3-.3 0-1-.7-1-1v-23.3l.3-.4zm53.8 9V929c-.2 1 0 1.8 1.2 2.2 1 .4 2 1 3 1.7l-19 9.4-.3-25c0-.7.2-1.7.7-2l14-7.2z"/><path class="vbaPurp" d="M186.7 899.7c-3 1.5-26 13.5-28 14.3-.8.3-2 .4-2.6 0l-15-7.5c-1-.5-1-1.2-1-2 .3-2-.3-3.5-2.4-4-.8-.2-1.2-.4-.6-1.5.5-1 0-2.4 0-3.7 0-3.4 0-3.4 3.3-4.7l12.3-5.3c1.2-.6 2.2-.4 3.3 0 4 2 24.2 11.4 30.6 14.4zm3.3 28c0 1 0 1.5-1 2l-27.7 14c-1.3.5-1.4 0-1.4-1V919c0-.6.4-1.4 1-1.6l27.4-14.4c1.3-.7 1.5-.6 1.5 1v23.8zm-52.3 6.8c2-.3 2-1.7 2-3.2V912c0-1.2.2-1.7 1.6-1l13.3 6.5c.4.2 1 1 1 1.6v23.6c0 1 0 1.8-1.5 1-5-2.7-15.6-8.5-16.2-9z"/></g><g id="winscp"><path class="scpGr1" d="M389.8 918.6c0-2.5-.4-5-1.2-7.4-2-5.4-4-5.7-8-1.5l-18.6 19c-4-4-8-8-11.2-11.6-.2.3-2.3 4.5-5 10.3 15 13 31.3 28 44 42v-50.6zM324 891.4c-4.5-2.2-8.3-1.3-11.5 2.7-1 1.5-2.4 2.3-3.6 3.4l.4.4H324v-6.3z"/><path class="scpGr2" d="M345.7 927.2c-6.3 12.8-16 33.2-16 33.3L309 981.2c-2.8 2.7-2.7 4.4.8 5.8 3 1.3 6.3 2.3 9.5 2.4 17 .2 34 0 51 0 11.3 0 19.5-8 19.5-19.4v-.8c-12.7-14-29-29-44-42z"/><path class="scpBl1" d="M210.4 830.7v51.5c0 4.3 1.6 8.2 6.6 12.3l20.7-22.6 27.6 26 28.7 2c-18.5-12.2-58-40-83.6-69.4z"/><path class="scpBl2" d="M307.7 888c4.8-5 4.8-10.8 0-15.7-2.6-3-31.4-29.8-36.7-34.4l23.7-22.6c-4.2-4.6-8.6-5.8-13.5-5.8h-44c-5.2 0-10.8-1-16.2 2-6.5 3.7-10.5 8.3-10.6 15.3v3.6c25.6 29.6 65 57.2 83.6 69.5h1.2s8.5-8 12.5-12z"/><path class="scpGrey" d="M293 901v-33.8c0-3.2 2.3-5.2 5.5-5.2h21.7c3.3 0 6.8 2 6.8 5.2V901h12v-33.8c0-10.6-8-18.2-18.8-18.2h-21.7c-10.6 0-19.5 7.6-19.5 18.2V901h14zm-28.4 46.4c1.3 8.4 4.8 11.7 11.6 13-1.8.2-4.8 0-6.5 0-1.6 0-5.3-2.2-5.3-6.4 0-2.2 0-4.4.2-6.6z"/><path d="M354 956.3V902c0-2.4-1.8-4.3-4-4.3h-6v62.8h6c2.2 0 4-2 4-4.2z"/><path class="grey" d="M268.8 899c-2.3 0-3.8.6-3.8 3v54.3c0 2.3 1.5 3.7 3.8 3.7H345v-61h-76.2zm54.8-50.3h-2 2zm0 21.3c-.3-4.5-3-6-7-6H299l-2.5-2.3c7.6.2 19.4 0 23.7 0 4.4 0 6.3 2.7 6.3 9.3l.2 28-2.6-.4s0-21.8-.4-28.7z"/></g><g id="python"><path class="pyBlue" d="M498.4 810c-45.7 0-43 19.8-43 19.8l.2 20.5h43.6v6.2h-61s-29.2-3.3-29.2 42.8c0 46 25.5 44.5 25.5 44.5h15.3v-21.4s-1-25.5 25-25.5H518s24.5.2 24.5-23.7V834s3.7-24-44-24zm-24 13.8c4.2 0 7.8 3.5 7.8 8 0 4.2-3.6 7.7-8 7.7-4.2 0-7.7-3.5-7.7-7.8 0-4.4 3.5-8 7.8-8z"/><path class="pyYell" d="M499.6 989c45.7 0 43-19.7 43-19.7l-.2-20.6h-43.6v-6h61s29.2 3.2 29.2-43-25.5-44.4-25.5-44.4h-15.3v21.4s1 25.5-25 25.5H480s-24.5-.4-24.5 23.5v39.5s-3.7 24 44 24zm24-13.7c-4.2 0-7.8-3.5-7.8-8s3.6-7.7 8-7.7 7.7 3.5 7.7 7.8-3.5 8-7.8 8z"/></g><g id="edu"><path d="M638.6 934.8h-11.3l2.8-18c.5-1.8 1-3.6-.6-5.5-1.4-2-.4-4.3 1.8-5.7 1-.6 1.8-1.5 2.3-2.4 2-3.3 3.5-6.7 5.3-10-9.4-4.2-18.8-8.2-28.6-12.4l88-37c1.6-.7 2.8-.7 4.4 0l87.6 37.4-88.2 37c-1.5.7-2.7.8-4.2 0L648.2 897c2.6-3.2 6-5.2 9.5-6.4 8-2.8 16-2.8 24.3-2.3 4.5.3 9 1 13.7 1.3 2.4.2 4-.8 4.3-2.7.3-2-1.5-4.7-3.4-5-10.6-1-21.2-2-31.6.7-12.6 3.2-21.6 11.5-27.4 23-1.5 2.8-1.6 6.7-1.4 10 .3 5.4 2.3 18 2.4 19z"/><path d="M653.2 906.7c5 2 33.8 14.3 43.5 18.6 2 1 3.8 1 6 0 13.7-6 43-18 44-18.5.2 1 .3 18.5.2 26.4 0 1.3-.8 2.8-1.7 3.7-13.6 13-29.5 20.6-49 19.6-14.6-1-27-7.2-38.3-16.5-3.5-3-5.2-6-5-10.7.6-7.4.2-14.8.2-22.7z"/></g><g id="lua"><path class="offwhite" d="M823 924.3c.5-1 1-1.6 1.7-2.3.6-.7 1.4-1 2.3-1.5s1.8-.6 3-.6c.8 0 2 0 2.7.4s1.7.8 2.3 1.5c.7.6 1.2 1.3 1.6 2.2.4 1 .6 2 .6 3s-.2 2-.6 2.8-1 1.6-1.6 2.3-1.4 1-2.3 1.5-1.8.6-2.7.6c-1 0-2-.2-3-.6s-1.7-1-2.3-1.5c-.7-.7-1.2-1.4-1.6-2.2 0-.7-.3-1.7-.3-2.7 0-1 .2-2 .5-3zm44.8 3.7v5.7h-26.4V928c0-1.6.8-2.5 2.4-3h.6l1.4-.3 3-.5V872l-3-.6c-.7 0-1.2-.3-1.4-.3h-.6c-1.7-.3-2.4-1.2-2.4-3v-5.5h19v61.8l3 .5 1.4.3h.6c1.6.6 2.4 1.5 2.4 3zm60.2 0v5.7h-14.4c-1.5 0-2.5-.8-3-2.2l-1-4-3 3c-1 .8-2.2 1.5-3.5 2-1 .6-2.4 1-4 1.5-1.2.3-2.7.5-4.3.5-2.7 0-5-.5-7.2-1.4-2-.6-3.8-2-5.2-3.7s-2.4-3.6-3.2-6c-.6-2.2-1-4.7-1-7.4v-22l-5-1c-1.5-.3-2.2-1.2-2.2-3v-5.5h19v31.3c0 3 .8 5.3 2 7s3.6 2.4 6.4 2.4c2 0 4-.5 6-1.4 1.7-.8 3.3-2 5-3.7v-26c-4-.6-4-.7-4.8-1-1.7-.2-2.4-1-2.4-3v-5.4h19v39.7l4.7 1c1.6.3 2.4 1.2 2.4 3zm50.2 0v5.6H967c-1.3 0-2 0-2.8-.5-.7 0-1.2-1-1.5-2l-1-3.3-3.7 3c-1 .8-2.5 1.5-3.7 2-1.3.6-2.6 1-4 1.3s-3 .4-4.8.4c-2 0-4-.3-5.8-1s-3.3-1.2-4.5-2.4c-1.3-1-2.3-2.6-3-4.2s-1-3.5-1-5.8c0-1.8.4-3.7 1.4-5.5 1-2 2.6-3.5 5-5 2.2-1.4 5.2-2.6 9-3.6s8.5-1.6 14-1.6v-3c0-3.3-.7-5.7-2-7.3s-3.4-2.3-6-2.3c-2 0-3.7.2-5 .7l-3.3 1.5-2.6 1.4c-.8.4-1.6.6-2.6.6-.5 0-1.3 0-2-.4-.5-.4-1-1-1.2-1.6l-2.2-3.7c5.6-5.2 12.4-8 20.4-8 2.8 0 5.4.6 7.7 1.5 2.2 1 4 2.3 5.7 4 1.5 1.7 2.8 3.7 3.6 6 .8 2.3 1.2 5 1.2 7.7v21.8l2.5.5c.6 0 1 .2 1 .2 1.7.4 2.5 1.3 2.5 3zm-17.6-15.3c-3.4 0-6.3.2-8.6.7s-4.2 1-5.7 1.7c-1.4 1-2.4 1.6-3 2.5-.5 1-.8 2-.8 3 0 2 .6 3.6 1.8 4.5 1.3.7 2.8 1.2 4.8 1.2 1.5 0 2.5 0 3.6-.3l3-1c.8-.7 1.7-1 2.5-1.8 1-.7 2-1.5 2.7-2.4v-8.3z"/><path class="whitepage" d="M964.5 986.5h-130v-173h100l31 31z"/><path class="whitepage" d="M935.5 814.8v29.5h30"/></g></svg>
