<?xml version="1.0" encoding="utf-8"?>
<!-- Generator: Adobe Illustrator 19.0.0, SVG Export Plug-In . SVG Version: 6.00 Build 0)  -->
<svg version="1.0" id="Layer_1" xmlns="http://www.w3.org/2000/svg" xmlns:xlink="http://www.w3.org/1999/xlink" x="0px" y="0px"
	 viewBox="0 0 100 100" enable-background="new 0 0 100 100" xml:space="preserve">
<polygon id="jst" fill="#FFFFFF" points="0,17.564518 100,0 100,39.9318199 0,57.4963379 "/>
<polygon id="til_1_" fill="#FFFFFF" points="0,9.4023428 53,0 53,71.9429855 0,81.3453293 "/>
<polygon id="ico" fill="#FFFFFF" points="0,11.8420839 67,0 67,63.9718246 0,75.8139114 "/>
<polygon id="blk_1_" fill="#FFFFFF" points="0,17.564518 100,0.0007112 100,49.9318199 0,67.4956284 "/>
<polygon id="rec" fill="#FFFFFF" points="0,10.4677324 59,0 59,81.9355621 0,92.4032898 "/>
<polygon id="arc_1_" fill="#FFFFFF" points="0,14.4588127 82,0 82,42 0,56.4588127 "/>
<polygon id="cam_1_" fill="#FFFFFF" points="0,13.1720438 75,0 75,49.9475212 0,63.1195641 "/>
<polygon id="rhc" fill="#FFFFFF" points="0,11.0857935 62,0 62,61.8464775 0,72.9322739 "/>
</svg>
