<svg xmlns="http://www.w3.org/2000/svg" viewBox="0 0 720 720">
<g fill="none" stroke="red" stroke-width="2">
<path d="M617.23 519.7l-3.4 61.06c-.43 7.68-5.73 13.9-12.7 15.9 8.87-.4 16.2-7.48 16.7-16.56L648.5 33.17c.3-5.35-3.1-9.83-7.73-11.38" class="UkTeqUhS_0"></path>
<path d="M589.34 483.64l-494-4.67L118 153.64l498-100z" class="UkTeqUhS_1"></path>
<path d="M644.5 30.83c.43-7.47-6.4-13.3-13.7-11.7L117.62 130.3c-7.3 1.6-12.7 7.76-13.3 15.2l-29.2 358.77 542.1 15.43L644.5 30.83z" class="UkTeqUhS_2"></path>
<path d="M474.34 653.1c2.82 11.43-7.14 24.25-18.62 26.87l-74.44 15.55c-20.13 4.6-40.92 5.58-61.4 2.9l-49.73-6.48 55.07 7.84c12.52 1.78 25.23 1.8 37.75.1l91.6-12.62c18.32-2.53 30.15-20.74 25-38.52l-17.43-60.13-3.03-.2 15.25 64.7z" class="UkTeqUhS_3"></path>
<path d="M347.18 581.08c1.38 12.57 3.78 34.02 5.16 45.4 1.44 11.84-5.54 34.18-17.37 35.74-32.1 4.23-127.93 16.98-127.93 16.98-2.63.35-2.63 4.17 0 4.5l112.84 14.73" class="UkTeqUhS_4"></path>
<path d="M75.12 504.27l-3.6 44.2c-.65 7.98 5.35 14.93 13.32 15.45l510.3 33.4c9.75.63 18.14-6.8 18.7-16.56" class="UkTeqUhS_5"></path>
</g>
<style>.UkTeqUhS_0{stroke-dasharray:672 674;stroke-dashoffset:673;animation:UkTeqUhS_draw 1333ms ease-out 0ms forwards;}.UkTeqUhS_1{stroke-dasharray:1759 1761;stroke-dashoffset:1760;animation:UkTeqUhS_draw 1333ms ease-out 133ms forwards;}.UkTeqUhS_2{stroke-dasharray:1960 1962;stroke-dashoffset:1961;animation:UkTeqUhS_draw 1333ms ease-out 266ms forwards;}.UkTeqUhS_3{stroke-dasharray:595 597;stroke-dashoffset:596;animation:UkTeqUhS_draw 1333ms ease-out 399ms forwards;}.UkTeqUhS_4{stroke-dasharray:338 340;stroke-dashoffset:339;animation:UkTeqUhS_draw 1333ms ease-out 533ms forwards;}.UkTeqUhS_5{stroke-dasharray:607 609;stroke-dashoffset:608;animation:UkTeqUhS_draw 666ms ease-out 666ms forwards;}@keyframes UkTeqUhS_draw{100%{stroke-dashoffset:0;}}</style></svg>
