<svg version="1" xmlns="http://www.w3.org/2000/svg" width="682.667" height="682.667" viewBox="0 0 512.000000 512.000000"><path d="M79.3 137.2c-.6.7-2.4 3.8-4 6.8s-12 21.7-23 41.5-21.2 38-22.5 40.5c-17.5 31.6-17 29.7-10.9 41.2 2.1 4 4.8 9.1 6.1 11.3 1.2 2.2 6.8 12.1 12.3 22 5.5 9.9 11.1 20 12.5 22.5 1.4 2.5 4 7.2 5.8 10.5 1.8 3.3 7.9 14.3 13.6 24.5l10.4 18.5 17.2.3c9.5.1 17.2.1 17.2-.1 0-.1-5-9.3-11.1-20.2-6.1-11-12.4-22.3-13.9-25-3.8-7-22.6-40.8-26.3-47.5-1.7-3-5.8-10.5-9.2-16.6l-6.2-11.1 4-6.9c2.1-3.8 5.3-9.4 6.9-12.4 4.7-8.5 7.3-13.2 9.5-17 5-8.9 45.8-82.5 46.1-83.2.6-1.4-33.4-1-34.5.4zM150.5 151.1v15.1l30.2-.1 30.2-.1v68.8c0 37.8-.4 71.4-1 74.7-2.6 17.3-18.2 33.2-35.8 36.5-2.9.5-12.4.9-21.1.9-8.7-.1-16.2.1-16.7.4-.5.3-.8 7-.8 14.9v14.3h20c21.1 0 25.1-.4 33-3.1 20.7-6.9 35.8-20.3 45-39.9 7.7-16.1 7.4-12.3 7.5-110.3V136h-90.5v15.1zM248.9 136.2c-.6 1.4-.3 29.1.3 29.4.4.3 12.1.5 26 .6 19 0 26.5.4 30.3 1.5 39.2 11.5 45.1 64 9.4 83.2-9.1 5-14.7 5.7-41.6 5.6-15.7 0-24.4.3-24.6 1-.2.5-.3 7.3-.3 15l.1 14 17.6.1c19.7.2 23.3.5 30.4 2.9 13.8 4.7 21.6 14.2 29.5 36 3.8 10.6 10.8 25 14.6 30.3 8.6 11.7 21.5 20.2 31.1 20.5l4.8.2v-14.8c.1-14.6.1-14.8-2.2-15.3-5.6-1.5-14.5-15.4-20.2-31.9-4.6-13.2-10.4-24.3-16.5-31.7l-5.5-6.6 5.5-3.7c14.4-10 25.9-27.7 29.8-46.1 1.5-6.9 1.5-23 .1-30.4-3.6-18.8-17.4-38.4-34.3-48.6-16.2-9.8-23.1-11.1-57.1-11.3-14.9-.1-27.2-.1-27.2.1zM398 136.3c0 .3 2.5 4.9 5.6 10.3 3.1 5.5 7.1 12.6 8.9 15.9 1.8 3.3 9.7 17.7 17.7 32s16.1 28.9 18 32.5c2 3.6 6.4 11.4 9.8 17.5 3.5 6 6.2 11.4 6.2 12 0 .5-14.3 26.6-31.7 58-17.5 31.4-32.4 58.1-33.1 59.5l-1.4 2.5 16.2.3c8.9.1 16.7.1 17.4-.2.6-.2 15.4-26.2 32.9-57.6 24-43.2 31.9-58.2 32.2-61.5.6-4.7.3-5.2-16.4-35-4.9-8.8-9.3-16.7-9.6-17.5-.4-.8-9.1-16.6-19.4-35l-18.8-33.5-17.3-.3c-9.4-.1-17.2-.1-17.2.1z"/></svg>