<svg xmlns="http://www.w3.org/2000/svg" id="Layer_1" viewBox="-20 -20 220 220">
  <style>
    @keyframes write { 33% { transform: rotate(10deg) translate(10px,-20px) } 66% { transform: rotate(-20deg) translate(20px,15px) } 100% { transform: rotate(-25deg) translate(15px,30px) } } .scribble { transform-origin:48px 108px ; transision: transform 300ms cubic-bezier(0, 1, 1, 0); animation: 800ms write alternate infinite; }
  </style>
  <rect fill="#ebefe7" x="-20" y="-20" height="100%" width="100%" rx="10%" />
  <circle cx="90" cy="90" r="90" fill="#FFF" stroke="#000"/>
  <circle cx="90" cy="90" r="60" fill="#5f8864" stroke="#000"/>
  <path d="M13.77 113.48l.5 1.34 10.48-3.86-.5-1.35 1.56-.56 2.36 6.4c.2.57.3 1.15.3 1.73-.03.58-.15 1.12-.36 1.63-.23.5-.54.94-.94 1.34-.4.4-.9.7-1.44.9-.58.2-1.17.23-1.77.07-.6-.14-1.16-.5-1.68-1-.04.37-.12.7-.24 1.04s-.26.62-.44.88c-.2.28-.4.5-.65.7-.23.2-.5.36-.78.46-.57.2-1.14.3-1.7.26-.58-.03-1.1-.17-1.6-.4-.52-.25-.96-.58-1.36-1-.4-.43-.7-.93-.9-1.5l-2.4-6.48 1.56-.56zm5.66 1.52l-4.5 1.66 1.23 3.3c.1.3.28.56.52.76.24.2.5.36.8.47.3.1.63.14.96.14.33 0 .65-.05.96-.16.26-.1.5-.26.7-.46s.36-.44.48-.7c.12-.26.2-.54.2-.84.03-.3-.02-.6-.13-.9l-1.22-3.3zm6-2.2L21 114.43l1.17 3.22c.1.3.27.56.48.77s.44.4.7.5c.27.13.54.2.83.22.3.02.57-.02.84-.12.3-.1.56-.27.8-.5.24-.2.43-.45.58-.73s.25-.58.3-.9c.03-.3 0-.6-.1-.9l-1.2-3.22zm-2 24.4c-.6-.84-1-1.72-1.23-2.64-.2-.92-.22-1.86-.06-2.8.16-.96.52-1.85 1.08-2.7.56-.83 1.25-1.54 2.07-2.13.83-.6 1.73-1.03 2.7-1.28s1.87-.3 2.8-.18c.92.13 1.8.44 2.64.93.83.5 1.56 1.17 2.18 2.04.63.87 1.04 1.78 1.24 2.73.2.95.22 1.88.04 2.8-.17.9-.52 1.78-1.06 2.6-.54.82-1.23 1.54-2.08 2.15s-1.74 1.03-2.7 1.27c-.94.23-1.88.3-2.8.16-.93-.12-1.82-.43-2.65-.92-.82-.5-1.55-1.17-2.17-2.04zm1.43-1.02c.46.64 1 1.13 1.64 1.47s1.28.54 1.97.6c.7.06 1.4 0 2.1-.2.7-.22 1.37-.55 2-1 .64-.46 1.18-1 1.62-1.66.42-.66.7-1.33.83-2 .14-.7.13-1.4-.02-2.08-.14-.68-.42-1.3-.82-1.86-.47-.64-1.02-1.13-1.65-1.48-.63-.35-1.3-.55-1.98-.6-.7-.07-1.4 0-2.1.2-.7.2-1.37.54-2 .98-.7.52-1.28 1.1-1.68 1.73-.42.62-.68 1.26-.8 1.9s-.1 1.3 0 1.97c.1.7.4 1.35.86 2zm13.6 16.78c-.82-.65-1.45-1.4-1.9-2.2-.44-.84-.72-1.74-.82-2.7-.1-.96 0-1.92.3-2.87.32-.98.8-1.86 1.4-2.65.66-.8 1.4-1.47 2.26-1.97.85-.5 1.74-.82 2.66-.95.92-.13 1.86-.07 2.8.18s1.82.7 2.65 1.37c.86.66 1.5 1.42 1.96 2.28.46.86.73 1.76.8 2.68.08.93-.03 1.86-.32 2.8-.3.94-.76 1.8-1.4 2.63s-1.4 1.46-2.26 1.96c-.84.5-1.73.8-2.65.94-.93.13-1.86.07-2.8-.17-.94-.26-1.83-.7-2.66-1.38zm1.1-1.4c.62.5 1.28.83 1.98 1s1.38.15 2.06.02c.7-.12 1.34-.38 1.96-.77.63-.37 1.18-.87 1.66-1.47.5-.62.85-1.3 1.1-2.04.25-.76.34-1.48.28-2.18s-.26-1.34-.6-1.95c-.3-.62-.75-1.14-1.3-1.57-.6-.5-1.27-.82-1.97-.98s-1.4-.17-2.07-.04-1.33.4-1.96.78c-.63.4-1.18.9-1.65 1.5-.56.7-.94 1.4-1.16 2.1-.24.72-.3 1.4-.25 2.04.06.64.24 1.28.53 1.9.3.64.74 1.2 1.36 1.7zm17.3-3.66l4.5 1.93-.65 1.52-1.4-.6L54.9 161l1.4.6-.66 1.5-4.5-1.93.64-1.5 1.32.56 4.42-10.26-1.3-.56.65-1.5zm8.53 5.46l.63-1.5 3.2 1.36-.66 1.52-1.1-.47-8.2 2.28 3.4 7.8 1.48.65-.65 1.5-3.73-1.6.65-1.5-3.25-7.66 8.22-2.38zm21.77 15.42l1.26.08-1-3.35-5.8-.35-1.37 3.2 1.56.1-.1 1.63-4.9-.3.1-1.65 1.3.08 5.54-12.5 2.93.2 3.85 13.1 1.5.1-.1 1.64-4.9-.3.1-1.65zm-4.86-5.2l4.68.3-1.94-6.6-2.72 6.3zm26.28 3.1l1.34-.37-2.92-10.85-3.34.9.6 2.17-2 .54-.98-3.7 13.03-3.5 1 3.7-1.96.53-.6-2.2-3.84 1.04 2.9 10.87 1.5-.4.44 1.6-4.74 1.27-.42-1.6zm21.26-8.3l1.12-.6-2.6-2.35-5.14 2.7.48 3.44 1.38-.72.76 1.45-4.35 2.3-.78-1.47 1.17-.6-1.78-13.55 2.6-1.37 10.12 9.2 1.34-.7.75 1.46-4.35 2.28-.76-1.46zm-6.85-1.9l4.12-2.18-5.1-4.64.96 6.8zm16.4-4.3l1.08-.96-7.43-8.35-1.07.95-1.1-1.24 5.08-4.5c.46-.42.96-.72 1.5-.92.56-.2 1.1-.28 1.66-.26.55.02 1.08.14 1.6.37.5.24.96.57 1.36 1 .4.48.65 1.02.72 1.63.07.62-.04 1.27-.34 1.94.35-.1.7-.15 1.05-.16.36 0 .7.02 1 .1.3.06.6.17.88.32s.5.34.7.57c.4.45.7.94.88 1.5.17.53.24 1.08.2 1.63-.04.56-.2 1.1-.44 1.62s-.6 1-1.05 1.4l-5.15 4.58-1.1-1.23zm-4.9-10.6l3.15 3.52 2.57-2.3c.24-.2.42-.44.54-.72.13-.27.2-.55.22-.84 0-.28-.02-.57-.1-.85-.1-.3-.24-.54-.43-.76-.2-.23-.45-.42-.74-.56-.27-.16-.6-.25-.9-.3s-.6 0-.9.06-.58.22-.8.43l-2.58 2.27zm4.26 4.76l3.18 3.58 2.63-2.35c.24-.2.4-.46.5-.76.12-.27.16-.6.15-.9 0-.32-.07-.64-.2-.95s-.28-.58-.5-.83c-.18-.2-.4-.36-.67-.47-.26-.12-.53-.18-.82-.2-.3-.02-.58.02-.86.1-.3.1-.55.26-.78.47l-2.65 2.34zm3.16-14.34l2.8-4.02 1.36.95-.87 1.24 9.2 6.4 2.97-4.3c.06-.08.1-.18.13-.3v-.33s-.04-.23-.1-.33c-.05-.1-.1-.16-.2-.2l-1.5-1.06 1.1-1.55 3.5 2.44-6.52 9.36-1.35-.95.83-1.18-9.17-6.4-.84 1.18-1.35-.94zm7.98-12.4l3.9-10.1 3.83 1.47-.74 1.9-2.3-.87-1.95 5.03 4.32 1.68 1.64-4.22 1.54.6-1.64 4.23 4.58 1.78 1.95-5.03-2.28-.9.74-1.9 3.8 1.48-3.93 10.1-1.53-.58.52-1.34-10.42-4.03-.5 1.34-1.55-.6zM22.78 51c-.78.1-1.48.38-2.12.85-.64.47-1.15 1.1-1.52 1.87-.32.66-.48 1.33-.5 2 0 .67.12 1.3.36 1.9.24.6.6 1.13 1.05 1.62.46.5 1 .88 1.63 1.18.73.35 1.44.54 2.13.58.7.03 1.3-.06 1.88-.26.56-.2 1.1-.5 1.6-.93.5-.4.92-.92 1.24-1.6.44-.9.62-1.76.54-2.62-.08-.86-.46-1.74-1.14-2.65l1.37-1.2c.45.5.8 1.1 1.1 1.88s.37 1.6.33 2.54c-.04.9-.28 1.83-.73 2.76-.42.87-.96 1.6-1.62 2.2-.66.6-1.4 1.06-2.25 1.37s-1.7.43-2.63.37c-.9-.06-1.8-.3-2.62-.7-.84-.4-1.56-.93-2.16-1.6-.62-.65-1.06-1.4-1.35-2.2-.3-.83-.4-1.7-.37-2.6.05-.92.3-1.82.7-2.7.4-.8.82-1.44 1.3-1.92.5-.48.96-.85 1.44-1.12.48-.26.95-.46 1.42-.6l.44-.9 1.38.66L22.8 51zm.57-7.5l2.87-3.67 1.18.92-.9 1.13 7.98 6.23 3.05-3.9c.07-.1.1-.17.14-.3s.04-.2.04-.3c0-.1 0-.2-.05-.3-.04-.1-.1-.17-.17-.23l-1.3-1 1.1-1.43L40.35 43l-6.68 8.56-1.17-.9.83-1.1-7.96-6.2-.85 1.07-1.17-.92zm9.77-11.45l3.38-3.1 1 1.08-1 .93 6.86 7.43 1-.94 1 1.1-3.36 3.1-1-1.1 1-.92-6.86-7.43-1 .94-1.02-1.1zm18-9.35c-.7-.33-1.45-.46-2.25-.4-.8.07-1.54.34-2.27.8-.6.4-1.1.88-1.46 1.45-.35.57-.6 1.17-.7 1.8-.1.64-.1 1.28.05 1.94.12.63.37 1.25.75 1.83.44.7.94 1.22 1.5 1.6.57.4 1.15.64 1.73.76.58.1 1.2.13 1.84.05.65-.1 1.28-.33 1.9-.73.83-.54 1.45-1.2 1.83-1.97.38-.77.52-1.72.42-2.85l1.78-.3c.13.66.12 1.38-.05 2.18-.17.8-.52 1.58-1.04 2.33s-1.16 1.43-2.06 2c-.82.53-1.67.88-2.54 1.04-.88.16-1.75.16-2.63-.02-.87-.17-1.7-.52-2.43-1.06s-1.37-1.18-1.87-1.96c-.5-.8-.85-1.62-1-2.5-.17-.88-.17-1.74 0-2.6.2-.83.54-1.63 1.06-2.4s1.2-1.4 2.02-1.92c.74-.48 1.44-.8 2.1-.95.66-.15 1.27-.22 1.8-.2.56.03 1.06.1 1.53.24l.85-.54.84 1.3-1.7 1.1zm4.36-6.22l4.38-1.62.52 1.4-1.37.5 3.53 9.48 1.35-.5.52 1.4-4.4 1.62-.5-1.4 1.28-.47-3.52-9.5-1.26.47-.52-1.4zm9.43-1.9l-.5-1.4L67.5 12l.5 1.4-1.05.4-4.23 6.7 7.37 2.92 1.42-.54.5 1.4-3.62 1.34-.5-1.4-7.17-2.88 4.18-6.8zm24.3-5.36l4.66-.2.06 1.5-1.37.05.4 10.1 1.37-.04.06 1.48-4.66.2-.06-1.5 1.44-.03-.2-4.7-8.3.33.18 4.7 1.44-.07.06 1.48-4.66.2-.06-1.47 1.36-.06-.4-10.1-1.37.05-.06-1.48 4.65-.18.06 1.48-1.43.06.16 3.96 8.3-.33-.14-3.95-1.46.05-.06-1.48zm10.27.46l10.16 1.77-.64 3.65-1.94-.34.38-2.18-5.06-.88-.72 4.13 4.25.74-.24 1.46-4.26-.74-.76 4.35 5.06.88.38-2.17 1.9.33-.62 3.63-10.16-1.77.26-1.46 1.35.24 1.74-9.96-1.35-.23.26-1.47zm14.73 3.02l5.6 2.15c.6.23 1.1.52 1.56.85.45.34.8.72 1.07 1.14.26.4.42.87.47 1.36.05.5-.03 1-.24 1.55-.12.3-.3.58-.53.84-.24.23-.5.44-.82.6-.3.18-.64.3-1 .4-.38.08-.76.1-1.15.1.12.1.24.24.35.4.1.18.18.37.26.58.07.2.12.42.15.67.05.24.06.5.03.75l-.27 2.94 1.16.45-.56 1.54-2.62-1 .43-4.1c.07-.74-.02-1.34-.27-1.8-.26-.46-.7-.8-1.36-1.06l-1.73-.68-1.64 4.28 1.35.5-.52 1.4-4.36-1.68.54-1.38 1.28.5 3.62-9.45-1.28-.5.54-1.4zm2.48 2.56l-1.48 3.84 2.58 1c.34.12.66.2.97.23.3.02.6 0 .87-.1s.5-.2.7-.4.38-.45.5-.77c.23-.6.2-1.16-.06-1.65-.27-.47-.84-.9-1.72-1.22l-2.36-.9zm12.87 4.02l8.7 5.5-1.97 3.14-1.64-1.04 1.18-1.87-4.34-2.72-2.24 3.53 3.65 2.3-.8 1.28-3.66-2.3-2.38 3.74 4.34 2.76 1.2-1.87 1.64 1.04-1.98 3.12-8.7-5.5.8-1.27 1.14.72 5.4-8.53-1.15-.74.8-1.26zm10.73 22.92l.86.98 7.67-6.7-2.14-2.48-1.54 1.34-1.27-1.46 2.6-2.28 8.45 9.66-2.6 2.27-1.28-1.46 1.54-1.34-2.5-2.86-7.67 6.7.97 1.12-1.12.96-3.07-3.5 1.12-.98zm8.42 14.72c-.46-.88-.74-1.76-.83-2.64-.1-.9 0-1.76.23-2.62s.67-1.64 1.26-2.34c.6-.7 1.3-1.26 2.1-1.7.84-.43 1.7-.7 2.6-.8.88-.08 1.74 0 2.57.25s1.6.66 2.3 1.24c.7.6 1.3 1.34 1.78 2.23.5.9.8 1.8.87 2.72.1.9 0 1.78-.25 2.6-.25.83-.66 1.6-1.23 2.27-.6.7-1.3 1.26-2.1 1.7-.86.45-1.7.72-2.6.8-.9.1-1.75.02-2.58-.23-.83-.26-1.6-.67-2.3-1.25-.72-.58-1.32-1.32-1.8-2.2zm1.42-.76c.36.67.8 1.2 1.34 1.6s1.1.7 1.74.85 1.26.2 1.92.13c.67-.1 1.3-.3 1.92-.63.63-.34 1.18-.78 1.65-1.32.44-.54.77-1.12.96-1.74s.25-1.26.2-1.9c-.08-.67-.26-1.3-.57-1.87-.37-.66-.8-1.2-1.35-1.6-.54-.4-1.12-.7-1.74-.85-.6-.16-1.26-.2-1.92-.1-.68.1-1.32.3-1.93.62-.7.38-1.28.83-1.7 1.36-.45.52-.75 1.07-.92 1.64-.16.58-.23 1.2-.2 1.85.03.63.22 1.3.57 1.95z"/>
  <circle cx="15.83" cy="80.72" r="5"/>
  <circle cx="163.85" cy="80.72" r="5"/>
  <g class="scribble">
    <path d="M103.4 107.68c-.76.06-1.28-.52-1.28-1.3-.02-.74.5-1.36 1.2-1.37.77 0 1.3.6 1.3 1.5.03.86-.52 1.15-1.23 1.2zm-34.73-7.91c-.2-.26-.38-.54-.56-.84-.12.12-.25.2-.4.33-.12-.2-.2-.44-.3-.65-.05.05-.08.05-.1.06l.07.72c-.02.03-.07.04-.1.05-.36-.63-.7-1.27-1.2-2.17.83.05 1.42.06 2.14.1l.67 2.33-.2.1z"/>
    <path fill="#FFF" d="M52.98 99.8c.1-1.43.74-2.67 1.34-3.9.2-.42.6-.76.96-1.24-.18-.92.54-1.7 1.1-2.43.86-1.16 1.83-2.3 2.95-3.23.8-.65 1.02-1.5 1.5-2.24.14-.26.35-.5.6-.63 1.44-.76 2.9-1.5 4.48-2.28-.2 2.08-.54 3.96-2.33 5.13-1.12.74-1.95 1.7-2.63 2.84-.55.94-1.26 1.82-2 2.65-.33.35-.92.45-1.34.74-.3.24-.7.5-.8.85-.26 1-.26 2.1-.63 3.06-.45 1.2-1.14 2.27-1.8 3.34-.2.3-.67.52-1.04.63-.7.18-1-.22-.9-.88.14-.8.46-1.6.55-2.4zm63.32-47.54c1.34-1.94 1.03-3.8-.82-5.34 2 .24 3.3 2.2 2.87 4.15-.3 1.4-1.12 2.5-2.12 3.45-2.47 2.4-5.4 4.05-8.56 5.32-4.22 1.7-8.42 3.43-12.73 4.9-6.53 2.18-12.26 5.6-17.36 10.15C75 77.2 72.5 79.6 70 82c-.38.35-.65.82-1 1.2-.22.2-.6.44-.82.38-.24-.07-.47-.48-.5-.76-.08-.5-.08-1.05.06-1.54 2.03-7.86 6.73-13.47 14.08-16.93 5.2-2.42 10.74-3.78 16.28-5.1 4.35-1.05 8.68-2.17 13-3.37 1.14-.3 2.24-.95 3.24-1.6.77-.53 1.45-1.26 1.97-2.02zm-1.96 13.04c-4.97 6.1-11.2 10.3-18.48 13.04-6.34 2.4-12.72 4.55-19.3 6.08-.8.2-1.64.35-2.44.46-.35.03-.72-.15-1.07-.24.12-.32.16-.7.35-.93 4.56-5.5 9.72-10.3 16.33-13.25 4.77-2.16 9.62-4.16 14.42-6.26 4.2-1.84 8.2-4 11.64-7.05 1.4-1.22 2.6-2.6 3.26-4.37.57-1.6.5-3.15-.38-4.62-1.1-1.77-2.63-2.3-4.57-1.58l-1.03.46c2.22-2.17 5.23-1.6 6.53 1.2 1.2 2.47.93 5.03.3 7.6-.93 3.7-3.24 6.57-5.6 9.47zM67.38 98.6l.3.66c.16-.12.3-.2.43-.33l.58.84c.07-.02.14-.07.2-.1l-.67-2.32c-.7-.04-1.3-.05-2.14-.1l1.2 2.17c.04 0 .1-.02.1-.05 0-.24-.04-.48-.08-.72.04 0 .07 0 .1-.04zm-3.8 1.5c.26-1 .42-1.8.7-2.6.13-.27.48-.67.75-.72 1.75-.25 3.52-.67 5.27.54-.8-.85-.25-1.2.34-1.66 1.5-1.12 3.18-1.54 5.07-1.5.8 0 1.58-.36 2.37-.56 0-.17-.02-.32-.03-.5-1.22-.13-2.45-.32-3.67-.4-.82-.05-.9-.5-.82-1.13l.26-2.66-.24-.06c-.24.3-.46.64-.7.95-1.1 1.36-1.9 1.04-3.06.3-.18-.13-.24-.83-.1-.95.8-.7 1.64-1.54 2.6-1.87 2.8-.93 5.63-1.73 8.5-2.4.88-.23 2.03-.1 2.84.3 2.24 1.05 4.52 2.08 6.36 3.87 1.17 1.16 2.56 2.14 3.9 3.1 1.04.73 2.17 1.3 3.25 1.95l.26-.23-.9-1.77c3.7.1 5.67 1.5 4.96 6.1-.24 1.55-.62 3.07-.97 4.6-.33 1.5-1.58 2-3.6 1.5.27-.5.6-.96.75-1.46s.04-1.07.04-1.92c-.8.85-1.4 1.47-1.96 2.13-.68.78-1.5 1.24-2.53 1.54-2.13.55-4.26.9-6.47 1-1.5 0-2.92-.18-4.3-.76-1.77-.72-3.57-1.37-5.3-2.12-.64-.28-1.23-.76-1.83-1.15-.7-.5-1.43-.56-2.32-.35-1.32.32-2.7.34-4.06.53-1.1.15-2.17.42-3.28.57-1.78.24-3.54.14-5.22-.53-1.1-.45-1.58-1-1.85-2.1.98 1.14 2.16.96 3.3.9.04-.08.06-.18.08-.26-.55-.14-1.1-.34-1.65-.44-1.1-.2-.94-1.04-.94-1.75-.02-.78.66-.53 1.1-.6.23-.04.45-.03.7 0 1.5.07 1.5.07 1.56 1.58.18-.1.32-.22.5-.34l.36 1.3z"/>
    <path d="M50.53 110.38c.07.06.12.13.2.18 2.26-2.93 4.5-5.87 6.8-8.87-1.07.34-5.5 5.9-7 8.67zm53.7-20.45c-1.54-.7-3.16-.37-4 .76.43.32.8.65 1.17.93.96.73 1.45 1.65 1.28 2.88-.4 3-.77 6-1.15 8.97-.14 1.14-.4 2.26-.4 3.4 0 1.18.8 1.74 2.33 1.84 1.82.13 1.93.1 2.2-1.4.9-4.5 1.3-9.1 1.2-13.68-.07-1.8-1.06-3-2.63-3.7zm-40.67-.95c1.8-1.17 2.14-3.05 2.35-5.13-1.56.8-3.02 1.52-4.46 2.28-.25.14-.46.37-.6.63-.48.75-.7 1.6-1.5 2.24-1.12.92-2.1 2.07-2.95 3.23-.57.74-1.3 1.5-1.1 2.43-.38.48-.76.82-.97 1.24-.6 1.23-1.23 2.47-1.34 3.9-.1.8-.4 1.58-.56 2.38-.1.66.2 1.06.9.88.37-.1.84-.32 1.03-.63.67-1.07 1.36-2.15 1.8-3.33.38-.96.38-2.06.65-3.06.1-.34.5-.6.8-.83.4-.27 1-.37 1.32-.72.75-.83 1.46-1.7 2-2.65.7-1.14 1.52-2.1 2.64-2.84zm7.6 19.5c-.02.7 0 1.4 0 2.2 1.28-.2 2.08-.97 2.1-1.98.04-.82-.5-1.2-1.2-1.28-.7-.12-.86.5-.9 1.05zm18.57-38.04C83.13 73.4 77.96 78.2 73.4 83.7c-.2.24-.23.62-.35.94.35.1.72.27 1.07.24.8-.1 1.63-.26 2.43-.46 6.6-1.53 12.97-3.68 19.3-6.08 7.3-2.75 13.52-6.95 18.5-13.04 2.34-2.9 4.65-5.78 5.57-9.48.64-2.56.9-5.12-.3-7.6-1.3-2.78-4.3-3.36-6.53-1.2l1.02-.45c1.94-.73 3.48-.2 4.56 1.58.87 1.47.94 3.03.37 4.62-.66 1.78-1.88 3.15-3.28 4.37-3.45 3.05-7.45 5.2-11.65 7.04-4.8 2.1-9.65 4.1-14.42 6.26zm8.65-5.85c-10.43 3.5-19.36 9.2-26.4 17.7-3.5 4.2-6.73 8.62-10.07 12.96-.24.32-.4.7-.6 1.07l.18.1c.16-.2.34-.38.5-.56 2.06-2.66 4.1-5.36 6.22-8 3.22-4.02 6.47-8.07 10.3-11.56 5.5-4.95 11.97-8.2 18.87-10.67 4.7-1.68 9.34-3.48 13.64-6.04l1.06-.7c-.3 0-.36-.02-.4 0-4.2 2.4-8.7 4.15-13.27 5.68zm-30.4 40.92c-.7-.03-1.48.4-2.06.82-.2.14-.03 1.04.2 1.46.38.68.92 1.28 1.47 1.83.6.56 1.22.42 1.6-.3.2-.4.3-.86.35-1.1.02-1.63-.54-2.66-1.6-2.7zM90 89.02c-1.84-1.77-4.12-2.8-6.36-3.84-.8-.42-1.96-.54-2.85-.3-2.88.66-5.7 1.46-8.5 2.4-.97.32-1.8 1.17-2.6 1.86-.15.12-.1.82.1.93 1.14.76 1.95 1.08 3.04-.3.24-.3.46-.63.7-.94l.25.08-.27 2.68c-.07.62 0 1.08.82 1.14 1.22.08 2.45.27 3.67.4 0 .18.03.33.03.5-.8.2-1.57.56-2.35.55-1.88-.03-3.55.4-5.06 1.5-.6.46-1.13.82-.34 1.67-1.75-1.2-3.52-.8-5.27-.54-.27.05-.62.45-.75.73-.28.8-.44 1.6-.7 2.6l-.36-1.3c-.18.1-.32.22-.5.33-.06-1.5-.05-1.5-1.57-1.58-.24-.03-.46-.04-.7 0-.43.07-1.1-.18-1.1.6 0 .7-.15 1.55.95 1.76.56.1 1.1.3 1.65.45l-.07.25c-1.15.07-2.33.25-3.3-.9.26 1.1.75 1.66 1.84 2.1 1.68.67 3.44.77 5.22.53 1.1-.15 2.2-.42 3.28-.57 1.36-.2 2.74-.2 4.06-.52.9-.2 1.6-.14 2.3.35.6.4 1.2.87 1.83 1.15 1.76.75 3.56 1.4 5.3 2.12 1.4.58 2.83.77 4.33.75 2.2-.1 4.34-.44 6.48-1 1.05-.3 1.86-.77 2.54-1.55.56-.66 1.15-1.28 1.95-2.13 0 .85.1 1.4-.05 1.92-.13.5-.48.95-.74 1.44 2 .5 3.27 0 3.6-1.5.34-1.53.72-3.05.96-4.6.7-4.6-1.26-6-4.96-6.1l.9 1.77c-.07.1-.17.16-.25.23-1.08-.65-2.2-1.23-3.25-1.95-1.34-.97-2.73-1.95-3.9-3.1zm-33.3 18.1c-3.95-.53-4.94 6.93-8.95 5.68 0-2.6 3.6-5.22 4.95-7.55-4.96-3.8 1.24-11.7 4.43-15.65 2.28-2.83 2.45-3.78 5.64-5.75 3.14-1.9 2.35-2.4 3.32-5.73.5.48.5 1.46.7 2.18 1.06-2.1 3.2-6.7 3.03-9.05 1.13.9 3.98-3 5.15-4.4 2.82-1.73 5.7-3.26 8.54-4.94 2.37-1.4 13.7-2.47 14.27-4.9 0 .75 18.9-.96 17.45-7.37-2.04.56-.97 2.23-3.85.84-2.2-1.1 1.03-4.85 1.58-5.5-.73 0-.93-.22-.58-.6 3.7.78 7.38-.25 8.7 4.6 1.6 5.9-.96 9.96-3.87 14.62-1.9 3.04-3.7 4.62-6.5 7.77-2.44 2.74-6.1 3.7-7.8 6.98-.1-.46-.14-.9-.1-1.37-.43.25-1.2 1.7-.95 1.7-.88.43-5.47.9-5.38 1.3-1.32.5-4.4 2.63-5 2.32-.92-.5-5.04 1.18-6.22 1.4-.17 1.4 3.5 2 4.4 2.26-.33.33-.3.26.2.12 1.1-.22 6 7.33 8.96 4.16 3.82-4.1 11.54-2.77 17.32-2.6-.76 6.07-1.5 15.25-1.94 22.6.8 2.56.07 3.5-2.15 2.72-1.86-.1-3.74-.18-5.6-.37-2.58-.28-3.46-2.8-5.44-2.68-1.84.12-3-3.13-5.42-3.42-4-.47-8.2.65-12.27.24-1.44-.14-8.6-3-8.9-2.33-.1.8.24 1.18 1.03 1.1-1.17 1.56.63 6.14-3.57 6.54-5.7.58-5.8-2.78-8.26-6.76-1.82-2.73-3.52 2.27-6.92 1.85zm58.78-60.2c1.85 1.54 2.16 3.4.83 5.34-.5.76-1.2 1.5-1.95 2-1 .67-2.1 1.3-3.24 1.62-4.3 1.2-8.64 2.32-13 3.36-5.53 1.33-11.1 2.7-16.27 5.1-7.35 3.47-12.05 9.08-14.08 16.94-.14.5-.14 1.04-.07 1.54.04.28.27.7.5.76.23.06.6-.18.82-.4.35-.36.62-.83 1-1.18 2.5-2.4 5-4.8 7.58-7.1 5.1-4.56 10.83-7.98 17.36-10.17 4.3-1.46 8.5-3.18 12.73-4.9 3.15-1.26 6.1-2.9 8.56-5.3 1-.97 1.83-2.06 2.12-3.46.42-1.96-.86-3.9-2.87-4.15z"/>
  </g>
</svg>
