<svg class="charlie" xmlns="http://www.w3.org/2000/svg" viewBox="0 0 310 310">

  <style>
    @keyframes bodybounce {
      from { transform: rotate(5deg) translateY(10px) }
      50% { transform: translateY(-2px) }
      to { transform: rotate(-5deg) translateY(10px) }
    }
    @keyframes armbounce {
      from { transform: translate(5px,10px) }
      50% { transform: translateY(-2px) }
      to { transform: translate(-5px,10px) }
    }
    @keyframes tache-left { to { transform: rotate(-15deg) } }
    @keyframes tache-right { to { transform: rotate(15deg) } }
    @keyframes brows {
      from { transform: rotate(-10deg) }
      to { transform: rotate(10deg) }
    }
    .anim-body {
      transform-origin: 235px 240px;
      animation: bodybounce 1s infinite ease-in-out alternate;
    }
    .anim-arm {
      transform-origin: 600px 550px;
      animation: armbounce 1s infinite ease-in-out alternate;
    }
    .anim-tache {
      transform-origin: 236px 130px;
    }
    .tache-left {
      animation: tache-left .5s infinite ease-in-out alternate;
    }
    .tache-right {
      animation: tache-right .5s infinite ease-in-out alternate;
    }
    .anim-brows {
      transform-origin: 235px 95px;
      animation: brows .3s infinite alternate;
    }

  </style>
  <rect height="100%" width="100%" fill="#D70036" rx="10%" />

  <path id="legs" fill="#512C1D" d="M216 241.1s6.4 10.6 5.2 25.8c0 0-15.8-10-19.5 5.2 0 0 17.5 2.6 29.8-1.3l-2.8-29.8-12.7.1zm35.6 0s-6.4 10.6-5.2 25.8c0 0 15.8-10 19.5 5.2 0 0-17.5 2.6-29.8-1.3l2.8-29.8 12.7.1z"/>
  <g id="torso" class="anim-body">
    <path fill="#D70036" d="M255.4 156.8s57.2 22.1 11.5 43.1"/>
    <path fill="#512C1D" d="M254.8 157.5c7.4 2.9 14.8 6.9 20.9 12 3.9 3.3 8 7.8 7.8 13.2-.4 8.5-10.6 13.5-17.1 16.5-1.3.6-.1 1.8.9 1.2 6.6-3.1 15.3-7.5 17.8-15 1.8-5.4-1-10.6-4.7-14.5-6.5-6.8-15.6-11.6-24.3-15-.9-.2-2.6 1.1-1.3 1.6z"/>
    <path fill="#D70036" d="M258.3 160.4s20.6 36.4 20.2 77.3c0 0-57.9 21.5-84.7-3.1 0 0-2.6-33.7 11.9-71.8l52.6-2.4z"/>
    <path fill="#512C1D" d="M257.4 160.6c4.2 7.4 7.4 15.4 10.2 23.3 6.2 17.3 10.1 35.6 10 54 .2-.1.4-.3.6-.4-15.1 5.6-32 8.8-48.1 8.5-11.7-.2-24.1-2.5-33.5-10-1.1-.8-1.8-1.2-2.1-2.4-.2-1.1-.1-2.4-.1-3.5-.1-4.6.1-9.1.4-13.7 1.2-18.4 5.1-36.5 11.6-53.8-.4.2-.8.3-1.2.5l46.1-2.1 6.5-.3c.5 0 1.9-.7.7-.7l-46.1 2.1-6.5.3c-.3 0-1.1.2-1.2.5-6.1 16.1-9.9 33.1-11.4 50.3-.5 5.3-.7 10.6-.7 16 0 1.5-.4 4.4.2 5.7.5 1.1 2.5 2.1 3.4 2.8 1.3.9 2.6 1.7 4 2.5 2.4 1.3 4.9 2.4 7.5 3.3 5.7 1.9 11.6 2.8 17.6 3.1 11.5.6 23.1-.9 34.3-3.3 6.4-1.4 12.9-3.1 19-5.4.2-.1.6-.2.6-.4.1-18.4-3.8-36.7-10-54-2.9-7.9-6.1-15.9-10.2-23.3-.1-.5-1.7.2-1.6.4z"/>
    <path fill="#512C1D" d="M261.7 242.4c-2.5-49.8-14.8-72.2-14.9-72.4l1-.6c.1.2 12.5 22.9 15.1 72.9l-1.2.1zm-15.6-57.8s-2.9-.3-3.3 1.3c-.4 1.6.5 3.6 1.3 3.6s3.3.3 3.2-1.3-.5-3.5-1.2-3.6zm4.9 13.6s-1.4-1.7-2.5-1-1.6 2.2-1.1 2.6c.4.4 1.7 1.9 2.4 1s1.7-2.1 1.2-2.6zm-1.6 9s-1.8 2-.9 3.2c1 1.2 2.9 1.6 3.3 1 .4-.6 2.1-2.3.8-3.1-1.1-.8-2.8-1.6-3.2-1.1zm4.3 14.1s1.9-.7 1.7-1.8c-.2-1.1-1.4-2.1-1.9-1.9-.5.2-2.2.8-1.7 1.8.6 1 1.4 2.1 1.9 1.9zm1.5 6.4s-2.4 1.1-2 2.6c.5 1.5 2.1 2.5 2.7 2.2.6-.4 2.8-1.3 1.9-2.6-.8-1.2-2-2.5-2.6-2.2zm-33.3-34c.2 0 .4.4.4.6 0 .9-2.7 6.3-7.5 6.3-3 0-5.2-2.2-5.2-5.9 0-4.8 3.6-10 8.1-10 2.2 0 3.4 1.2 3.4 2.7 0 1.5-1.3 2.6-2.9 2.6-1.1 0-1.9-.5-1.9-1.3 0-.4.2-.6.2-.6s.3.3 1.1.3c.9 0 1.5-.5 1.5-1.2s-.6-1.3-1.6-1.3c-2.7 0-5.2 3.7-5.2 8.2 0 3.2 1.3 4.6 3.4 4.6 3.9 0 6.2-5 6.2-5z"/>
  </g>
  <g class="anim-arm" >
    <g id="left_arm">
    <path fill="#D70036" d="M206 162s-8.9 15.8-35.1 3.4l-3.7 8.7s15.2 13.5 37 8"/>
    <path fill="#512C1D" d="M204.9 161.9c-6.8 11.6-23.9 7.1-33.4 2.8-.5-.2-1.4.1-1.7.6-1.2 2.9-2.5 5.8-3.7 8.7-.1.3 0 .5.2.8 10.2 8.9 25.2 11.1 38 8.1 1.4-.3.9-1.8-.4-1.5-11.3 2.6-23 .7-32.8-5.6-.8-.5-1.8-1.1-2.5-1.8-1-.9-.4.6-.1-.4.8-2.7 2.3-5.4 3.4-8.1-.6.2-1.1.4-1.7.6 10.8 4.9 29.3 8.8 36.8-4 .6-1-1.6-1.1-2.1-.2z"/>
    <g fill="#512C1D">
      <path d="M170.1 162l5.8 2.9s.8 19-7.8 18.5l-6.1-5.1 1.9-3 6.2-13.3z"/>
      <path d="M169.1 162.4c1.3.7 4.9 1.7 5.7 2.9.4.6 0 2.6 0 3.4-.1 2.9-.4 5.8-1.3 8.5-.3 1.1-.8 2.3-1.4 3.3-.5.9-1.8 2.7-3.1 2.5-.3 0-.6-.6-.9-.7-.9-.4-4.9-3.5-5-4.2-.1-.8 1.8-3 2.3-3.9 2-4 3.8-8.2 5.6-12.2.2-.5-1.9-.3-2.2.3-2.5 5.5-4.8 11.2-8.1 16.4 0 .1 0 .2.1.2 1.8 1.5 4.2 4.6 6.5 5.2 2.1.6 4.8-1.1 6-2.6 3.5-4.2 3.7-11.5 3.5-16.7 0 0 0-.1-.1-.1-1.9-1-3.9-2-5.8-2.9-.4-.5-2.2.4-1.8.6z"/>
    </g>
  </g>
    <g id="sign_x26__hand">
    <path fill="#D70036" d="M156 197.1v75.8l9.5-3.4-6.9-134.1h-7.5l-1.6 134 6.5 3.5"/>
    <path fill="#512C1D" d="M155.2 197.3v75.9c0 .3.9 0 1 0 3.2-1.2 6.3-2.3 9.5-3.5.1-.1.5-.2.5-.4l-6-117.4-.9-16.6c0-.1-.2-.1-.3-.1h-7.5c-.3 0-1.2.1-1.2.5-.5 39.2-1 78.3-1.4 117.5-.1 5.5-.1 11-.2 16.4v.1c2.2 1.2 4.3 2.4 6.5 3.6.4.2 1.6-.4 1.4-.5-2.2-1.2-5.8-2.1-6.5-4.5-.6-2.1.1-5.2.1-7.4.1-10.3.3-20.6.4-30.9l.9-76.2c.1-6.2.2-12.4.2-18.5-.4.2-.8.3-1.2.5 1.7 0 6.8-.5 7.3.2.5.8.2 3.4.2 4.3.3 6.7.7 13.4 1 20.2 1.1 20.9 2.1 41.9 3.2 62.8l1.5 28.4c.3 5.3 0 11.1.8 16.3.3 1.9.4 1.5-.9 1.9-2.2.7-4.5 1.4-6.5 2.4-1.7.8-.6.9-.5-.1.9-6.4 0-13.5 0-19.9V197c.1-.4-1.4-.2-1.4.3z"/>
    <path fill="#D70036" d="M72.2 49.1L51.8 70.7 31.4 92.3l20.4 21.5 20.4 21.6h138.3V49.1z"/>
    <path fill="#512C1D" d="M71.3 48.8L30.5 92c-.2.2-.3.5-.1.8l25.1 26.6c3.2 3.3 6.3 6.7 9.5 10 1.7 1.8 3.9 5.3 6.1 6.5 1.6.9 4.3.4 6.1.4h133.3c.4 0 1.2-.4 1.2-.8V49.1c0-.6-.5-.7-1-.7H72.3c-1.2 0-1.7 1.5-.2 1.5h138.4c-.3-.2-.7-.4-1-.7v86.4c.4-.3.8-.6 1.2-.8H75.9c-1 0-2.6.3-3.6 0 1.8.5-.6-1.3-1.2-2l-5.7-6L49.5 110c-4-4.3-8.1-8.5-12.1-12.8-1.3-1.4-2.6-3.3-4.1-4.4-1.2-.9-1.1 0-.2-.9 13.7-13.7 26.7-28.3 40.1-42.4.8-1.1-1.3-1.4-1.9-.7z"/>
    <path fill="#512C1D" d="M93.8 79.2l-8.5.4.2 3.7 4.3-.2.1 2.8c-1.1.8-2.4 1.3-4 1.4-3.5.2-6-2.3-6.2-5.9v-.1c-.2-3.3 2.2-6.2 5.3-6.3 2.3-.1 3.6.6 5.2 1.7l2.5-3.4c-2.1-1.6-4.3-2.5-7.8-2.3-5.9.3-10 5-9.7 10.6v.1c.3 5.8 4.7 9.8 10.7 9.5 3.6-.2 6.3-1.7 8.2-3.5l-.3-8.5zm8.9 10.8l-.3-6.2 3.3-.2h.1l4.5 6 5-.2-5.1-6.7c2.4-1 4-3.1 3.9-6.2v-.1c-.1-1.8-.7-3.3-1.9-4.4-1.3-1.2-3.3-1.8-5.8-1.7l-8.9.4.9 19.5 4.3-.2zm3.6-15.8c2.1-.1 3.4.8 3.5 2.6v.1c.1 1.6-1.1 2.8-3.2 2.9l-4.3.2-.3-5.6 4.3-.2zm27.2 14.3l-.2-3.8-10.6.5-.2-4.1 9.2-.4-.2-3.8-9.2.4-.2-4 10.5-.4-.2-3.9-14.7.7.9 19.5zm22.8-1L147 68.2l-4 .2-7.4 20.1 4.4-.2 1.6-4.5 8.3-.4 2 4.3 4.4-.2zm-13.4-7.6l2.3-6.5 2.9 6.2-5.2.3zm27.9-8.7l-.1-4-16.2.8.2 3.9 5.9-.2.8 15.5 4.2-.2-.7-15.5zM97.2 95.9l-7.6-.6-1.4 19.5 7.6.6c6.1.4 10.7-3.5 11.1-9v-.1c.4-5.4-3.5-10-9.7-10.4zm5.2 10.2c-.3 3.5-2.8 5.6-6.3 5.4l-3.3-.2.9-11.7 3.3.2c3.5.2 5.7 2.8 5.4 6.3zm7.6 10.3l14.8 1.1.3-3.8-10.6-.8.3-4.1 9.2.7.3-3.8-9.2-.7.3-3.9 10.4.7.3-3.8-14.7-1.1zm26.8-17.7l-9.8 19 4.4.3 2.1-4.2 8.2.6 1.5 4.5 4.5.3-6.9-20.2-4-.3zm-1.5 11.4l3.1-6.1 2.1 6.5-5.2-.4zm21.1-9.9l-4.3-.3-1.5 19.5 14 1 .3-3.9-9.7-.7zm20.2 9.4c-3.3-1.1-4.1-1.6-4-2.9v-.1c.1-.9 1-1.6 2.6-1.5 1.6.1 3.3 1 4.9 2.3l2.5-3.1c-1.9-1.7-4.2-2.8-7.1-3-4-.3-7 1.8-7.2 5.4v.1c-.3 3.9 2.2 5.1 6 6.4 3.2 1.1 3.8 1.7 3.7 2.8v.1c-.1 1.1-1.2 1.8-2.9 1.6-2.2-.2-4-1.2-5.6-2.8l-2.8 2.8c2.2 2.3 5.1 3.5 8 3.7 4.2.3 7.3-1.6 7.6-5.5v-.1c.3-3.3-1.8-4.9-5.7-6.2zm-113.5-50h74.8c1.6 0 2.2-2.1.3-2.1H63.4c-1.7 0-2.3 2.1-.3 2.1zM57 65.2h58c1 0 3.1-1.5 1.2-1.5h-58c-1 0-3.1 1.5-1.2 1.5zm82.5-.1h28.8c.9 0 3.1-1.3 1.2-1.3h-28.8c-.8 0-3.1 1.3-1.2 1.3zM42 104.9h27.3c1.2 0 3-1.8 1.1-1.8H43.1c-1.2.1-3.1 1.8-1.1 1.8zm8.8 9.5h5.1c.7 0 1.5-.2 2-.5.4-.3.4-.6-.2-.6h-5.1c-.7 0-1.5.2-2 .5-.3.3-.4.6.2.6zm5.5 5.7h61c1.2 0 3-1.8 1.1-1.8h-61c-1.2 0-3 1.8-1.1 1.8zm7.6 8h88.9c1.2 0 3-1.8 1.1-1.8H65c-1.2 0-3.1 1.8-1.1 1.8z"/>
    <path fill="#D70036" d="M164.9 155.3s6.4-3.8 6.4.8-.8 14.1-3.2 14.3c-2.4.2-2.7-1.3-2.7-1.3l-8.9 1.3-4.6-1-2.4-2.4s-.1-5.2 0-5.5 0-2.8.5-3c.5-.2 10.4-1.5 10.4-1.5l4.5-1.7z"/>
    <path fill="#512C1D" d="M165.2 155.7c.7-.4 1.6-.9 2.3-1 3.4-.5 3.1 2.3 2.9 4.9-.1 1.8-.3 3.6-.6 5.4-.1.5-2.4 7.9-3.7 3.9-.1-.3-.4-.3-.7-.3-3 .4-6.4 1.5-9.3 1.2-1.8-.1-3.4-.6-4.6-1.5-1.9-1.5-1.5-2.9-1.5-5.2 0-1.4-.2-3.6.7-4.2 1.3-.9 4.9-.7 6.5-.9 3.1-.4 5.2-1.2 8-2.3.9-.4.1-1.1-.6-.8-2.5 1-4 1.7-6.4 2-2.2.3-6.4 0-8.3 1.2-1.6 1-1.2 3.4-1.2 5.1-.1 2.9-.4 4.8 2.5 6.5 4.3 2.5 8.9.1 13.4 0 1.4 0-.7-.5 1 .7.8.5 2 .8 2.9.4 2.2-.8 2.6-4 2.9-5.9.4-2.4 2.2-9.6-.5-11.2-1.8-1.1-4.7.3-6.3 1.2-.9.5-.1 1.2.6.8z"/>
    <path fill="#D70036" d="M164.2 160.8s5.8-2.2-.3-5.8-16.8.3-18.5 2.5.5 5 .5 5c-1.9 3.9 1.8 6.1 1.8 6.1s-4.2 3.1 3 5.8 13.2-.6 13.2-.6 6.1-6-3.6-6.4-9 .2-9 .2"/>
    <path fill="#512C1D" d="M164.6 161.1c1.9-.8 3.9-2.3 2.7-4.5-2.2-4.2-9.4-4-13.2-3.3-3 .5-7.8 1.5-9.8 4.1-1.4 1.8-.3 2.9.1 4.8.4 1.8-.6 3.3.7 5.3.3.4.9.8 1.2 1.2.4.7.3-.8.2 0-.2.9-1.3 1.2-1.2 2.4.4 4.3 9.2 4.9 12.3 4.6 2.3-.2 5.5-.6 7.3-2.2 1.3-1.1 2.6-3.4 1.6-5-2-3.2-10.3-2.2-13.4-2-.3 0-3.4.4-2.7 1.2.4.5 2.5-.3 2-.8-.9.6-1 .8-.4.7h.4c.3.1 1.5 0 1.8 0 2.6 0 5.9-.3 8.3.5 2.7.9 2.4 3.3.7 5.1-.6.6.1.1-.8.5-2.6 1.1-5.7 1.2-8.5.7-1.9-.4-9.2-2.9-5.5-5.8.1-.1.4-.4.2-.5-.5-.4-1-.8-1.3-1.3-1.3-1.8-.1-2.8-.3-4.6-.1-.6-.8-1.2-.9-1.8-.6-2.2.5-3.4 2.3-4.3 3.6-1.8 8.1-2.7 12-1.7 2.4.6 8 4.1 3.5 6-1.5.6-.2 1.1.7.7z"/>
    <path fill="#512C1D" d="M150.9 161.6c2.9-1 6.2-1.7 9.2-1.4 2.4.3 4.5 1.4 5.4 3.8.6 1.5.1 3.2-1.6 3.8-1.5.5-.1.9.8.6 5.1-1.7 3.2-7.4-1.2-8.8-4.2-1.3-9.3-.1-13.4 1.4-1.5.5-.1.9.8.6z"/>
  </g>
  </g>
  <g class="anim-body" >
  <g id="head">
    <path fill="#D70036" d="M190.1 59.5l-9.8-18.9v-1.5s13.1-19.6 23.3-23.2l2.4-.6s13.8 3.8 17.6 9.7 3.9 14.1 3.9 14.1l2.2 12.9-20.1 7.2-19.5.3z"/>
    <path fill="#512C1D" d="M211.9 105.9c-1.4-.9-2.6-2.3-4.3-1.8-2.2.7-4.4 2.1-6.5 3.2-.1.1-.3.1-.4.2-.2.1-.2.2-.2.3v.1c.5 4.3-1.5 8.3-6.3 8.1-.3 0-1.3.2-1.2.7 1 5.4 7.2 7.7 12 7.9 2.8.1 4.2-1.1 6.5-2.5 2.4-1.5 4.9-2.9 7.3-4.4.1-.1.4-.2.3-.4-.7-2.4-1-5.2-2.1-7.5-.8-1.8-3.5-2.8-5.1-3.9zm45.9 1.5c-4.4 2.2-7.9-.6-9.2-4.8v-.1c0-.1-.1-.1-.2-.1.6-6.2 6.4-5 9.9-14 3.7-9.9-2.3-13.9-2.3-13.9l-17.9-3-7 28.8 8.5 2c-1.2.7-1.8 2.4-2.6 3.6-1 1.5-2.8 3.3-2.9 5.1-.1 2.5.8 5.4 1.1 7.8 0 .2.4.3.5.3 2.6.3 5.2.7 7.9 1 2.8.4 4.8 1 7.4-.3 4.3-2.2 9.1-6.8 7.8-12.2.1-.5-.8-.4-1-.2z"/>
    <path fill="#D70036" d="M264.8 140.9c0-11.9-6.3-22.2-15.8-28L246.1 75c-.4-5.8-5.5-10.2-11.3-9.7l-16.4 1.2c-5.8.4-10.2 5.5-9.7 11.3l1.1 14.8c-1-.4-2.2-.7-3.4-.7-4.8 0-8.7 3.9-8.7 8.7 0 4.8 3.9 8.7 8.7 8.7 1.7 0 3.2-.5 4.6-1.3l.6 7.7c-7.2 6-15.8 15.5-15.8 25.6 0 17.9 18.2 31.9 36.1 32.1.7 2.5 3 4.3 5.7 4.3 3.3 0 6-2.7 6-6v-.3c12.3-4.6 21.2-16.5 21.2-30.5z"/>
    <path class="anim-tache tache-left" fill="#512C1D" d="M214.7 137.8c.5-.3 1.1-.5 1.7-.5.8 0 1.6.3 2.2.9.5-.4 1.1-.6 1.8-.6.9 0 1.6.3 2.2.9.4-.2 1-.4 1.5-.4.6 0 1.2.2 1.7.5.5-.3 1.1-.5 1.7-.5.7 0 1.4.3 1.9.7.5-.4 1.2-.7 1.9-.7.8 0 1.4.3 2 .7.5-.4 1.2-.7 2-.7v-11.6H219s-7.4.3-8.8 10.7c.5-.4 1.1-.6 1.8-.6 1.2 0 2.1.5 2.7 1.2z"/>
    <path class="anim-tache tache-right" fill="#512C1D" d="M255.5 138c-.5-.3-1.1-.5-1.7-.5-.8 0-1.6.3-2.2.9-.5-.4-1.1-.6-1.8-.6-.9 0-1.6.3-2.2.9-.4-.2-1-.4-1.5-.4-.6 0-1.2.2-1.7.5-.5-.3-1.1-.5-1.7-.5-.7 0-1.4.3-1.9.7-.5-.4-1.2-.7-1.9-.7-.8 0-1.4.3-2 .7-.5-.4-1.2-.7-2-.7v-11.6h16.3s7.4.3 8.8 10.7c-.5-.4-1.1-.6-1.8-.6-1.3-.1-2.2.4-2.7 1.2z" />

    <path fill="#D70036" d="M236.6 98.1s-4 6.1 0 17.1c0 0 9.8 6 8.8 10.9s-11.9 6.5-12.9 2.3c0 0-5.7 2.2-5.9-.2-.2-2.4.3-5.6 4.6-5.2"/>
    <path fill="#512C1D" d="M235.7 98.3c-1.3 2.1-1.7 4.8-1.8 7.1-.1 3 .4 6.1 1.4 8.9.5 1.4 1 1.5 2.1 2.3 2.7 2 7.3 5.3 7.1 9.1-.3 4.4-9.7 7-11.2 2.4-.1-.3-1-.1-1.2 0-1.2.4-3.7 1.5-4.6.2-.3-.5-.1-2 0-2.5.3-1.6 1-2.6 3.1-2.6.4 0 2-.7 1.1-.8-3.1-.1-7.4 1.9-6 5.9.8 2.5 5.3.9 7 .2h-1.2c2 6.1 18.8 1.4 13.5-6.7-1.3-2-3.2-3.6-5-5-.7-.5-1.6-1-2.2-1.6-.8-.9-1.1-2.1-1.4-3.4-1.1-4.3-1.5-9.9 1-13.8.2-.3-1.4-.2-1.7.3z"/>
    <path fill="#512C1D" d="M261.6 54.8c0-.4-1.4.1-1.5.2-3.8 2.3-10 5.6-14.3 3.2-2.9-1.6-5.7-3.4-8.7-4.9-1.9-.9-3.9-1.9-6-2.7-1.3-6-2.5-12-3.8-18-.5-2.4-.6-5.4-2.1-7.4-2.8-4-8.1-6.3-12.4-8.1-2.1-.9-4.2-2-6.4-2.2-.2-.1-.5-.1-.9 0-.6 0-1.3.1-1.9.3-4.9 1.6-9.1 5.4-12.6 9.1-3.6 3.7-6.8 7.8-9.8 12.1-1.1 1.6-2.5 2.6-1.6 4.4 3 6.1 6.1 12.2 9.3 18.3-2.4.9-4.6 2.1-6.3 3.8-4.4 4.3-4.6 10.5-3.4 16.2 1.5 6.8 4.1 14.3 9.7 18.9 2 1.6 4.7 3.1 7.3 3.1.3 0 1.1-.2 1.2-.5.3-1.2.9-2.4 1.5-3.6 2.1-3.7 5.2-5.5 9.4-3.5 3.4 2.2 3.6 8.3 3.6 11.8 0 .1.1.1.2.1.8.3 1.6.5 2.4.8.4.1 1.4-.1 1.5-.5 1-3 1.5-6.3 1.5-9.5 0-5.2-2.9-9.3-3.8-14.3-.3-1.8-.5-4.1.5-5.8 1.1-2 3.2-1.7 5.1-1.3 1.9.5 3.8 1.1 5.6 1.6 9.2 2.7 21.5 5.9 29.9-.5 6.6-4.8 7.2-13.7 6.8-21.1zm-78.3-11c-.7-1.3-1.3-2.6-2-3.9-.5-.9-.4-.2-.1-.9 1.6-3.4 4.6-6.6 6.9-9.4 3.5-4.3 7.5-8.6 12.2-11.6 1.1-.7 3.3-2 4.6-2.2l9.3 23.4c.2.5 1.9 0 1.7-.5-3-7.5-6-15.1-9-22.6.8.3 1.7.7 2.4 1 4.7 1.8 10.3 4 13.6 7.9 1.7 2 1.8 4.6 2.4 7.1 1.2 5.9 2.5 11.8 3.7 17.7-6.2-2.3-12.9-3.6-19.1-1.8-4.8 1.4-8.1 4.8-10 9.3-3-.1-6.3.2-9.4 1.1-2.3-4.8-4.7-9.7-7.2-14.6zm62.5 60.7c-.1-2.3-1.3-4.7-3.8-5.1-3-.4-3.6 2.8-3.6 5.1 0 2.7.4 6.1 3.6 6.6.9.2 2 .2 2.7-.5 1.3-1.4 1.4-4.3 1.1-6.1zm-6.2 0c0-1.8.4-5.5 3.1-3.6 1.2.8 1.7 2.5 1.7 3.9v.2c.1.4.1 1 .1 1.6l-1.2-.1c.2-1.4.1-2.3-.3-2.8-.4-.4-.9-.5-1.4-.5h-.5c-.3 0-.5.1-.7.2-.5.6 0 2.2.3 2.9l-1.2-.1c.2-.6.1-1.2.1-1.7zm4.2 5.4c-.4.4 0 .2-.6.4-.8.2-1.7-.3-2.2-.8-.7-.7-1-1.8-1.2-2.9l4.9.3c-.1 1.1-.3 2.4-.9 3z"/>
    <g fill="#512C1D">
      <path d="M258.8 120.7c-2-2.6-4.8-5.8-7.8-7.4-1.4-.7-1.2-.5-1.3-2-.7-8.9-1.3-17.8-2-26.7-.6-7.5.1-17.4-9.2-19.7-3.6-.9-7.9 0-11.6.3-3.8.3-8.3 0-11.9 1.4-5.6 2.2-7.6 7.4-7.2 13l.9 12c-5.9-1.2-12.3 2.9-12 9.5.3 7 7.4 10.4 13.3 8 .2 1.9.7 4.1.4 5.9-.1.8 0 .4-.3.9-.5.8-1.9 1.7-2.6 2.3-1.6 1.5-3.2 3.1-4.6 4.8-5.8 6.8-9.5 14.9-7.7 23.9 3.3 16.2 20 26.6 35.8 27.3 1.7 3.8 6.1 5.5 9.8 3.4 2.2-1.3 2.4-2.9 3.4-4.9.4-.9-.1-.4.7-1 .5-.4 1.3-.6 1.9-.8 1.2-.6 2.3-1.2 3.4-1.9 9.5-6.1 15.2-16.7 15.4-28-.1-7.5-2.3-14.5-6.8-20.3zm-15.7 50.2c-.2.1-.5.4-.5.6.3 6.2-7.9 7.2-10 1.7-.1-.3-.5-.4-.8-.4-16.1-.4-33.6-12.1-35.2-29.1-.9-9.6 5.1-18 11.8-24.3 1.9-1.8 4-2.5 3.8-5.1-.2-2.1-.3-4.2-.5-6.3 0-.6-.8-.8-1.3-.5-5.2 2.8-11.4-.3-11.9-6.2s5.1-10.1 10.7-8.1c.4.2 1.4-.1 1.4-.7-.3-3.4-.5-6.8-.8-10.2-.4-4.8-.9-9.7 3.3-13.1 3.3-2.6 8.2-2.3 12.2-2.6 3.5-.3 7.3-1 10.8-.7 10.2.7 9.4 12.5 9.9 19.9.6 8.3 1.2 16.5 1.9 24.8.1.7-.1 1.8.2 2.4.3.7.9.9 1.7 1.4 1.6 1.1 3.2 2.4 4.6 3.7 6.1 6 9.5 14.3 9.6 22.8-.3 13.4-8.4 25.2-20.9 30z"/>
      <path d="M239.9 171.2c-.5-.2-1-.5-1.6-.7-.4-.2-1.2.1-1.5.4-.3.5-.7 1-1 1.5-.2.3.2.4.4.4.3 0 .9-.1 1.1-.4.2-.2.3-.4.5-.7l.6.3c.3.2.9 0 1.2-.2.4-.2.7-.4.3-.6z"/>
    </g>
    <path fill="#512C1D" d="M256.5 112.6c0 .4-.1.7-.1 1.1h-14.9c-.1-.4-.1-.9-.2-1.4 0-.2-.4-.3-.5-.3h-3c-.5-.1-1.2.2-1.2.7 0 .4-.1.7-.1 1.1h-14.9c-.1-.4-.1-.9-.2-1.4 0-.6-1.5-.4-1.7.3-3.1-6.1-6.1-12.2-9.2-18.4-.2-.3-1 0-.8.4 3.5 7 6.9 13.9 10.4 20.9 2.9 8.7 17 7.5 18-2.4.8-.1 1.6-.1 1.8.1-.2-.3-.1 1.9-.1 2 .2.5.4 1.1.6 1.6 1.3 2.5 3.7 4.2 6.4 4.7 5.7 1 10.9-3.2 11.2-8.9.2-1.1-1.5-.8-1.5-.1zm-28.7 7.6c-3.2-.6-5.3-3-6.1-6h14.6c-.9 3.9-4.2 6.8-8.5 6zm19.9 0c-3.2-.6-5.3-3-6.1-6h14.6c-.9 3.9-4.2 6.8-8.5 6z"/>
    <path fill="#512C1D" d="M252 151.5s-.3.7-1.3 1.6l-3.5-10 2.3-10.3-1.2-.3-2.3 10.6 3.8 10.7c-2.7 1.9-8.2 4.4-19.5 5.1-4.3.3-7.5-.9-9.5-3.5-1.2-1.5-1.8-3.3-2.2-5.3.5-1.1 1.3-2.6 1.7-3.3l11.2.6c.9.1 1.7-1.3.6-1.3-3.9-.2-7.9-.5-11.8-.7l-1.8-3.8c.6-5.1 1.9-9.4 2-9.5l-1.1-.4c-.2.7-5.4 16.8.6 24.5 2 2.6 5.1 4 9.2 4h1.3c20.1-1.3 22.8-8 22.9-8.3l-1.4-.4zm-19.4-53.9c-1-3.1-5.2-1-6.8.5-1.7 1.7-2.5 4-2.7 6.3-.1 1.4-.3 3.3.8 4.4.9.9 3.8 1.4 4.9 1 1.4-.5 2.1-3.1 2.5-4.3.9-2.3 2.1-5.5 1.3-7.9zm-4.3 11.6c.1 0-1.8-.4-2.1-.5-.5-.1-1.1-.3-1.5-.8-.6-.7-.5-2.1-.5-3.2l4-.3h.2l2.1-.2c-.1.4-.3.8-.4 1.1-.1.7-.9 3.6-1.8 3.9zm3.2-8.5c-.1 1-.4 1.9-.7 2.9l-2.1.2c.2-.7.6-2.1.2-2.7-.1-.2-.4-.3-.6-.2h-.5c-.5 0-1 .1-1.3.5-.4.4-.5 1.3-.3 2.6l-1.8.2v-.3c.2-1.9.9-3.9 2.3-5.3 1.1-1.1 3.7-2.9 4.7-.9.4.8.2 2.1.1 3z"/>
  </g>
  <path id="brows" class="anim-brows" fill="#512C1D" d="M225 91.8c.2-.3.8-1.3 1.3-1.7 1.5-1.4 3.2-.5 4.7.6.9.6 3.7-.6 2.9-1.2-2.6-1.9-5.7-2.6-8.7-.9-1.5.8-2.6 2.1-3.4 3.6-.3.9 2.8.5 3.2-.4zm14.5 2.8c-.6.1-.1 0 .2 0 .4-.1.8-.1 1.2-.1 1.4 0 2.7.1 4 .6.7.2 1.6 0 2.2-.3.3-.2 1-.8.3-1.1-2.7-1-5.6-1-8.3-.4-.4.1-1.5.5-1.4 1.1.2.6 1.5.3 1.8.2z"/>
  </g>
</svg>
