<svg xmlns="http://www.w3.org/2000/svg" viewBox="-20 -20 190 190">
  <style>
    @keyframes stem-grow { from { stroke-dashoffset: -85; } 25%, to { stroke-dashoffset: 0; } }
    @keyframes leaf-grow1 { from, 5% { transform: scale(0) }  12%, to { transform: none } }
    @keyframes leaf-grow2 { from, 10% { transform: scale(0) }  17%, to { transform: none } }
    @keyframes leaf-grow3 { from, 15% { transform: scale(0) }  22%, to { transform: none } }
    @keyframes leaf-grow4 { from, 25% { transform: scale(0) }  35%, to { transform: none } }
    @keyframes vanish { from, 80% { opacity: 1 } to { opacity: 0 } }

    .stem-grow, .leaf-grow, .anim-grp { animation-duration: 4s; animation-iteration-count: infinite }

    .anim-grp { animation-name: vanish }
    .stem-grow { stroke-dasharray: 90; animation-name: stem-grow}
    .grow-1 { transform-origin: 70px 100px; animation-name: leaf-grow1 }
    .grow-2 { transform-origin: 70px 90px; animation-name: leaf-grow2 }
    .grow-3 { transform-origin: 70px 80px; animation-name: leaf-grow3 }
    .grow-4 { transform-origin: 83px 44px; animation-name: leaf-grow4 }
  </style>

  <circle cx="75" cy="75" r="71" fill="#fff" stroke="#9ac437" stroke-width="6"/>
  <g class="anim-grp">
    <g id="Stem" stroke="#9ac437" stroke-width="4">
      <path fill="none" d="M83.14 44.08S62.4 72.02 72.22 117.75" class="stem-grow" stroke-linecap="round"/>
      <path fill="#fff" d="M69.57 79.8c-14.24.4-13.78-13.04-13.78-13.04s13.36-1.2 13.75 13.03z" class="leaf-grow grow-3"/>
      <path fill="#fff" d="M71.16 89.28c13.55 4.42 16.9-8.6 16.9-8.6s-12.48-4.95-16.9 8.6z" class="leaf-grow grow-2"/>
      <path fill="#fff" d="M68.9 99.4c-11.9 7.85-18.58-3.8-18.58-3.8s10.73-8.1 18.58 3.8z" class="leaf-grow grow-1"/>
    </g>
    <g id="Coin" class="leaf-grow grow-4">
      <circle cx="83.14" cy="44.08" r="16.55" fill="#fff" stroke="#9ac437" stroke-width="4"/>
      <path fill="#9ac437" d="M88.77 48.05v3.28h-11.5v-3.28h1.4V45.6h-1.2v-3h1.2v-1.78a4.53 4.53 0 0 1 4.8-4.7 4.98 4.98 0 0 1 4.8 3.17L85.32 41c-.3-1.03-.77-1.56-1.73-1.56a1.4 1.4 0 0 0-1.5 1.53v1.64h4.12v3H82.1v2.47z"/>
    </g>
  </g>

</svg>

