<svg class="screen-anim" xmlns="http://www.w3.org/2000/svg" viewBox="-128 -32 1024 768">    
<rect height="100%" width="100%" x="-128" y="-32" ry="10%" fill="#7dbab6" />
<g class="line-monitor" fill="none" stroke="#064541" stroke-width="2">
<path d="M617.23 519.7l-3.4 61.06c-.43 7.68-5.73 13.9-12.7 15.9 8.87-.4 16.2-7.48 16.7-16.56L648.5 33.17c.3-5.35-3.1-9.83-7.73-11.38" class="linedraw_0"></path>
<path d="M589.34 483.64l-494-4.67L118 153.64l498-100z" class="linedraw_1"></path>
<path d="M644.5 30.83c.43-7.47-6.4-13.3-13.7-11.7L117.62 130.3c-7.3 1.6-12.7 7.76-13.3 15.2l-29.2 358.77 542.1 15.43L644.5 30.83z" class="linedraw_2"></path>
<path d="M474.34 653.1c2.82 11.43-7.14 24.25-18.62 26.87l-74.44 15.55c-20.13 4.6-40.92 5.58-61.4 2.9l-49.73-6.48 55.07 7.84c12.52 1.78 25.23 1.8 37.75.1l91.6-12.62c18.32-2.53 30.15-20.74 25-38.52l-17.43-60.13-3.03-.2 15.25 64.7z" class="linedraw_3"></path>
<path d="M347.18 581.08c1.38 12.57 3.78 34.02 5.16 45.4 1.44 11.84-5.54 34.18-17.37 35.74-32.1 4.23-127.93 16.98-127.93 16.98-2.63.35-2.63 4.17 0 4.5l112.84 14.73" class="linedraw_4"></path>
<path d="M75.12 504.27l-3.6 44.2c-.65 7.98 5.35 14.93 13.32 15.45l510.3 33.4c9.75.63 18.14-6.8 18.7-16.56" class="linedraw_5"></path>
</g>
<g class="color-monitor" opacity="1" >
<path fill="#C6CACD" d="M458.67 576.64l20.9 72.1c5.15 17.78-6.68 36-25 38.52l-91.6 12.6c-12.52 1.73-25.23 1.7-37.75-.08l-119.88-17.06 173-25.75-3-89.75 83.33 9.42z"/>
<linearGradient id="a" gradientUnits="userSpaceOnUse" x1="336.73" y1="700.26" x2="350.78" y2="566.6">
<stop offset="0" stop-color="#C5C9CC"/>
<stop offset=".27" stop-color="#7B7E83"/>
<stop offset=".38" stop-color="#E2E4E3"/>
<stop offset="1" stop-color="#72757A"/>
</linearGradient>
<path fill="url(#a)" d="M381.28 695.52l74.43-15.55c11.5-2.62 21.5-15.44 18.68-26.88l-17.75-75.4-110.5-6.5s4.2 38.5 6.25 55.22c1.44 11.85-5.54 34.2-17.38 35.75-32.1 4.22-127.93 16.97-127.93 16.97-2.63.35-2.63 4.17 0 4.5L319.9 698.4c20.47 2.68 41.25 1.7 61.4-2.9z"/>
<path fill="#B3B3B3" d="M634.8 21.45l-515.17 110.2c-7.3 1.57-12.7 7.74-13.3 15.18l-32.8 400c-.66 7.95 5.34 14.9 13.3 15.42l512.3 34.4c9.76.63 18.15-6.8 18.7-16.55L648.5 33.17c.43-7.48-6.4-13.3-13.7-11.72z"/>
<path d="M644.5 30.7c.43-7.5-6.4-13.3-13.7-11.72l-513.17 111.2c-7.3 1.57-12.7 7.74-13.3 15.18l-29.2 358.77 542.1 15.43L644.5 30.7z"/>
<path fill="#E6E6E6" d="M84.84 563.78l510.3 33.4c9.75.63 18.14-6.8 18.7-16.56l3.4-61.06L75.1 504.13l-3.6 44.2c-.65 7.97 5.35 14.92 13.32 15.45z"/>
<path fill="#333" d="M589.34 483.64l-494-4.67L118 153.64l498-100"/>
</g>
<style>  
.linedraw_0 {
  stroke-dasharray: 672 674;
  stroke-dashoffset: 673;
}
.linedraw_1 {
  stroke-dasharray: 1759 1761;
  stroke-dashoffset: 1760;
}
.linedraw_2 {
  stroke-dasharray: 1960 1962;
  stroke-dashoffset: 1961;
}
.linedraw_3 {
  stroke-dasharray: 595 597;
  stroke-dashoffset: 596;
}
.linedraw_4 {
  stroke-dasharray: 338 340;
  stroke-dashoffset: 339;
}
.linedraw_5 {
  stroke-dasharray: 607 609;
  stroke-dashoffset: 608;
}  
.line-monitor { animation: enter 1.5s linear 2s both; }
.color-monitor { animation: enter 1.5s linear 2s both; }
.line-monitor { animation-direction: reverse; }
  
.linedraw_0,
.linedraw_1,
.linedraw_2,
.linedraw_3,
.linedraw_4,
.linedraw_5 {
  animation: draw 1200ms ease-out forwards;
}
  
.linedraw_0 { animation-delay: 0}
.linedraw_1 { animation-delay: 1000ms }
.linedraw_2 { animation-delay: 200ms }
.linedraw_3 { animation-delay: 300ms }
.linedraw_4 { animation-delay: 400ms }
.linedraw_5 { animation-delay: 700ms; animation-duration: 600ms }
  
  
@keyframes draw { 100% { stroke-dashoffset: 0;} }
@keyframes enter { 0% { opacity: 0 } 100% { opacity: 1} }

</style></svg>
