<svg xmlns="http://www.w3.org/2000/svg" viewBox="-20 -20 190 190">
  <defs>
    <clipPath id="clippy">
      <circle cx="75" cy="75" r="68"/>
    </clipPath>
  </defs>
  <style>
    @keyframes dropper1 { from, 15% { transform: translatey(-200px) rotate(180deg) } 35% { transform: none } } 
    @keyframes dropper2 { from, 5% { transform: translatey(-200px) rotate(180deg) } 25% { transform: none } } 
    @keyframes dropper3 { from { transform: translatey(-200px) rotate(180deg) } 20% { transform: none } } 
    @keyframes vanish { from, 80% { opacity: 1 } to { opacity: 0 } }

    .anim-grp { animation: vanish 3s infinite }
    .coin-drop { animation: 3s backwards ease-in-out infinite; } 
    .coin-1 { animation-name: dropper1; transform-origin: 71.31px 46px; } 
    .coin-2 { animation-name: dropper2; transform-origin: 77.31px 61.59px; } 
    .coin-3 { animation-name: dropper3; transform-origin: 77.31px 72.34px; }
  </style>
  <g fill="#fff" stroke="#9ac437">
    <circle cx="75" cy="75" r="71" stroke-width="6"/>
    

    
    <g stroke-width="3" class="coin-stack" clip-path="url(#clippy)">
      <path d="M77.74 88.13c-17.18 0-31.1 3.02-31.1 6.73v10.24c0 3.72 13.92 6.73 31.1 6.73s31.1-3 31.1-6.73V94.86c0-3.7-13.92-6.73-31.1-6.73z"/>
      <ellipse cx="77.74" cy="94.86" rx="31.11" ry="6.73"/>
      <path d="M71.3 77.02c-17.17 0-31.1 3.02-31.1 6.73V94c0 3.7 13.93 6.72 31.1 6.72s31.1-3 31.1-6.73V83.7c0-3.7-13.9-6.73-31.1-6.73z"/>
      <ellipse cx="71.31" cy="83.75" rx="31.11" ry="6.73"/>
      
      <g class="anim-grp">
        <g class="coin-drop coin-3">
          <path d="M77.3 65.6c-17.17 0-31.1 3.03-31.1 6.74v10.24c0 3.72 13.93 6.73 31.1 6.73s31.1-3 31.1-6.7V72.38c0-3.7-13.9-6.73-31.1-6.73z"/>
          <ellipse cx="77.31" cy="72.34" rx="31.11" ry="6.73"/>
        </g>
        <g class="coin-drop coin-2">
          <path d="M77.3 54.86c-17.17 0-31.1 3-31.1 6.73v10.2c0 3.7 13.93 6.7 31.1 6.7s31.1-3 31.1-6.75V61.6c0-3.73-13.9-6.74-31.1-6.74z"/>
          <ellipse cx="77.31" cy="61.59" rx="31.11" ry="6.73"/>
        </g>
        <g class="coin-drop coin-1">
          <path d="M71.3 39.27c-17.17 0-31.1 3-31.1 6.73v10.24c0 3.7 13.93 6.73 31.1 6.73s31.1-3.02 31.1-6.73V46c0-3.72-13.9-6.73-31.1-6.73z"/>
          <ellipse cx="71.31" cy="46" rx="31.11" ry="6.73"/>
        </g>
      </g>
      
    </g>
  </g>
</svg>
