<svg xmlns="http://www.w3.org/2000/svg" viewBox="34 -10 160 160">
  <clipPath id="square" >
   <rect  x="34" y="-10" height="100%" width="100%" rx="10%"/>
  </clipPath>
      <style>
        @keyframes rotate-left { from, 25% { transform: translateY(30px) rotate(-90deg) } 50%, to { transform: translateY(-30px) rotate(90deg) }}
        @keyframes rotate-right { from, 25% { transform: translateY(30px) rotate(45deg) } 50%, to { transform: translateY(-30px) rotate(-45deg) }}

      .cog.right { transform-origin: 86.5px 87px; -webkit-transform-origin: 86.5px 87px; animation: 4s rotate-right linear infinite alternate; }
      .cog.left { transform-origin: 33.7px 33.5px; -webkit-transform-origin: 33.7px 33.5px; animation: 4s rotate-left linear infinite alternate; }
    </style>
  <rect  x="34" y="-10" height="100%" width="100%" fill="#223740" rx="10%"/>
  <g fill="#E8531B"  clip-path="url(#square)">
    <path class="cog right" d="m130,87 v-0.09 l4.62,-1.48 l-0.15,-2.03 l-0.15,-2.03 l-4.79,-0.77 c-0.33,-2.24 -0.83,-4.42 -1.48,-6.53 l3.97,-2.77 l-0.74,-1.9 l-0.74,-1.9 l-4.8,0.67 c-0.97,-2.02 -2.1,-3.96 -3.36,-5.8 l2.99,-3.83 l-1.27,-1.59 l-1.27,-1.59 l-4.4,2.06 c-0.89,-0.96 -1.83,-1.88 -2.8,-2.76 l-0.98,-0.98 l-0.06,0.06 c-0.35,-0.3 -0.7,-0.59 -1.06,-0.87 l1.73,-4.54 l-1.68,-1.15 l-1.68,-1.15 l-3.59,3.26 c-1.92,-1.12 -3.94,-2.09 -6.03,-2.91 l0.31,-4.83 l-1.95,-0.6 l-1.95,-0.6 l-2.47,4.17 c-2.15,-0.49 -4.36,-0.83 -6.62,-0.99 l-1.13,-4.72 h-4.07999 l-1.13,4.72 c-2.26,0.16 -4.47,0.5 -6.62,0.99 l-2.47,-4.17 l-1.95,0.6 l-1.95,0.6 l0.31,4.83 c-2.1,0.82 -4.11,1.79 -6.04,2.91 l-3.59,-3.26 l-1.68,1.15 l-1.68,1.15 l1.73,4.54 c-0.36,0.28 -0.71,0.58 -1.05,0.87 l-0.06,-0.06 l-0.98,0.98 c-0.97,0.88 -1.91,1.8 -2.8,2.76 l-4.4,-2.06 l-1.27,1.59 l-1.27,1.59 l2.99,3.83 c-1.26,1.84 -2.39,3.77 -3.36,5.8 l-4.8,-0.67 l-0.74,1.9 l-0.74,1.9 l3.97,2.77 c-0.66,2.11 -1.15,4.3 -1.48,6.53 l-4.84,0.76 l-0.15,2.03 l-0.15,2.03 l4.63,1.48 v0.09 c0,2.24 0.17,4.44 0.49,6.59 l-4.35,2.15 l0.45,1.99 l0.45,1.99 l4.85,0.05 c0.66,2.15 1.48,4.24 2.45,6.24 l-3.52,3.33 l1.02,1.77 l1.02,1.76 l4.65,-1.38 c1.26,1.85 2.66,3.6 4.18,5.23 l-2.39,4.23 l1.49,1.39 l1.49,1.39 l4.04,-2.69 c1.74,1.39 3.58,2.66 5.53,3.78 l-1.03,4.74 l1.84,0.88 l1.84,0.88 l3.06,-3.76 c2.06,0.82 4.2,1.48 6.4,1.97 l0.41,4.83 l2.01,0.3 l2.02,0.3 l1.82,-4.5 c1.11,0.08 2.22,0.13 3.35,0.13 s2.24,-0.04 3.35,-0.13 l1.82,4.5 l2.02,-0.3 l2.02,-0.3 l0.41,-4.83 c2.2,-0.5 4.34,-1.16 6.4,-1.97 l3.06,3.76 l1.84,-0.88 l1.84,-0.88 l-1.03,-4.74 c1.94,-1.12 3.79,-2.39 5.53,-3.78 l4.04,2.69 l1.49,-1.39 l1.49,-1.39 l-2.38,-4.23 c1.52,-1.63 2.92,-3.38 4.18,-5.23 l4.65,1.38 l1.02,-1.76 l1.02,-1.77 l-3.52,-3.33 c0.97,-2 1.79,-4.08 2.45,-6.24 l4.85,-0.05 l0.45,-1.99 l0.45,-1.99 l-4.35,-2.15 c0.34,-2.14 0.51,-4.34 0.51,-6.58m-43.59,-37.96 c9.18,0 17.6,3.27 24.15,8.71 l-8.94,8.94 c-8.4,8.4 -22.02,8.4 -30.42,0 l-8.94,-8.94 c6.55,-5.44 14.97,-8.71 24.15,-8.71m6.11,37.84 c0,3.37 -2.74,6.11 -6.11,6.11 s-6.11,-2.74 -6.11,-6.11 s2.74,-6.11 6.11,-6.11 s6.11,2.74 6.11,6.11m-35.25,24.15 c-5.44,-6.55 -8.71,-14.97 -8.71,-24.15 s3.27,-17.6 8.71,-24.15 l8.94,8.94 c8.4,8.4 8.4,22.02 0,30.42 l-8.94,8.94m29.14,13.69 c-9.18,0 -17.6,-3.27 -24.15,-8.71 l8.94,-8.94 c8.4,-8.4 22.02,-8.4 30.42,0 l8.94,8.94 c-6.56,5.44 -14.97,8.71 -24.15,8.71m29.13,-13.69 l-8.94,-8.94 c-8.4,-8.4 -8.4,-22.02 0,-30.42 l8.94,-8.94 c5.44,6.55 8.71,14.97 8.71,24.15 s-3.27,17.6 -8.71,24.15"/>
    <path class="cog left" d="M49.52 14.47c-.01-.01-.03-.02-.04-.03l1.02-2.55-.94-.67-.94-.67-2.06 1.81c-1.09-.66-2.22-1.23-3.38-1.71l.22-2.73-1.09-.36-1.09-.36-1.44 2.33c-1.23-.31-2.48-.51-3.73-.63l-.59-2.68-1.15-.02h-1.15l-.69 2.66c-.74.04-1.48.12-2.21.23l-.78.07.01.05c-.25.05-.51.09-.76.15l-1.36-2.39-1.11.32-1.11.32.13 2.74c-1.18.43-2.33.96-3.44 1.58l-1.99-1.88-.96.63-.96.63.93 2.58c-.99.76-1.93 1.6-2.82 2.53l-2.46-1.21-.73.89-.73.89 1.65 2.19c-.74 1.04-1.39 2.12-1.95 3.24l-2.7-.43-.44 1.07-.44 1.06 2.22 1.61c-.4 1.21-.7 2.44-.9 3.68l-2.71.39-.15 1.13-.1 1.15 2.6.88c-.01.26 0 .52 0 .77l-.05.01.07.78c.03.74.1 1.48.19 2.21L6.93 37.9l.24 1.13.24 1.13 2.74.08c.35 1.21.78 2.4 1.32 3.55l-2.02 1.85.55 1.01.56 1.01 2.64-.73c.68 1.05 1.45 2.05 2.31 3l-1.39 2.36.83.8.83.8 2.31-1.48c.01.01.03.02.04.03.97.81 1.99 1.52 3.05 2.16l-.63 2.67 1.03.52 1.03.52 1.77-2.09c1.18.49 2.38.88 3.6 1.18l.18 2.73 1.14.19 1.14.19 1.07-2.52c1.26.12 2.52.14 3.78.07l.99 2.56 1.14-.15 1.14-.15.28-2.73c1.23-.26 2.45-.6 3.64-1.05l1.69 2.15 1.05-.48 1.05-.48-.53-2.68c1.1-.61 2.16-1.3 3.16-2.08l2.25 1.56.86-.77.86-.77-1.3-2.41c.43-.45.86-.92 1.26-1.41.41-.49.79-.99 1.15-1.5l2.61.83.59-.99.59-.99-1.95-1.92c.58-1.14 1.06-2.31 1.45-3.5l2.74.02.28-1.12.28-1.12-2.43-1.26c.21-1.25.33-2.51.35-3.77l2.63-.79-.06-1.15-.07-1.15-2.7-.49c-.16-1.25-.42-2.49-.77-3.7l2.28-1.53-.4-1.08-.4-1.08-2.72.33c-.52-1.14-1.13-2.25-1.83-3.31l1.72-2.13-.7-.91-.7-.91-2.5 1.12c-.88-.93-1.77-1.79-2.75-2.6 M17.3 19.78c3.31-4 7.76-6.48 12.49-7.38l.67 7.11c.63 6.68-4.27 12.61-10.96 13.25l-7.11.67c-.01-4.81 1.6-9.65 4.91-13.65 m18.67 10.97c1.47 1.21 1.67 3.4.46 4.86-1.21 1.47-3.4 1.67-4.86.46-1.47-1.21-1.68-3.4-.46-4.86 1.21-1.47 3.4-1.68 4.86-.46 m-2.18 24.04c-4.81.01-9.65-1.6-13.65-4.91s-6.48-7.76-7.38-12.49l7.11-.67c6.68-.63 12.61 4.27 13.25 10.96l.67 7.11zm16.46-7.75c-3.31 4-7.76 6.48-12.49 7.38l-.67-7.11c-.63-6.68 4.27-12.61 10.96-13.25l7.11-.67c0 4.81-1.61 9.65-4.91 13.65m4.53-17.62l-7.11.67c-6.68.63-12.61-4.27-13.25-10.96l-.67-7.11c4.81-.01 9.65 1.6 13.65 4.9 4 3.32 6.48 7.78 7.38 12.5"/>
    </g>
</svg>
