<svg id="sap-ico" xmlns="http://www.w3.org/2000/svg" viewBox="-6 -6 48 48">
  <defs>
    <linearGradient id="gr" gradientUnits="objectBoundingBox" x1="1" y1="1" x2="1">
      <stop offset="0" stop-color="#DD3123"/>
      <stop offset="1" stop-color="#F3C51D"/>
    </linearGradient>
    <mask id="msk1" maskUnits="userSpaceOnUse" height="36" width="36">
      <path d="M0 0h36v36H0z"/>
      <path fill="#fff" d="M12.4 5.73c1.26.07 2.42-.15 3.67-.15 1.28 0 2.52-.1 3.78-.15.52-.03.96-.17 1.46-.28.46-.1.92-.07 1.4-.07.13 0 .25-.02.38-.04-1.68-.8-3.56-1.26-5.54-1.26-2.48 0-4.8.7-6.75 1.92.52.06 1.08 0 1.6.03zM27.62 8.7l-.57.22c-.48.17-.96.43-1.45.5-.98.18-1.95.2-2.96.3-1.1.12-2.17.1-3.26.04-.92-.06-1.82-.05-2.7-.28-.5-.14-1-.18-1.56-.18-.3 0-.66.1-.97.03-.18-.03-.33-.13-.52-.15l-.03-.03c.13 0 .2-.1.33-.12.13-.05.3-.04.45-.05.36-.03.72 0 1.08-.03.63-.03 1.26-.07 1.88-.12.66-.06 1.35-.07 2-.08.66 0 1.3-.1 1.95-.12.5-.03 1.03-.06 1.56-.06.13 0 .27.02.38-.02.1-.02.12-.1.2-.12.2-.07.4-.06.6-.08.47-.05.92-.1 1.4-.1.6 0 1.18.12 1.78.15h.17c-.7-.8-1.47-1.54-2.33-2.16-.25.02-.5.07-.74.08-.4.02-.87.14-1.25.32-.4.2-.72.53-1.18.62-.5.1-1.07.03-1.58.03-.43 0-.97-.14-1.34 0-.45.2-.9.2-1.4.23-1.16.08-2.4.23-3.55.1-.48-.06-.94-.24-1.44-.16-.54.1-1.06.22-1.6.2-.94-.07-1.85 0-2.77.12-.32.33-.63.7-.9 1.06l.3.06c.4.12.85.26 1.3.32.9.13 1.9.1 2.8-.1l.05.37c-.25.03-.54-.02-.8.02-.27.06-.32.2-.54.3-.5.2-1.17.12-1.73.12-.7 0-1.4 0-2.1-.02-1.24 1.98-1.95 4.33-1.95 6.84 0 7.18 5.77 13 12.9 13 7.1 0 12.87-5.82 12.87-13 0-3.05-1.05-5.86-2.8-8.07z"/>
    </mask>
    <mask id="msk2">
      <path d="M0 0h36v36H0z"/>
      <circle fill="#fff" cx="17.6" cy="16.6" r="13.5"/>
    </mask>
    <style>
      @keyframes rise { from { transform: translateY(30px) } 50% { transform: none } }
      .sunrise {animation: rise 8s ease-out infinite alternate }
    </style>
  </defs>

<!--  <rect x="-5" y="-5" height="100%" width="100%" fill="#000" />-->

  <g id="bg">
    <circle fill="#E3E3E4" stroke="#1D1D1B" stroke-width="0.5" cx="18" cy="18" r="16.5"/>
    <circle fill="#fff" cx="17.6" cy="17.5" r="15"/>
  </g>
  <g mask="url(#msk2)">
    <circle id="sun" class="sunrise" fill="url(#gr)" mask="url(#msk1)" cx="17.5" cy="16.6" r="13.5"/>
  </g>
  <g>
    <path fill="#1d1d1b" d="M9.04 27.73l-.1.1c.12-.05.2-.03.3.05.14.12.13.24-.02.4l-.04.06L9 28.2l.05-.04c.08-.1.08-.13 0-.2s-.16-.06-.27.07l-.36.42-.18-.15.63-.72.17.15zm.84 1.47l-.02.04c-.13.17-.26.16-.5-.02-.3-.22-.33-.35-.1-.67.24-.3.37-.34.65-.14.3.23.32.35.1.65l-.05.06-.52-.38-.02.04c-.1.15-.1.2.04.32.14.1.18.1.25 0l.18.13zm0-.37c.1-.13.08-.17-.06-.27s-.2-.1-.3.05l.34.26.02-.03zm.92.51c.05-.1.05-.1-.1-.2-.13-.08-.17-.08-.22 0-.03.06-.03.1 0 .12l.15.1c.18.13.2.17.24.23.02.06 0 .13-.05.22-.12.2-.26.2-.54.03-.28-.18-.33-.3-.2-.47v-.02l.2.12-.02.03c-.05.1-.03.13.1.2.15.1.2.1.26.02.05-.08.03-.12-.06-.18-.35-.22-.4-.3-.28-.5s.23-.2.52-.02c.27.16.32.26.2.44l-.2-.12zm1.06.48l-.32-.17-.22.42c-.06.1-.05.13.02.17.08.05.12.03.18-.1v-.03l.18.1-.02.05c-.12.22-.22.26-.43.15-.16-.1-.2-.15-.2-.25 0-.05 0-.08.05-.15l.23-.46-.1-.05.07-.17.1.06.1-.2.22.1-.1.2.32.16-.08.16zm.2.21c.1-.2.18-.23.47-.1.32.13.38.23.28.48l-.24.58-.2-.1.05-.1c-.1.08-.17.08-.33 0-.24-.1-.3-.2-.2-.4.08-.2.2-.24.44-.14.18.07.23.12.23.22l.06-.15c.05-.13.03-.17-.1-.24-.14-.05-.18-.04-.23.06l-.2-.1zm.03.43c-.06.1-.04.15.12.2.14.08.2.06.24-.03.05-.1.02-.15-.14-.22-.14-.05-.2-.04-.23.06zm1.61.92l-.23-.07.07-.14c-.1.1-.2.12-.35.06-.23-.07-.3-.2-.22-.4l.2-.62.23.08-.18.55c-.05.16-.03.2.1.24.16.06.23 0 .3-.18l.15-.5.22.07-.3.9zm.8-.78l-.05.13c.1-.1.17-.1.3-.08.17.05.22.15.16.37v.07l-.22-.07.02-.04c.03-.13 0-.17-.08-.2-.12-.02-.18.02-.22.2l-.14.53-.22-.05.23-.93.23.05zm.62.44c.05-.23.13-.27.44-.22.35.06.43.15.38.4l-.1.63-.23-.04.04-.12c-.07.1-.15.12-.33.1-.24-.05-.32-.14-.28-.36.04-.2.14-.28.4-.24.18.03.24.07.27.16l.02-.15c.02-.16 0-.2-.17-.23-.14-.03-.17 0-.2.1l-.23-.03zm.14.4c-.02.12 0 .16.17.2.16 0 .2 0 .23-.12.02-.1-.02-.14-.2-.17-.14-.03-.2 0-.2.1zm1.24-.48l-.02.16c.06-.1.16-.16.3-.15.26.02.35.1.33.35l-.05.65-.23-.02.05-.58v-.03c0-.13-.03-.18-.15-.2-.16 0-.23.06-.25.2l-.05.58-.23-.03.07-.96.23.02zm1.53.24h-.37v.48c0 .1 0 .14.1.14.08 0 .1-.04.1-.17v-.03h.2v.05c0 .25-.08.33-.32.32-.18 0-.26-.04-.3-.14 0-.03-.02-.06-.02-.15v-.5h-.12V31h.13v-.2h.23v.2h.37v.18zm.45.78c0 .14-.03.2-.14.2h-.03v-.08c.07 0 .1-.03.1-.1v-.03h-.08v-.18l.15-.02v.2zm1.5-.88c-.02-.13-.04-.14-.27-.1-.2.03-.23.05-.2.17 0 .1.03.14.1.14h.32c.2-.03.28.04.3.22.04.22-.05.3-.35.34-.3.04-.42 0-.45-.2v-.06l.14-.02v.05c.02.12.07.15.26.12.24-.03.28-.07.26-.2 0-.13-.04-.15-.15-.14l-.2.03c-.25.02-.32-.02-.35-.22-.03-.2.04-.27.36-.3.3-.05.4 0 .4.16l.02.03h-.14zm1.34.46l-.13.03-.03-.13c-.03.1-.12.17-.28.2-.24.05-.36-.02-.4-.25l-.15-.62.14-.03.13.62c.03.16.1.2.25.15.2-.05.27-.13.22-.36l-.12-.54.14-.03.2.93zm.74-.96c-.05-.12-.07-.13-.3-.06-.18.06-.2.1-.18.2.04.1.06.14.13.13l.14-.03c.05 0 .02 0 .08-.02h.05l.05-.02c.18-.05.27 0 .33.18.06.2 0 .3-.3.4-.3.08-.42.05-.48-.15v-.05l.13-.04v.05c.05.1.1.13.3.07.2-.07.25-.1.2-.25-.03-.1-.06-.13-.17-.1l-.2.05c-.25.06-.32.02-.38-.17-.06-.2 0-.28.3-.37.27-.08.38-.06.43.1v.04l-.12.04zm.49-.3c0-.1.07-.17.23-.23.27-.1.37-.06.47.2l.22.57-.13.05-.22-.57c-.07-.2-.12-.22-.3-.15-.2.1-.25.17-.16.4l.2.5-.13.06-.5-1.28.13-.05.2.5zm.89-.77l-.13.06-.06-.16.13-.05.07.13zm.5 1.1l-.12.05-.4-.86.12-.06.4.87zm1.51-1.53l.06.1c.05.05.08.1.1.16l.3.04v.14l-.27-.04c.02.16-.05.24-.3.4-.24.14-.32.18-.42.17-.1 0-.18-.08-.27-.23-.14-.22-.14-.3 0-.44l.04-.03c-.14-.02-.17-.05-.23-.14-.14-.22-.1-.33.17-.5.27-.16.4-.14.52.07l.04.07-.13.08-.03-.04c-.1-.16-.13-.17-.32-.05-.18.1-.2.16-.13.27.05.08.08.1.2.12l.67.1-.04-.08-.06-.08.13-.08zm-.66.3c-.15.13-.16.16-.05.34.08.12.14.18.2.2.05 0 .1-.02.3-.14.2-.14.26-.2.23-.32l-.7-.1zm1.37-1.26l.1.1c-.04-.1 0-.2.14-.32.13-.1.24-.14.33-.1.04.02.08.05.16.15l.4.48-.12.1-.4-.48c-.12-.16-.17-.17-.32-.04-.16.13-.18.24-.05.4l.38.44-.1.1-.62-.75.1-.08zm1.64-.87c.3.32.32.42.06.66-.26.25-.37.24-.65-.06-.27-.3-.28-.4-.02-.65.25-.24.36-.23.63.05zm-.48.5c.23.24.27.25.45.08.2-.18.18-.22-.07-.48-.2-.22-.26-.23-.44-.06-.18.18-.18.22.05.47zm1.23-1.34c.33.3.34.4.1.66-.23.26-.33.26-.64-.02-.3-.27-.32-.37-.08-.64.22-.26.34-.26.63 0zm-.45.55c.26.22.3.22.47.03.17-.18.16-.22-.1-.45-.25-.2-.3-.22-.46-.03-.16.2-.15.23.1.46zm1.5-1.12l-.07.1-.1-.07c.05.1.03.2-.07.32-.17.24-.32.24-.63 0-.3-.2-.33-.35-.17-.57.1-.15.2-.2.3-.17l-.42-.33.08-.1 1.1.8zm-1 0c0 .07.08.15.2.25.27.2.35.2.5.02.05-.1.08-.16.06-.22-.02-.05-.1-.13-.23-.23-.22-.16-.32-.16-.45.02-.05.06-.08.13-.07.17zm1.3-.43l-.08.12-1.14-.75.07-.12 1.15.75zm.35-1.15s.03 0 .03.02c.18.1.18.22.03.48-.17.3-.28.33-.64.12-.33-.2-.38-.3-.22-.6.14-.22.22-.28.38-.24.06 0 .1.04.3.14l-.36.6c.27.14.32.14.44-.07.12-.2.12-.24-.02-.33l.07-.12zm-.3 0c-.24-.14-.28-.13-.4.08-.1.2-.1.26.12.38l.27-.47zm-.27-1.26l.05-.13.5.2c-.08-.08-.1-.18 0-.35.1-.26.24-.3.6-.15.33.14.4.28.3.55-.07.15-.14.2-.25.22l.1.05-.04.12-1.27-.52zm.85.2c.3.13.38.12.47-.1.08-.2.04-.27-.25-.4-.28-.1-.36-.1-.44.1-.07.2-.03.3.23.4zm.19-.97c-.22-.08-.25-.16-.15-.45.1-.3.2-.36.44-.28l.6.2-.03.13-.1-.04c.07.1.08.18.02.36-.1.25-.2.32-.4.25-.22-.06-.26-.17-.18-.44.06-.17.1-.24.2-.25l-.12-.04c-.2-.06-.26-.04-.33.16-.06.18-.04.25.06.28h.03l-.04.14zm.4.02c.16.04.2 0 .27-.2.05-.2.03-.27-.1-.3-.14-.06-.2-.02-.26.2-.07.2-.05.25.1.3zm-.3-1.3l.1.04c-.07-.08-.1-.16-.06-.3.05-.17.15-.23.33-.18h.05l-.03.15-.07-.02c-.1-.03-.15 0-.18.12-.04.17.02.24.22.3l.55.13-.03.13-.93-.23.02-.13zm-3.98 1.1c-.03 0-.05.04-.06.07.05.06.12.08.2.08.06-.1 0-.2-.12-.15m-16.98.75v2.33H9.6c-.06-.66 0-.8 0-1.97 0-.12.1-.3.28-.36zm16.42.06c.05.44-.82.68-1.2 1.05.22.2.5.46.76.6.17.1.36.02.58.13-.07.12-.2.14-.36.14-.48 0-.54-.18-1.18-.68-.3.16-.06.58-.16.8 0 0-.26-.03-.26-.2 0-.26.15-1.46.4-1.72v.76c.58-.2.92-.55 1.4-.88zm-6.37.37c.3 0 .54.95.55.98l-.12.7c-.18-.5-.25-.93-.33-1.35-.03-.05 0-.08-.16-.08-.46 0-.8 1.2-.83 1.32-.04.07-.1.14-.22.23-.1-.1-.12-.13-.12-.28 0-.07.1-1.08.32-1.27.1.22.05.47.06.62.2-.3.7-.87.85-.87zm2.62.01c-.27 1.2-.9 1.75-.78 2.92-.08.08-.37-.14-.37 0 0-.15.3-.98.3-1.14 0-.1-.72-.9-.9-1.72.46.23.6.92.97 1.35.32-.37.3-1.22.78-1.4zm-9.23.11c.3 0 1 .17 1 .56 0 .46-1.2 1.18-1.45 1.15 0 0 0-.12.02-.18.1-.07 1.2-.6 1.2-1 0-.34-.7-.34-.7-.34-.77 0-.67.73-.67 1.02 0 .15.2 1.1.2 1.27 0 .15-.05.24-.3.3-.08-.85-.14-1.66-.25-2.48 0 0 0-.1.13-.24.14.07.08.13.23.13.16 0 .15-.12.23-.17.13-.03.2-.03.36-.03zm2.18 0c.26 0 1 .1 1 .56-.02.35-1.07 1.1-1.5 1.07.07-.1 1.24-.7 1.24-1.1 0-.34-.62-.34-.65-.34-.84 0-.65.57-.65 1 0 .14.06.9.17 1.52-.1.02-.17.08-.28.06-.02-.35-.2-.87-.2-1.03v-1.24c0-.16-.06-.15-.12-.32 0 0 .03-.1.18-.1s.03.12.2.12c.14 0 .45-.2.6-.2zm11.14.03h.2v1.52c-.15-.23-.2-.58-.2-.74v-.8zm-15.82.6h.02c.16-.1.34-.17.5-.26.17-.1.3-.2.43-.32-.07-.12-.25-.24-.4-.18-.13.06-.28.2-.36.3-.03.07-.1.13-.13.2s-.06.18-.06.26m.77-1c.15 0 .35.14.5.3-.32.5-.94.75-1.2.88-.07.05-.04 0-.04.15 0 .4.28.4.4.4.15 0 .42-.1.75-.28-.2.27-.63.47-.78.47-.45 0-.68-.36-.68-.65 0-.46.5-1.27 1.05-1.27zm11.56.84c-.1.02-.2.16-.25.23-.04.05-.08.1-.1.15-.05.1-.05.2-.06.33 0 .07-.02.23.05.27.06.04.18-.1.24-.15.18-.16.32-.34.35-.6 0-.06.02-.25-.02-.3-.05-.06-.17 0-.23.04m0-.3h.63c.2.42-.07.9.3 1.28.03 0 .3-.12.25.2-.1 0-.1.06-.25.06s-.45-.4-.6-.62c-.12.23-.38.55-.73.75-.1-.08-.24-.34-.24-.5 0-.37.27-.8.66-1.17zm-5.86.35c-.1.03-.18.17-.25.24l-.1.14c-.04.1-.05.22-.05.33 0 .07-.03.24.04.28.1.04.2-.1.26-.15.2-.16.33-.35.36-.6 0-.06.03-.25 0-.3-.07-.07-.18 0-.24.04m0-.3h.62c.2.4-.07.88.3 1.26.03 0 .3-.1.26.2-.1 0-.1.07-.26.07-.15 0-.44-.4-.58-.62-.13.22-.4.55-.74.74-.1-.1-.24-.35-.24-.5 0-.37.26-.8.65-1.17zm-6.26-1.7h-.44l-2.17.67s-.3-.05-.2-.22c.14-.16 1.92-.56 1.92-.56s.7-.45.88.12zm3.33-6.61c-.18 0-.44 0-.6.02-.2.05-.55.35-.73.35-.18 0-.22-.22-.4-.3l-.36.35c.07.26.3.56.3.75v1.9c-.15 0-.26 0-.33.02-.4-.07-.62-1.28-.62-1.57 0-.17.14-.56.14-.74 0-.17-.02-.25-.12-.34-.32.07-.33.13-.5.13-.18 0-.25-.15-.43-.15-1 0-1.6 2.13-1.6 2.42 0 0 0 .92.46.92.5 0 1.46-1.26 1.63-1.36.54.66.5 1.06 1.15 1.06.06 0 .13 0 .2-.04v.18c0 .2.3 1.48.46 2.2h.65l-.15-.2c-.15-1.06-.44-2.93-.44-3.1 0-.98-.14-2.15 1.48-2.15.16 0 1.48-.03 1.48.73 0 .87-2.67 2.2-2.67 2.28 0 .2.1.23.1.23h.28c.2-.08 2.73-1.52 2.73-2.43 0-.88-1.52-1.17-2.1-1.17zM9.63 18.4c-.1-.75.35-1.85 1.3-2.25.1.1.13.18.13.35 0 .4-.88 1.84-1.43 1.9zm9.5-2.96c-.18 0-.44 0-.57.02-.2.05-.55.33-.72.33-.18 0-.08-.22-.26-.2h-.38c-.03.2-.1.12-.1.3s.28.63.28.8V19c0 .17.28 1.35.45 2.03.26-.04.46-.25.46-.34 0-.2-.43-2.78-.43-2.96 0-.8-.14-1.95 1.4-1.95 0 0 1.46-.02 1.46.67 0 .9-2.53 2.1-2.65 2.23.1.12.1.2.1.2h.26c.3-.12 2.7-1.35 2.7-2.33 0-.92-1.64-1.13-2-1.13zm8.24-.36c-.87 0-1.8 1.2-2.16 1.2-.17 0-.05.03-.1-.02v-.45h-.4c0 .13-.08.1-.08.28 0 .17.34.66.35.84v1.55h.6v-1.6c.02-.58 1.25-1.36 1.62-1.36.17 0 .34.15.5.15.2 0 .2-.07.32-.1-.15-.23-.48-.47-.65-.47zm2.28-.2c-.98 0-1.78 1.28-1.78 2.08 0 .15.1 1.6.87 1.6.8 0 2.06-1.3 2.06-2.27 0-.48-.46-1.43-1.15-1.43zm.35 2.2l-.27.48c-.1.15-.25.2-.4.28-.07.04-.13.1-.2.13-.07.04-.2 0-.28-.03-.14-.05-.23-.17-.3-.3l-.14-.25c-.03-.1-.03-.14-.03-.25 0-.18 0-.34.05-.5.04-.18.04-.28.15-.43.07-.1.13-.24.22-.34l.06-.02c.23-.2.6-.42.9-.4.2.02.46.1.57.3.1.12.08.3.06.46-.06.3-.22.6-.4.87zM5.1 16.07c-.24-.07-.38-.23-.38-.4 0-.72 1.5-1.2 1.92-1.2.17 0 .87.34 1.04.34.18 0 .1-.07.23-.1v-.3c-.82-.43-.72-.38-1.22-.38-.37 0-2.44.65-2.44 1.56 0 1.56 4.3.5 4.3 1.46 0 .35-1.67 1.24-1.86 1.24-.18 0-.28-.2-.46-.2-.1.17-.24.27-.24.45 0 .17.07.1.08.23h.6c.3.02 2.38-1.14 2.38-1.76 0-.6-3.2-.74-3.95-.95zm18.05-1.2c-.96 0-1.8 1.3-1.8 2.1 0 .15.16 1.6.9 1.6.84 0 2.1-1.42 2.1-2.27 0-.48-.52-1.43-1.2-1.43zm.7 1.38c-.05.3-.22.6-.4.87-.1.16-.17.33-.26.48-.1.15-.26.22-.42.3-.07.02-.12.08-.18.1-.08.05-.2 0-.3-.02-.13-.04-.22-.16-.3-.3-.05-.07-.1-.16-.13-.25-.04-.07-.05-.12-.05-.22 0-.2.02-.35.05-.5.05-.2.05-.3.15-.44.08-.1.13-.24.22-.34l.08-.02c.23-.2.6-.42.9-.4.2.02.45.1.57.3.07.12.06.3.04.46z"/></g>
</svg>
